<?xml version="1.0" encoding="UTF-8" standalone="no"?>
<svg
   version="1.1"
   viewBox="0 0 814.63885 770.97913"
   fill="none"
   stroke="none"
   stroke-linecap="square"
   stroke-miterlimit="10"
   id="svg129"
   sodipodi:docname="diagram3.svg"
   width="814.63885"
   height="770.97913"
   inkscape:version="1.2.2 (b0a84865, 2022-12-01)"
   xmlns:inkscape="http://www.inkscape.org/namespaces/inkscape"
   xmlns:sodipodi="http://sodipodi.sourceforge.net/DTD/sodipodi-0.dtd"
   xmlns="http://www.w3.org/2000/svg"
   xmlns:svg="http://www.w3.org/2000/svg">
  <defs
     id="defs133" />
  <sodipodi:namedview
     id="namedview131"
     pagecolor="#ffffff"
     bordercolor="#000000"
     borderopacity="0.25"
     inkscape:showpageshadow="2"
     inkscape:pageopacity="0.0"
     inkscape:pagecheckerboard="0"
     inkscape:deskcolor="#d1d1d1"
     showgrid="false"
     inkscape:zoom="0.9734375"
     inkscape:cx="640"
     inkscape:cy="480.25682"
     inkscape:window-width="1390"
     inkscape:window-height="1205"
     inkscape:window-x="0"
     inkscape:window-y="261"
     inkscape:window-maximized="0"
     inkscape:current-layer="svg129" />
  <clipPath
     id="p.0">
    <path
       d="M 0,0 H 1280 V 960 H 0 Z"
       clip-rule="nonzero"
       id="path2" />
  </clipPath>
  <g
     clip-path="url(#p.0)"
     id="g127"
     transform="translate(-73.964687,-76.019262)">
    <path
       fill="#000000"
       fill-opacity="0"
       d="M 0,0 H 1280 V 960 H 0 Z"
       fill-rule="evenodd"
       id="path5" />
    <path
       fill="#ffffff"
       d="m 130.30708,269.6136 v 0 c 0,-56.69655 45.96166,-102.6582 102.65822,-102.6582 h 476.7623 c 27.22668,0 53.3382,10.81575 72.59033,30.0679 19.25214,19.25214 30.06787,45.36367 30.06787,72.5903 v 410.6206 c 0,56.69654 -45.96161,102.6582 -102.6582,102.6582 H 232.9653 c -56.69656,0 -102.65822,-45.96167 -102.65822,-102.6582 z"
       fill-rule="evenodd"
       id="path7" />
    <path
       stroke="#000000"
       stroke-width="1"
       stroke-linejoin="round"
       stroke-linecap="butt"
       d="m 130.30708,269.6136 v 0 c 0,-56.69655 45.96166,-102.6582 102.65822,-102.6582 h 476.7623 c 27.22668,0 53.3382,10.81575 72.59033,30.0679 19.25214,19.25214 30.06787,45.36367 30.06787,72.5903 v 410.6206 c 0,56.69654 -45.96161,102.6582 -102.6582,102.6582 H 232.9653 c -56.69656,0 -102.65822,-45.96167 -102.65822,-102.6582 z"
       fill-rule="evenodd"
       id="path9" />
    <path
       fill="#000000"
       d="M 171.7184,236.74295 V 213.8367 h 3.03125 v 20.20312 h 11.28125 v 2.70313 z m 16.51562,-8.29688 q 0,-4.60937 2.5625,-6.82812 2.14063,-1.84375 5.21875,-1.84375 3.42188,0 5.59375,2.25 2.17188,2.23437 2.17188,6.1875 0,3.20312 -0.96875,5.04687 -0.95313,1.82813 -2.79688,2.84375 -1.82812,1.01563 -4,1.01563 -3.48437,0 -5.64062,-2.23438 -2.14063,-2.23437 -2.14063,-6.4375 z m 2.89063,0 q 0,3.1875 1.39062,4.78125 1.39063,1.57813 3.5,1.57813 2.09375,0 3.48438,-1.59375 1.39062,-1.59375 1.39062,-4.85938 0,-3.07812 -1.40625,-4.65625 -1.39062,-1.59375 -3.46875,-1.59375 -2.10937,0 -3.5,1.57813 -1.39062,1.57812 -1.39062,4.76562 z m 26.78125,6.25 q -1.5625,1.32813 -3.01563,1.875 -1.4375,0.54688 -3.09375,0.54688 -2.73437,0 -4.20312,-1.32813 -1.46875,-1.34375 -1.46875,-3.42187 0,-1.21875 0.54687,-2.21875 0.5625,-1.01563 1.45313,-1.625 0.90625,-0.60938 2.03125,-0.92188 0.82812,-0.21875 2.5,-0.42187 3.40625,-0.40625 5.01562,-0.96875 0.0156,-0.57813 0.0156,-0.73438 0,-1.71875 -0.79688,-2.42187 -1.07812,-0.95313 -3.20312,-0.95313 -1.98438,0 -2.9375,0.70313 -0.9375,0.6875 -1.39063,2.45312 l -2.75,-0.375 q 0.375,-1.76562 1.23438,-2.84375 0.85937,-1.09375 2.48437,-1.67187 1.625,-0.59375 3.76563,-0.59375 2.125,0 3.45312,0.5 1.32813,0.5 1.95313,1.26562 0.625,0.75 0.875,1.90625 0.14062,0.71875 0.14062,2.59375 v 3.75 q 0,3.92188 0.17188,4.96875 0.1875,1.03125 0.71875,1.98438 h -2.9375 q -0.4375,-0.875 -0.5625,-2.04688 z m -0.23438,-6.28125 q -1.53125,0.625 -4.59375,1.0625 -1.73437,0.25 -2.45312,0.5625 -0.71875,0.3125 -1.10938,0.92188 -0.39062,0.59375 -0.39062,1.32812 0,1.125 0.84375,1.875 0.85937,0.75 2.5,0.75 1.625,0 2.89062,-0.70312 1.26563,-0.71875 1.85938,-1.95313 0.45312,-0.95312 0.45312,-2.8125 z m 17.96875,8.32813 v -2.09375 q -1.57812,2.46875 -4.64062,2.46875 -1.98438,0 -3.65625,-1.09375 -1.65625,-1.09375 -2.57813,-3.04688 -0.90625,-1.96875 -0.90625,-4.51562 0,-2.48438 0.82813,-4.5 0.82812,-2.03125 2.48437,-3.10938 1.65625,-1.07812 3.70313,-1.07812 1.5,0 2.67187,0.64062 1.17188,0.625 1.90625,1.64063 v -8.21875 h 2.79688 v 22.90625 z m -8.89062,-8.28125 q 0,3.1875 1.34375,4.76562 1.34375,1.57813 3.17187,1.57813 1.84375,0 3.125,-1.5 1.29688,-1.51563 1.29688,-4.60938 0,-3.40625 -1.3125,-5 -1.3125,-1.59375 -3.23438,-1.59375 -1.875,0 -3.14062,1.53125 -1.25,1.53125 -1.25,4.82813 z m 25.17187,8.28125 V 213.8367 h 8.64064 q 2.28125,0 3.48438,0.21875 1.6875,0.28125 2.82812,1.07812 1.14063,0.78125 1.82813,2.20313 0.70312,1.42187 0.70312,3.125 0,2.92187 -1.85937,4.95312 -1.85938,2.01563 -6.71875,2.01563 h -5.87502 v 9.3125 z m 3.03125,-12.01563 h 5.9219 q 2.9375,0 4.17187,-1.09375 1.23438,-1.09375 1.23438,-3.07812 0,-1.4375 -0.73438,-2.45313 -0.71875,-1.03125 -1.90625,-1.35937 -0.76562,-0.20313 -2.82812,-0.20313 h -5.8594 z m 18.18752,12.01563 V 213.8367 h 3.03125 v 20.20312 h 11.28125 v 2.70313 z m 17.98437,0 V 213.8367 h 16.5625 v 2.70312 h -13.53125 v 7.01563 h 12.67188 v 2.6875 h -12.67188 v 7.79687 h 14.0625 v 2.70313 z m 29.82813,0 V 213.8367 h 2.8125 v 13.0625 l 6.65625,-6.75 h 3.64062 l -6.34375,6.15625 6.98438,10.4375 h -3.46875 l -5.48438,-8.48438 -1.98437,1.90625 v 6.57813 z m 27.34375,-5.34375 2.90625,0.35937 q -0.6875,2.54688 -2.54688,3.95313 -1.85937,1.40625 -4.75,1.40625 -3.64062,0 -5.78125,-2.23438 -2.125,-2.25 -2.125,-6.29687 0,-4.1875 2.15625,-6.5 2.15625,-2.3125 5.59375,-2.3125 3.32813,0 5.4375,2.26562 2.10938,2.26563 2.10938,6.375 0,0.25 -0.0156,0.75 h -12.375 q 0.15625,2.73438 1.54688,4.1875 1.39062,1.45313 3.46875,1.45313 1.54687,0 2.64062,-0.8125 1.09375,-0.8125 1.73438,-2.59375 z m -9.23438,-4.54688 h 9.26563 q -0.1875,-2.09375 -1.0625,-3.14062 -1.34375,-1.625 -3.48438,-1.625 -1.9375,0 -3.26562,1.29687 -1.3125,1.29688 -1.45313,3.46875 z m 15.54688,16.28125 -0.3125,-2.64062 q 0.92187,0.25 1.60937,0.25 0.9375,0 1.5,-0.3125 0.5625,-0.3125 0.92188,-0.875 0.26562,-0.42188 0.85937,-2.09375 0.0781,-0.23438 0.25,-0.6875 l -6.29687,-16.625 h 3.03125 l 3.45312,9.60937 q 0.67188,1.82813 1.20313,3.84375 0.48437,-1.9375 1.15625,-3.78125 l 3.54687,-9.67187 h 2.8125 l -6.3125,16.875 q -1.01562,2.73437 -1.57812,3.76562 -0.75,1.39063 -1.71875,2.03125 -0.96875,0.65625 -2.3125,0.65625 -0.8125,0 -1.8125,-0.34375 z"
       fill-rule="nonzero"
       id="path11" />
    <path
       fill="#cfe2f3"
       d="m 400.00946,566.16296 v 0 c 0,-6.27673 5.08832,-11.36505 11.36505,-11.36505 h 208.86047 c 3.01416,0 5.90491,1.19739 8.03626,3.32873 2.1314,2.13135 3.32879,5.0221 3.32879,8.03632 v 45.45886 c 0,6.27674 -5.08832,11.36505 -11.36505,11.36505 H 411.37451 c -6.27673,0 -11.36505,-5.08831 -11.36505,-11.36505 z"
       fill-rule="evenodd"
       id="path13" />
    <path
       stroke="#000000"
       stroke-width="1"
       stroke-linejoin="round"
       stroke-linecap="butt"
       d="m 400.00946,566.16296 v 0 c 0,-6.27673 5.08832,-11.36505 11.36505,-11.36505 h 208.86047 c 3.01416,0 5.90491,1.19739 8.03626,3.32873 2.1314,2.13135 3.32879,5.0221 3.32879,8.03632 v 45.45886 c 0,6.27674 -5.08832,11.36505 -11.36505,11.36505 H 411.37451 c -6.27673,0 -11.36505,-5.08831 -11.36505,-11.36505 z"
       fill-rule="evenodd"
       id="path15" />
    <path
       fill="#000000"
       d="m 421.1242,584.8124 v -13.35937 h 1.76562 v 13.35937 z m 4.68329,0 v -9.67187 h 1.46875 v 1.35937 q 0.45312,-0.71875 1.20312,-1.14062 0.76563,-0.4375 1.71875,-0.4375 1.07813,0 1.76563,0.45312 0.6875,0.4375 0.96875,1.23438 1.15625,-1.6875 2.98437,-1.6875 1.45313,0 2.21875,0.79687 0.78125,0.79688 0.78125,2.45313 v 6.64062 h -1.64062 v -6.09375 q 0,-0.98437 -0.15625,-1.40625 -0.15625,-0.4375 -0.57813,-0.70312 -0.42187,-0.26563 -0.98437,-0.26563 -1.01563,0 -1.6875,0.6875 -0.67188,0.67188 -0.67188,2.15625 v 5.625 h -1.64062 v -6.28125 q 0,-1.09375 -0.40625,-1.64062 -0.40625,-0.54688 -1.3125,-0.54688 -0.6875,0 -1.28125,0.35938 -0.59375,0.35937 -0.85938,1.0625 -0.25,0.70312 -0.25,2.03125 v 5.01562 z m 15.5408,3.70313 v -13.375 h 1.48438 v 1.25 q 0.53125,-0.73438 1.1875,-1.09375 0.67187,-0.375 1.625,-0.375 1.23437,0 2.17187,0.64062 0.95313,0.625 1.4375,1.79688 0.48438,1.15625 0.48438,2.54687 0,1.48438 -0.53125,2.67188 -0.53125,1.1875 -1.54688,1.82812 -1.01562,0.625 -2.14062,0.625 -0.8125,0 -1.46875,-0.34375 -0.65625,-0.34375 -1.0625,-0.875 v 4.70313 z m 1.48438,-8.48438 q 0,1.85938 0.75,2.76563 0.76562,0.89062 1.82812,0.89062 1.09375,0 1.875,-0.92187 0.78125,-0.9375 0.78125,-2.875 0,-1.84375 -0.76562,-2.76563 -0.75,-0.92187 -1.8125,-0.92187 -1.04688,0 -1.85938,0.98437 -0.79687,0.96875 -0.79687,2.84375 z m 8.28198,-0.0625 q 0,-2.6875 1.48437,-3.96875 1.25,-1.07812 3.04688,-1.07812 2,0 3.26562,1.3125 1.26563,1.29687 1.26563,3.60937 0,1.85938 -0.5625,2.9375 -0.5625,1.0625 -1.64063,1.65625 -1.0625,0.59375 -2.32812,0.59375 -2.03125,0 -3.28125,-1.29687 -1.25,-1.3125 -1.25,-3.76563 z m 1.6875,0 q 0,1.85938 0.79687,2.79688 0.8125,0.92187 2.04688,0.92187 1.21875,0 2.03125,-0.92187 0.8125,-0.9375 0.8125,-2.84375 0,-1.79688 -0.8125,-2.71875 -0.8125,-0.92188 -2.03125,-0.92188 -1.23438,0 -2.04688,0.92188 -0.79687,0.90625 -0.79687,2.76562 z m 9.28195,4.84375 v -9.67187 h 1.46875 v 1.46875 q 0.5625,-1.03125 1.03125,-1.35938 0.48437,-0.32812 1.0625,-0.32812 0.82812,0 1.6875,0.53125 l -0.5625,1.51562 q -0.60938,-0.35937 -1.20313,-0.35937 -0.54687,0 -0.96875,0.32812 -0.42187,0.32813 -0.60937,0.89063 -0.28125,0.875 -0.28125,1.92187 v 5.0625 z m 9.80643,-1.46875 0.23437,1.45313 q -0.6875,0.14062 -1.23437,0.14062 -0.89063,0 -1.39063,-0.28125 -0.48437,-0.28125 -0.6875,-0.73437 -0.20312,-0.46875 -0.20312,-1.9375 v -5.57813 h -1.20313 v -1.26562 h 1.20313 v -2.39063 l 1.625,-0.98437 v 3.375 h 1.65625 v 1.26562 h -1.65625 v 5.67188 q 0,0.6875 0.0781,0.89062 0.0937,0.20313 0.28125,0.32813 0.20313,0.10937 0.57813,0.10937 0.26562,0 0.71875,-0.0625 z m 6.78848,1.46875 v -13.35937 h 1.64062 v 7.625 l 3.89063,-3.9375 h 2.10937 l -3.6875,3.59375 4.0625,6.07812 h -2.01562 l -3.20313,-4.95312 -1.15625,1.125 v 3.82812 z m 15.95312,-3.10937 1.6875,0.20312 q -0.40625,1.48438 -1.48437,2.3125 -1.07813,0.8125 -2.76563,0.8125 -2.125,0 -3.375,-1.29687 -1.23437,-1.3125 -1.23437,-3.67188 0,-2.45312 1.25,-3.79687 1.26562,-1.34375 3.26562,-1.34375 1.9375,0 3.15625,1.32812 1.23438,1.3125 1.23438,3.70313 0,0.15625 0,0.4375 h -7.21875 q 0.0937,1.59375 0.90625,2.45312 0.8125,0.84375 2.01562,0.84375 0.90625,0 1.54688,-0.46875 0.64062,-0.48437 1.01562,-1.51562 z m -5.39062,-2.65625 h 5.40625 q -0.10938,-1.21875 -0.625,-1.82813 -0.78125,-0.95312 -2.03125,-0.95312 -1.125,0 -1.90625,0.76562 -0.76563,0.75 -0.84375,2.01563 z m 9.06323,9.48437 -0.1875,-1.53125 q 0.54688,0.14063 0.9375,0.14063 0.54688,0 0.875,-0.1875 0.32813,-0.17188 0.54688,-0.5 0.15625,-0.25 0.5,-1.21875 0.0469,-0.14063 0.14062,-0.40625 l -3.67187,-9.6875 h 1.76562 l 2.01563,5.59375 q 0.39062,1.07812 0.70312,2.25 0.28125,-1.125 0.67188,-2.20313 l 2.07812,-5.64062 h 1.64063 l -3.6875,9.82812 q -0.59375,1.60938 -0.92188,2.20313 -0.4375,0.8125 -1,1.1875 -0.5625,0.375 -1.34375,0.375 -0.48437,0 -1.0625,-0.20313 z m 14.98017,-3.71875 v -8.40625 h -1.45313 v -1.26562 h 1.45313 v -1.03125 q 0,-0.96875 0.17187,-1.45313 0.23438,-0.64062 0.82813,-1.03125 0.59375,-0.39062 1.67187,-0.39062 0.6875,0 1.53125,0.15625 l -0.25,1.4375 q -0.5,-0.0937 -0.95312,-0.0937 -0.75,0 -1.0625,0.32812 -0.3125,0.3125 -0.3125,1.1875 v 0.89063 h 1.89062 v 1.26562 h -1.89062 v 8.40625 z m 4.77703,0 v -9.67187 h 1.46875 v 1.46875 q 0.5625,-1.03125 1.03125,-1.35938 0.48438,-0.32812 1.0625,-0.32812 0.82813,0 1.6875,0.53125 l -0.5625,1.51562 q -0.60937,-0.35937 -1.20312,-0.35937 -0.54688,0 -0.96875,0.32812 -0.42188,0.32813 -0.60938,0.89063 -0.28125,0.875 -0.28125,1.92187 v 5.0625 z m 5.61896,-4.84375 q 0,-2.6875 1.48438,-3.96875 1.25,-1.07812 3.04687,-1.07812 2,0 3.26563,1.3125 1.26562,1.29687 1.26562,3.60937 0,1.85938 -0.5625,2.9375 -0.5625,1.0625 -1.64062,1.65625 -1.0625,0.59375 -2.32813,0.59375 -2.03125,0 -3.28125,-1.29687 -1.25,-1.3125 -1.25,-3.76563 z m 1.6875,0 q 0,1.85938 0.79688,2.79688 0.8125,0.92187 2.04687,0.92187 1.21875,0 2.03125,-0.92187 0.8125,-0.9375 0.8125,-2.84375 0,-1.79688 -0.8125,-2.71875 -0.8125,-0.92188 -2.03125,-0.92188 -1.23437,0 -2.04687,0.92188 -0.79688,0.90625 -0.79688,2.76562 z m 9.29761,4.84375 v -9.67187 h 1.46875 v 1.35937 q 0.45312,-0.71875 1.20312,-1.14062 0.76563,-0.4375 1.71875,-0.4375 1.07813,0 1.76563,0.45312 0.6875,0.4375 0.96875,1.23438 1.15625,-1.6875 2.98437,-1.6875 1.45313,0 2.21875,0.79687 0.78125,0.79688 0.78125,2.45313 v 6.64062 h -1.64062 v -6.09375 q 0,-0.98437 -0.15625,-1.40625 -0.15625,-0.4375 -0.57813,-0.70312 -0.42187,-0.26563 -0.98437,-0.26563 -1.01563,0 -1.6875,0.6875 -0.67188,0.67188 -0.67188,2.15625 v 5.625 h -1.64062 v -6.28125 q 0,-1.09375 -0.40625,-1.64062 -0.40625,-0.54688 -1.3125,-0.54688 -0.6875,0 -1.28125,0.35938 -0.59375,0.35937 -0.85938,1.0625 -0.25,0.70312 -0.25,2.03125 v 5.01562 z m 20.70843,0 v -9.67187 h 1.46875 v 1.46875 q 0.5625,-1.03125 1.03125,-1.35938 0.48438,-0.32812 1.0625,-0.32812 0.82813,0 1.6875,0.53125 l -0.5625,1.51562 q -0.60937,-0.35937 -1.20312,-0.35937 -0.54688,0 -0.96875,0.32812 -0.42188,0.32813 -0.60938,0.89063 -0.28125,0.875 -0.28125,1.92187 v 5.0625 z m 12.85334,-3.10937 1.6875,0.20312 q -0.40625,1.48438 -1.48438,2.3125 -1.07812,0.8125 -2.76562,0.8125 -2.125,0 -3.375,-1.29687 -1.23438,-1.3125 -1.23438,-3.67188 0,-2.45312 1.25,-3.79687 1.26563,-1.34375 3.26563,-1.34375 1.9375,0 3.15625,1.32812 1.23437,1.3125 1.23437,3.70313 0,0.15625 0,0.4375 h -7.21875 q 0.0937,1.59375 0.90625,2.45312 0.8125,0.84375 2.01563,0.84375 0.90625,0 1.54687,-0.46875 0.64063,-0.48437 1.01563,-1.51562 z m -5.39063,-2.65625 h 5.40625 q -0.10937,-1.21875 -0.625,-1.82813 -0.78125,-0.95312 -2.03125,-0.95312 -1.125,0 -1.90625,0.76562 -0.76562,0.75 -0.84375,2.01563 z m 9.14136,5.76562 v -9.67187 h 1.46875 v 1.35937 q 0.45312,-0.71875 1.20312,-1.14062 0.76563,-0.4375 1.71875,-0.4375 1.07813,0 1.76563,0.45312 0.6875,0.4375 0.96875,1.23438 1.15625,-1.6875 2.98437,-1.6875 1.45313,0 2.21875,0.79687 0.78125,0.79688 0.78125,2.45313 v 6.64062 h -1.64062 v -6.09375 q 0,-0.98437 -0.15625,-1.40625 -0.15625,-0.4375 -0.57813,-0.70312 -0.42187,-0.26563 -0.98437,-0.26563 -1.01563,0 -1.6875,0.6875 -0.67188,0.67188 -0.67188,2.15625 v 5.625 h -1.64062 v -6.28125 q 0,-1.09375 -0.40625,-1.64062 -0.40625,-0.54688 -1.3125,-0.54688 -0.6875,0 -1.28125,0.35938 -0.59375,0.35937 -0.85938,1.0625 -0.25,0.70312 -0.25,2.03125 v 5.01562 z m 14.93139,-4.84375 q 0,-2.6875 1.48438,-3.96875 1.25,-1.07812 3.04687,-1.07812 2,0 3.26563,1.3125 1.26562,1.29687 1.26562,3.60937 0,1.85938 -0.5625,2.9375 -0.5625,1.0625 -1.64062,1.65625 -1.0625,0.59375 -2.32813,0.59375 -2.03125,0 -3.28125,-1.29687 -1.25,-1.3125 -1.25,-3.76563 z m 1.6875,0 q 0,1.85938 0.79688,2.79688 0.8125,0.92187 2.04687,0.92187 1.21875,0 2.03125,-0.92187 0.8125,-0.9375 0.8125,-2.84375 0,-1.79688 -0.8125,-2.71875 -0.8125,-0.92188 -2.03125,-0.92188 -1.23437,0 -2.04687,0.92188 -0.79688,0.90625 -0.79688,2.76562 z m 12.87574,3.375 0.23437,1.45313 q -0.6875,0.14062 -1.23437,0.14062 -0.89063,0 -1.39063,-0.28125 -0.48437,-0.28125 -0.6875,-0.73437 -0.20312,-0.46875 -0.20312,-1.9375 v -5.57813 h -1.20313 v -1.26562 h 1.20313 v -2.39063 l 1.625,-0.98437 v 3.375 h 1.65625 v 1.26562 h -1.65625 v 5.67188 q 0,0.6875 0.0781,0.89062 0.0937,0.20313 0.28125,0.32813 0.20313,0.10937 0.57813,0.10937 0.26562,0 0.71875,-0.0625 z m 8.23016,-1.64062 1.6875,0.20312 q -0.40625,1.48438 -1.48437,2.3125 -1.07813,0.8125 -2.76563,0.8125 -2.125,0 -3.375,-1.29687 -1.23437,-1.3125 -1.23437,-3.67188 0,-2.45312 1.25,-3.79687 1.26562,-1.34375 3.26562,-1.34375 1.9375,0 3.15625,1.32812 1.23438,1.3125 1.23438,3.70313 0,0.15625 0,0.4375 h -7.21875 q 0.0937,1.59375 0.90625,2.45312 0.8125,0.84375 2.01562,0.84375 0.90625,0 1.54688,-0.46875 0.64062,-0.48437 1.01562,-1.51562 z m -5.39062,-2.65625 h 5.40625 q -0.10938,-1.21875 -0.625,-1.82813 -0.78125,-0.95312 -2.03125,-0.95312 -1.125,0 -1.90625,0.76562 -0.76563,0.75 -0.84375,2.01563 z"
       fill-rule="nonzero"
       id="path17" />
    <path
       fill="#000000"
       d="m 453.21606,605.3436 0.23438,1.45313 q -0.6875,0.14062 -1.23438,0.14062 -0.89062,0 -1.39062,-0.28125 -0.48438,-0.28125 -0.6875,-0.73437 -0.20313,-0.46875 -0.20313,-1.9375 v -5.57813 h -1.20312 v -1.26562 h 1.20312 v -2.39063 l 1.625,-0.98437 v 3.375 h 1.65625 v 1.26562 h -1.65625 v 5.67188 q 0,0.6875 0.0781,0.89062 0.0937,0.20313 0.28125,0.32813 0.20312,0.10937 0.57812,0.10937 0.26563,0 0.71875,-0.0625 z m 0.99582,-3.375 q 0,-2.6875 1.48437,-3.96875 1.25,-1.07812 3.04688,-1.07812 2,0 3.26562,1.3125 1.26563,1.29687 1.26563,3.60937 0,1.85938 -0.5625,2.9375 -0.5625,1.0625 -1.64063,1.65625 -1.0625,0.59375 -2.32812,0.59375 -2.03125,0 -3.28125,-1.29687 -1.25,-1.3125 -1.25,-3.76563 z m 1.6875,0 q 0,1.85938 0.79687,2.79688 0.8125,0.92187 2.04688,0.92187 1.21875,0 2.03125,-0.92187 0.8125,-0.9375 0.8125,-2.84375 0,-1.79688 -0.8125,-2.71875 -0.8125,-0.92188 -2.03125,-0.92188 -1.23438,0 -2.04688,0.92188 -0.79687,0.90625 -0.79687,2.76562 z m 14.43402,4.84375 v -13.35937 h 1.64063 v 13.35937 z m 3.58231,-4.84375 q 0,-2.6875 1.48437,-3.96875 1.25,-1.07812 3.04688,-1.07812 2,0 3.26562,1.3125 1.26563,1.29687 1.26563,3.60937 0,1.85938 -0.5625,2.9375 -0.5625,1.0625 -1.64063,1.65625 -1.0625,0.59375 -2.32812,0.59375 -2.03125,0 -3.28125,-1.29687 -1.25,-1.3125 -1.25,-3.76563 z m 1.6875,0 q 0,1.85938 0.79687,2.79688 0.8125,0.92187 2.04688,0.92187 1.21875,0 2.03125,-0.92187 0.8125,-0.9375 0.8125,-2.84375 0,-1.79688 -0.8125,-2.71875 -0.8125,-0.92188 -2.03125,-0.92188 -1.23438,0 -2.04688,0.92188 -0.79687,0.90625 -0.79687,2.76562 z m 15.6101,1.29688 1.60938,0.21875 q -0.26563,1.65625 -1.35938,2.60937 -1.07812,0.9375 -2.67187,0.9375 -1.98438,0 -3.1875,-1.29687 -1.20313,-1.29688 -1.20313,-3.71875 0,-1.57813 0.51563,-2.75 0.51562,-1.17188 1.57812,-1.75 1.0625,-0.59375 2.3125,-0.59375 1.57813,0 2.57813,0.79687 1,0.79688 1.28125,2.26563 l -1.59375,0.23437 q -0.23438,-0.96875 -0.8125,-1.45312 -0.57813,-0.5 -1.39063,-0.5 -1.23437,0 -2.01562,0.89062 -0.78125,0.89063 -0.78125,2.8125 0,1.95313 0.75,2.84375 0.75,0.875 1.95312,0.875 0.96875,0 1.60938,-0.59375 0.65625,-0.59375 0.82812,-1.82812 z m 9.32813,2.35937 q -0.92188,0.76563 -1.76563,1.09375 -0.82812,0.3125 -1.79687,0.3125 -1.59375,0 -2.45313,-0.78125 -0.85937,-0.78125 -0.85937,-1.98437 0,-0.71875 0.32812,-1.29688 0.32813,-0.59375 0.84375,-0.9375 0.53125,-0.35937 1.1875,-0.54687 0.46875,-0.125 1.45313,-0.25 1.98437,-0.23438 2.92187,-0.5625 0.0156,-0.34375 0.0156,-0.42188 0,-1 -0.46875,-1.42187 -0.625,-0.54688 -1.875,-0.54688 -1.15625,0 -1.70313,0.40625 -0.54687,0.40625 -0.8125,1.42188 l -1.60937,-0.21875 q 0.21875,-1.01563 0.71875,-1.64063 0.5,-0.64062 1.45312,-0.98437 0.95313,-0.34375 2.1875,-0.34375 1.25,0 2.01563,0.29687 0.78125,0.28125 1.14062,0.73438 0.375,0.4375 0.51563,1.10937 0.0781,0.42188 0.0781,1.51563 v 2.1875 q 0,2.28125 0.10938,2.89062 0.10937,0.59375 0.40625,1.15625 h -1.70313 q -0.26562,-0.51562 -0.32812,-1.1875 z m -0.14063,-3.67187 q -0.89062,0.375 -2.67187,0.625 -1.01563,0.14062 -1.4375,0.32812 -0.42188,0.1875 -0.65625,0.53125 -0.21875,0.34375 -0.21875,0.78125 0,0.65625 0.5,1.09375 0.5,0.4375 1.45312,0.4375 0.9375,0 1.67188,-0.40625 0.75,-0.42187 1.09375,-1.14062 0.26562,-0.5625 0.26562,-1.64063 z m 4.15696,4.85937 v -13.35937 h 1.64062 v 13.35937 z m 9.37503,0 v -13.35937 h 1.64062 v 7.625 l 3.89063,-3.9375 h 2.10937 l -3.6875,3.59375 4.0625,6.07812 h -2.01562 l -3.20313,-4.95312 -1.15625,1.125 v 3.82812 z m 15.95312,-3.10937 1.6875,0.20312 q -0.40625,1.48438 -1.48437,2.3125 -1.07813,0.8125 -2.76563,0.8125 -2.125,0 -3.375,-1.29687 -1.23437,-1.3125 -1.23437,-3.67188 0,-2.45312 1.25,-3.79687 1.26562,-1.34375 3.26562,-1.34375 1.9375,0 3.15625,1.32812 1.23438,1.3125 1.23438,3.70313 0,0.15625 0,0.4375 h -7.21875 q 0.0937,1.59375 0.90625,2.45312 0.8125,0.84375 2.01562,0.84375 0.90625,0 1.54688,-0.46875 0.64062,-0.48437 1.01562,-1.51562 z m -5.39062,-2.65625 h 5.40625 q -0.10938,-1.21875 -0.625,-1.82813 -0.78125,-0.95312 -2.03125,-0.95312 -1.125,0 -1.90625,0.76562 -0.76563,0.75 -0.84375,2.01563 z m 9.06317,9.48437 -0.1875,-1.53125 q 0.54687,0.14063 0.9375,0.14063 0.54687,0 0.875,-0.1875 0.32812,-0.17188 0.54687,-0.5 0.15625,-0.25 0.5,-1.21875 0.0469,-0.14063 0.14063,-0.40625 l -3.67188,-9.6875 h 1.76563 l 2.01562,5.59375 q 0.39063,1.07812 0.70313,2.25 0.28125,-1.125 0.67187,-2.20313 l 2.07813,-5.64062 h 1.64062 l -3.6875,9.82812 q -0.59375,1.60938 -0.92187,2.20313 -0.4375,0.8125 -1,1.1875 -0.5625,0.375 -1.34375,0.375 -0.48438,0 -1.0625,-0.20313 z m 8.75,-6.60937 1.625,-0.25 q 0.125,0.96875 0.75,1.5 0.625,0.51562 1.75,0.51562 1.125,0 1.67187,-0.45312 0.54688,-0.46875 0.54688,-1.09375 0,-0.54688 -0.48438,-0.875 -0.32812,-0.21875 -1.67187,-0.54688 -1.8125,-0.46875 -2.51563,-0.79687 -0.6875,-0.32813 -1.04687,-0.90625 -0.35938,-0.59375 -0.35938,-1.3125 0,-0.64063 0.29688,-1.1875 0.29687,-0.5625 0.8125,-0.92188 0.375,-0.28125 1.03125,-0.46875 0.67187,-0.20312 1.42187,-0.20312 1.14063,0 2,0.32812 0.85938,0.32813 1.26563,0.89063 0.42187,0.5625 0.57812,1.5 l -1.60937,0.21875 q -0.10938,-0.75 -0.64063,-1.17188 -0.51562,-0.42187 -1.46875,-0.42187 -1.14062,0 -1.625,0.375 -0.46875,0.375 -0.46875,0.875 0,0.3125 0.1875,0.57812 0.20313,0.26563 0.64063,0.4375 0.23437,0.0937 1.4375,0.42188 1.75,0.45312 2.4375,0.75 0.6875,0.29687 1.07812,0.85937 0.39063,0.5625 0.39063,1.40625 0,0.82813 -0.48438,1.54688 -0.46875,0.71875 -1.375,1.125 -0.90625,0.39062 -2.04687,0.39062 -1.875,0 -2.875,-0.78125 -0.98438,-0.78125 -1.25,-2.32812 z m 13.5625,1.42187 0.23437,1.45313 q -0.6875,0.14062 -1.23437,0.14062 -0.89063,0 -1.39063,-0.28125 -0.48437,-0.28125 -0.6875,-0.73437 -0.20312,-0.46875 -0.20312,-1.9375 v -5.57813 h -1.20313 v -1.26562 h 1.20313 v -2.39063 l 1.625,-0.98437 v 3.375 h 1.65625 v 1.26562 h -1.65625 v 5.67188 q 0,0.6875 0.0781,0.89062 0.0937,0.20313 0.28125,0.32813 0.20313,0.10937 0.57813,0.10937 0.26562,0 0.71875,-0.0625 z m 0.99585,-3.375 q 0,-2.6875 1.48437,-3.96875 1.25,-1.07812 3.04688,-1.07812 2,0 3.26562,1.3125 1.26563,1.29687 1.26563,3.60937 0,1.85938 -0.5625,2.9375 -0.5625,1.0625 -1.64063,1.65625 -1.0625,0.59375 -2.32812,0.59375 -2.03125,0 -3.28125,-1.29687 -1.25,-1.3125 -1.25,-3.76563 z m 1.6875,0 q 0,1.85938 0.79687,2.79688 0.8125,0.92187 2.04688,0.92187 1.21875,0 2.03125,-0.92187 0.8125,-0.9375 0.8125,-2.84375 0,-1.79688 -0.8125,-2.71875 -0.8125,-0.92188 -2.03125,-0.92188 -1.23438,0 -2.04688,0.92188 -0.79687,0.90625 -0.79687,2.76562 z m 9.28192,4.84375 v -9.67187 h 1.46875 v 1.46875 q 0.5625,-1.03125 1.03125,-1.35938 0.48437,-0.32812 1.0625,-0.32812 0.82812,0 1.6875,0.53125 l -0.5625,1.51562 q -0.60938,-0.35937 -1.20313,-0.35937 -0.54687,0 -0.96875,0.32812 -0.42187,0.32813 -0.60937,0.89063 -0.28125,0.875 -0.28125,1.92187 v 5.0625 z m 12.85333,-3.10937 1.6875,0.20312 q -0.40625,1.48438 -1.48438,2.3125 -1.07812,0.8125 -2.76562,0.8125 -2.125,0 -3.375,-1.29687 -1.23438,-1.3125 -1.23438,-3.67188 0,-2.45312 1.25,-3.79687 1.26563,-1.34375 3.26563,-1.34375 1.9375,0 3.15625,1.32812 1.23437,1.3125 1.23437,3.70313 0,0.15625 0,0.4375 h -7.21875 q 0.0937,1.59375 0.90625,2.45312 0.8125,0.84375 2.01563,0.84375 0.90625,0 1.54687,-0.46875 0.64063,-0.48437 1.01563,-1.51562 z m -5.39063,-2.65625 h 5.40625 q -0.10937,-1.21875 -0.625,-1.82813 -0.78125,-0.95312 -2.03125,-0.95312 -1.125,0 -1.90625,0.76562 -0.76562,0.75 -0.84375,2.01563 z"
       fill-rule="nonzero"
       id="path19" />
    <path
       fill="#cfe2f3"
       d="m 488.82837,235.66142 26.97638,-26.97638 26.97638,26.97638 -26.97638,26.97636 z"
       fill-rule="evenodd"
       id="path21" />
    <path
       stroke="#000000"
       stroke-width="1"
       stroke-linejoin="round"
       stroke-linecap="butt"
       d="m 488.82837,235.66142 26.97638,-26.97638 26.97638,26.97638 -26.97638,26.97636 z"
       fill-rule="evenodd"
       id="path23" />
    <path
       fill="#000000"
       d="m 501.88452,131.25197 v 0 c 0,-7.59283 6.15518,-13.74803 13.74805,-13.74803 v 0 c 3.64618,0 7.14306,1.44845 9.72131,4.0267 2.57825,2.57826 4.02667,6.07513 4.02667,9.72133 v 0 C 529.38055,138.8448 523.2254,145 515.63257,145 v 0 c -7.59287,0 -13.74805,-6.1552 -13.74805,-13.74803 z"
       fill-rule="evenodd"
       id="path25" />
    <path
       stroke="#000000"
       stroke-width="1"
       stroke-linejoin="round"
       stroke-linecap="butt"
       d="m 501.88452,131.25197 v 0 c 0,-7.59283 6.15518,-13.74803 13.74805,-13.74803 v 0 c 3.64618,0 7.14306,1.44845 9.72131,4.0267 2.57825,2.57826 4.02667,6.07513 4.02667,9.72133 v 0 C 529.38055,138.8448 523.2254,145 515.63257,145 v 0 c -7.59287,0 -13.74805,-6.1552 -13.74805,-13.74803 z"
       fill-rule="evenodd"
       id="path27" />
    <path
       fill="#000000"
       fill-opacity="0"
       d="m 523.7769,239.36745 h 586.3937 v 37.16536 H 523.7769 Z"
       fill-rule="evenodd"
       id="path29" />
    <path
       fill="#000000"
       d="m 533.9019,262.44745 v -10.48438 h 3.96875 q 1.04687,0 1.59375,0.0937 0.76562,0.125 1.28125,0.48438 0.53125,0.35937 0.84375,1.01562 0.32812,0.65625 0.32812,1.4375 0,1.32813 -0.85937,2.26563 -0.84375,0.92187 -3.07813,0.92187 h -2.6875 v 4.26563 z m 1.39062,-5.5 h 2.71875 q 1.34375,0 1.90625,-0.5 0.5625,-0.5 0.5625,-1.40625 0,-0.67188 -0.32812,-1.14063 -0.32813,-0.46875 -0.875,-0.60937 -0.35938,-0.0937 -1.29688,-0.0937 h -2.6875 z m 8.33808,5.5 v -10.48438 h 1.39062 v 9.25 h 5.15625 v 1.23438 z m 8.15112,0 v -10.48438 h 1.39063 v 5.20313 l 5.20312,-5.20313 h 1.875 l -4.39062,4.25 4.59375,6.23438 h -1.82813 l -3.75,-5.3125 -1.70312,1.67187 v 3.64063 z m 18.69135,-0.9375 q -0.71875,0.60937 -1.375,0.85937 -0.65625,0.25 -1.42188,0.25 -1.25,0 -1.92187,-0.60937 -0.67188,-0.60938 -0.67188,-1.5625 0,-0.5625 0.25,-1.01563 0.25,-0.46875 0.65625,-0.75 0.42188,-0.28125 0.9375,-0.42187 0.375,-0.0937 1.14063,-0.1875 1.5625,-0.1875 2.29687,-0.45313 0.0156,-0.26562 0.0156,-0.32812 0,-0.79688 -0.375,-1.10938 -0.48438,-0.4375 -1.45313,-0.4375 -0.92187,0 -1.35937,0.32813 -0.42188,0.3125 -0.625,1.10937 l -1.26563,-0.17187 q 0.17188,-0.79688 0.5625,-1.29688 0.39063,-0.5 1.14063,-0.76562 0.75,-0.26563 1.71875,-0.26563 0.98437,0 1.59375,0.23438 0.60937,0.21875 0.89062,0.5625 0.28125,0.34375 0.40625,0.875 0.0625,0.32812 0.0625,1.1875 v 1.71875 q 0,1.79687 0.0781,2.28125 0.0781,0.46875 0.32812,0.90625 h -1.34375 q -0.20312,-0.40625 -0.26562,-0.9375 z m -0.10938,-2.875 q -0.70312,0.28125 -2.09375,0.48437 -0.79687,0.10938 -1.125,0.26563 -0.32812,0.14062 -0.51562,0.42187 -0.17188,0.26563 -0.17188,0.59375 0,0.51563 0.39063,0.85938 0.39062,0.34375 1.14062,0.34375 0.73438,0 1.3125,-0.3125 0.59375,-0.32813 0.85938,-0.89063 0.20312,-0.4375 0.20312,-1.29687 z m 5.41675,3.8125 -2.89063,-7.59375 h 1.35938 l 1.625,4.54687 q 0.26562,0.73438 0.5,1.53125 0.15625,-0.60937 0.46875,-1.45312 l 1.6875,-4.625 h 1.32812 l -2.875,7.59375 z m 10.17187,-0.9375 q -0.71875,0.60937 -1.375,0.85937 -0.65625,0.25 -1.42187,0.25 -1.25,0 -1.92188,-0.60937 -0.67187,-0.60938 -0.67187,-1.5625 0,-0.5625 0.25,-1.01563 0.25,-0.46875 0.65625,-0.75 0.42187,-0.28125 0.9375,-0.42187 0.375,-0.0937 1.14062,-0.1875 1.5625,-0.1875 2.29688,-0.45313 0.0156,-0.26562 0.0156,-0.32812 0,-0.79688 -0.375,-1.10938 -0.48437,-0.4375 -1.45312,-0.4375 -0.92188,0 -1.35938,0.32813 -0.42187,0.3125 -0.625,1.10937 l -1.26562,-0.17187 q 0.17187,-0.79688 0.5625,-1.29688 0.39062,-0.5 1.14062,-0.76562 0.75,-0.26563 1.71875,-0.26563 0.98438,0 1.59375,0.23438 0.60938,0.21875 0.89063,0.5625 0.28125,0.34375 0.40625,0.875 0.0625,0.32812 0.0625,1.1875 v 1.71875 q 0,1.79687 0.0781,2.28125 0.0781,0.46875 0.32813,0.90625 h -1.34375 q -0.20313,-0.40625 -0.26563,-0.9375 z m -0.10937,-2.875 q -0.70313,0.28125 -2.09375,0.48437 -0.79688,0.10938 -1.125,0.26563 -0.32813,0.14062 -0.51563,0.42187 -0.17187,0.26563 -0.17187,0.59375 0,0.51563 0.39062,0.85938 0.39063,0.34375 1.14063,0.34375 0.73437,0 1.3125,-0.3125 0.59375,-0.32813 0.85937,-0.89063 0.20313,-0.4375 0.20313,-1.29687 z m 3.30731,-5.20313 v -1.46875 h 1.29688 v 1.46875 z m 0,9.01563 v -7.59375 h 1.29688 v 7.59375 z m 3.22492,0 v -10.48438 h 1.28125 v 10.48438 z m 8.24054,-0.9375 q -0.71875,0.60937 -1.375,0.85937 -0.65625,0.25 -1.42188,0.25 -1.25,0 -1.92187,-0.60937 -0.67188,-0.60938 -0.67188,-1.5625 0,-0.5625 0.25,-1.01563 0.25,-0.46875 0.65625,-0.75 0.42188,-0.28125 0.9375,-0.42187 0.375,-0.0937 1.14063,-0.1875 1.5625,-0.1875 2.29687,-0.45313 0.0156,-0.26562 0.0156,-0.32812 0,-0.79688 -0.375,-1.10938 -0.48438,-0.4375 -1.45313,-0.4375 -0.92187,0 -1.35937,0.32813 -0.42188,0.3125 -0.625,1.10937 l -1.26563,-0.17187 q 0.17188,-0.79688 0.5625,-1.29688 0.39063,-0.5 1.14063,-0.76562 0.75,-0.26563 1.71875,-0.26563 0.98437,0 1.59375,0.23438 0.60937,0.21875 0.89062,0.5625 0.28125,0.34375 0.40625,0.875 0.0625,0.32812 0.0625,1.1875 v 1.71875 q 0,1.79687 0.0781,2.28125 0.0781,0.46875 0.32812,0.90625 h -1.34375 q -0.20312,-0.40625 -0.26562,-0.9375 z m -0.10938,-2.875 q -0.70312,0.28125 -2.09375,0.48437 -0.79687,0.10938 -1.125,0.26563 -0.32812,0.14062 -0.51562,0.42187 -0.17188,0.26563 -0.17188,0.59375 0,0.51563 0.39063,0.85938 0.39062,0.34375 1.14062,0.34375 0.73438,0 1.3125,-0.3125 0.59375,-0.32813 0.85938,-0.89063 0.20312,-0.4375 0.20312,-1.29687 z m 4.49487,3.8125 h -1.20312 v -10.48438 h 1.29687 v 3.73438 q 0.8125,-1.01563 2.07813,-1.01563 0.70312,0 1.32812,0.28125 0.625,0.28125 1.03125,0.79688 0.40625,0.5 0.625,1.23437 0.23438,0.71875 0.23438,1.53125 0,1.96875 -0.96875,3.03125 -0.95313,1.0625 -2.3125,1.0625 -1.34375,0 -2.10938,-1.125 z m -0.0156,-3.85938 q 0,1.375 0.375,1.98438 0.60937,0.98437 1.64062,0.98437 0.84375,0 1.45313,-0.73437 0.625,-0.73438 0.625,-2.1875 0,-1.48438 -0.59375,-2.1875 -0.59375,-0.71875 -1.42188,-0.71875 -0.84375,0 -1.46875,0.73437 -0.60937,0.73438 -0.60937,2.125 z m 6.94794,3.85938 v -10.48438 h 1.28125 v 10.48438 z m 8.49054,-2.45313 1.32812,0.17188 q -0.3125,1.17187 -1.17187,1.8125 -0.84375,0.64062 -2.17188,0.64062 -1.67187,0 -2.65625,-1.01562 -0.96875,-1.03125 -0.96875,-2.89063 0,-1.92187 0.98438,-2.96875 1,-1.0625 2.57812,-1.0625 1.51563,0 2.48438,1.03125 0.96875,1.03125 0.96875,2.92188 0,0.10937 -0.0156,0.34375 h -5.65625 q 0.0625,1.25 0.70313,1.92187 0.64062,0.65625 1.59375,0.65625 0.70312,0 1.20312,-0.35937 0.5,-0.375 0.79688,-1.20313 z m -4.23438,-2.07812 h 4.25 q -0.0937,-0.95313 -0.48437,-1.4375 -0.625,-0.75 -1.60938,-0.75 -0.875,0 -1.48437,0.59375 -0.60938,0.59375 -0.67188,1.59375 z m 11.22309,4.53125 v -10.48438 h 1.28125 v 10.48438 z m 2.80303,-3.79688 q 0,-2.10937 1.17188,-3.125 0.98437,-0.84375 2.39062,-0.84375 1.57813,0 2.5625,1.03125 1,1.01563 1,2.82813 0,1.46875 -0.4375,2.3125 -0.4375,0.82812 -1.28125,1.29687 -0.84375,0.46875 -1.84375,0.46875 -1.59375,0 -2.57812,-1.01562 -0.98438,-1.03125 -0.98438,-2.95313 z m 1.32813,0 q 0,1.45313 0.625,2.1875 0.64062,0.71875 1.60937,0.71875 0.96875,0 1.59375,-0.71875 0.64063,-0.73437 0.64063,-2.23437 0,-1.40625 -0.64063,-2.125 -0.64062,-0.73438 -1.59375,-0.73438 -0.96875,0 -1.60937,0.71875 -0.625,0.71875 -0.625,2.1875 z m 12.2605,1.01563 1.26562,0.15625 q -0.20312,1.3125 -1.0625,2.0625 -0.84375,0.73437 -2.09375,0.73437 -1.5625,0 -2.51562,-1.01562 -0.9375,-1.03125 -0.9375,-2.92188 0,-1.23437 0.40625,-2.15625 0.40625,-0.92187 1.23437,-1.375 0.84375,-0.46875 1.8125,-0.46875 1.25,0 2.03125,0.625 0.78125,0.625 1.01563,1.76563 l -1.26563,0.20312 q -0.17187,-0.76562 -0.625,-1.15625 -0.45312,-0.39062 -1.09375,-0.39062 -0.98437,0 -1.59375,0.70312 -0.60937,0.70313 -0.60937,2.20313 0,1.53125 0.57812,2.23437 0.59375,0.6875 1.54688,0.6875 0.75,0 1.26562,-0.45312 0.51563,-0.46875 0.64063,-1.4375 z m 7.32812,1.84375 q -0.71875,0.60937 -1.375,0.85937 -0.65625,0.25 -1.42187,0.25 -1.25,0 -1.92188,-0.60937 -0.67187,-0.60938 -0.67187,-1.5625 0,-0.5625 0.25,-1.01563 0.25,-0.46875 0.65625,-0.75 0.42187,-0.28125 0.9375,-0.42187 0.375,-0.0937 1.14062,-0.1875 1.5625,-0.1875 2.29688,-0.45313 0.0156,-0.26562 0.0156,-0.32812 0,-0.79688 -0.375,-1.10938 -0.48437,-0.4375 -1.45312,-0.4375 -0.92188,0 -1.35938,0.32813 -0.42187,0.3125 -0.625,1.10937 l -1.26562,-0.17187 q 0.17187,-0.79688 0.5625,-1.29688 0.39062,-0.5 1.14062,-0.76562 0.75,-0.26563 1.71875,-0.26563 0.98438,0 1.59375,0.23438 0.60938,0.21875 0.89063,0.5625 0.28125,0.34375 0.40625,0.875 0.0625,0.32812 0.0625,1.1875 v 1.71875 q 0,1.79687 0.0781,2.28125 0.0781,0.46875 0.32813,0.90625 h -1.34375 q -0.20313,-0.40625 -0.26563,-0.9375 z m -0.10937,-2.875 q -0.70313,0.28125 -2.09375,0.48437 -0.79688,0.10938 -1.125,0.26563 -0.32813,0.14062 -0.51563,0.42187 -0.17187,0.26563 -0.17187,0.59375 0,0.51563 0.39062,0.85938 0.39063,0.34375 1.14063,0.34375 0.73437,0 1.3125,-0.3125 0.59375,-0.32813 0.85937,-0.89063 0.20313,-0.4375 0.20313,-1.29687 z m 3.27606,3.8125 v -10.48438 h 1.28125 v 10.48438 z m 3.25616,0 v -10.48438 h 1.28125 v 10.48438 z m 3.22492,2.92187 -0.14063,-1.20312 q 0.42188,0.10937 0.73438,0.10937 0.4375,0 0.6875,-0.14062 0.26562,-0.14063 0.42187,-0.40625 0.125,-0.1875 0.39063,-0.95313 0.0469,-0.10937 0.125,-0.3125 l -2.89063,-7.60937 h 1.39063 l 1.57812,4.39062 q 0.3125,0.84375 0.54688,1.76563 0.23437,-0.89063 0.53125,-1.73438 l 1.625,-4.42187 h 1.29687 l -2.89062,7.71875 q -0.46875,1.25 -0.73438,1.73437 -0.34375,0.625 -0.78125,0.92188 -0.4375,0.29687 -1.0625,0.29687 -0.375,0 -0.82812,-0.15625 z m 9.79687,-5.5 q 0,-0.26562 0,-0.39062 0,-0.76563 0.20313,-1.3125 0.17187,-0.40625 0.51562,-0.82813 0.25,-0.3125 0.92188,-0.90625 0.67187,-0.59375 0.875,-0.9375 0.20312,-0.35937 0.20312,-0.76562 0,-0.75 -0.59375,-1.3125 -0.57812,-0.57813 -1.4375,-0.57813 -0.82812,0 -1.375,0.51563 -0.54687,0.51562 -0.71875,1.60937 l -1.32812,-0.15625 q 0.1875,-1.46875 1.0625,-2.25 0.89062,-0.78125 2.34375,-0.78125 1.53125,0 2.4375,0.84375 0.92187,0.82813 0.92187,2.01563 0,0.6875 -0.32812,1.26562 -0.3125,0.57813 -1.25,1.42188 -0.625,0.54687 -0.82813,0.8125 -0.1875,0.26562 -0.28125,0.60937 -0.0937,0.34375 -0.10937,1.125 z m -0.0781,2.57813 v -1.46875 h 1.46875 v 1.46875 z"
       fill-rule="nonzero"
       id="path31" />
    <path
       fill="#cfe2f3"
       d="m 190.48294,449.72504 v 0 c 0,-6.27673 5.0883,-11.36505 11.36505,-11.36505 h 166.6242 c 3.01422,0 5.90497,1.19739 8.03632,3.32876 2.13138,2.13135 3.32876,5.0221 3.32876,8.03629 v 45.45886 c 0,6.27677 -5.08832,11.36508 -11.36508,11.36508 h -166.6242 c -6.27675,0 -11.36505,-5.08831 -11.36505,-11.36508 z"
       fill-rule="evenodd"
       id="path33" />
    <path
       stroke="#000000"
       stroke-width="1"
       stroke-linejoin="round"
       stroke-linecap="butt"
       d="m 190.48294,449.72504 v 0 c 0,-6.27673 5.0883,-11.36505 11.36505,-11.36505 h 166.6242 c 3.01422,0 5.90497,1.19739 8.03632,3.32876 2.13138,2.13135 3.32876,5.0221 3.32876,8.03629 v 45.45886 c 0,6.27677 -5.08832,11.36508 -11.36508,11.36508 h -166.6242 c -6.27675,0 -11.36505,-5.08831 -11.36505,-11.36508 z"
       fill-rule="evenodd"
       id="path35" />
    <path
       fill="#000000"
       d="m 217.14313,463.1401 v -1.57812 h 5.65625 v 4.95312 q -1.29687,1.04688 -2.6875,1.57813 -1.375,0.51562 -2.84375,0.51562 -1.96875,0 -3.57812,-0.84375 -1.60938,-0.84375 -2.42188,-2.4375 -0.8125,-1.59375 -0.8125,-3.5625 0,-1.95312 0.8125,-3.64062 0.8125,-1.6875 2.34375,-2.5 1.53125,-0.82813 3.51563,-0.82813 1.45312,0 2.625,0.46875 1.17187,0.46875 1.82812,1.3125 0.67188,0.82813 1.01563,2.17188 l -1.59375,0.4375 q -0.29688,-1.01563 -0.75,-1.59375 -0.4375,-0.59375 -1.26563,-0.9375 -0.82812,-0.34375 -1.84375,-0.34375 -1.20312,0 -2.09375,0.375 -0.89062,0.35937 -1.4375,0.96875 -0.53125,0.59375 -0.82812,1.3125 -0.51563,1.23437 -0.51563,2.6875 0,1.78125 0.60938,2.98437 0.625,1.20313 1.79687,1.79688 1.17188,0.57812 2.5,0.57812 1.14063,0 2.23438,-0.4375 1.09375,-0.45312 1.65625,-0.95312 v -2.48438 z m 14.6833,2.125 1.6875,0.20313 q -0.40625,1.48437 -1.48437,2.3125 -1.07813,0.8125 -2.76563,0.8125 -2.125,0 -3.375,-1.29688 -1.23437,-1.3125 -1.23437,-3.67187 0,-2.45313 1.25,-3.79688 1.26562,-1.34375 3.26562,-1.34375 1.9375,0 3.15625,1.32813 1.23438,1.3125 1.23438,3.70312 0,0.15625 0,0.4375 h -7.21875 q 0.0937,1.59375 0.90625,2.45313 0.8125,0.84375 2.01562,0.84375 0.90625,0 1.54688,-0.46875 0.64062,-0.48438 1.01562,-1.51563 z m -5.39062,-2.65625 h 5.40625 q -0.10938,-1.21875 -0.625,-1.82812 -0.78125,-0.95313 -2.03125,-0.95313 -1.125,0 -1.90625,0.76563 -0.76563,0.75 -0.84375,2.01562 z m 9.14134,5.76563 v -9.67188 h 1.46875 v 1.375 q 1.0625,-1.59375 3.07813,-1.59375 0.875,0 1.60937,0.3125 0.73438,0.3125 1.09375,0.82813 0.375,0.5 0.51563,1.20312 0.0937,0.45313 0.0937,1.59375 v 5.95313 h -1.64063 v -5.89063 q 0,-1 -0.20312,-1.48437 -0.1875,-0.5 -0.67188,-0.79688 -0.48437,-0.29687 -1.14062,-0.29687 -1.04688,0 -1.8125,0.67187 -0.75,0.65625 -0.75,2.51563 v 5.28125 z m 17.00072,-3.10938 1.6875,0.20313 q -0.40625,1.48437 -1.48438,2.3125 -1.07812,0.8125 -2.76562,0.8125 -2.125,0 -3.375,-1.29688 -1.23438,-1.3125 -1.23438,-3.67187 0,-2.45313 1.25,-3.79688 1.26563,-1.34375 3.26563,-1.34375 1.9375,0 3.15625,1.32813 1.23437,1.3125 1.23437,3.70312 0,0.15625 0,0.4375 h -7.21875 q 0.0937,1.59375 0.90625,2.45313 0.8125,0.84375 2.01563,0.84375 0.90625,0 1.54687,-0.46875 0.64063,-0.48438 1.01563,-1.51563 z m -5.39063,-2.65625 h 5.40625 q -0.10937,-1.21875 -0.625,-1.82812 -0.78125,-0.95313 -2.03125,-0.95313 -1.125,0 -1.90625,0.76563 -0.76562,0.75 -0.84375,2.01562 z m 9.12572,5.76563 v -9.67188 h 1.46875 v 1.46875 q 0.5625,-1.03125 1.03125,-1.35937 0.48438,-0.32813 1.0625,-0.32813 0.82813,0 1.6875,0.53125 l -0.5625,1.51563 q -0.60937,-0.35938 -1.20312,-0.35938 -0.54688,0 -0.96875,0.32813 -0.42188,0.32812 -0.60938,0.89062 -0.28125,0.875 -0.28125,1.92188 v 5.0625 z m 12.5408,-1.1875 q -0.92187,0.76562 -1.76562,1.09375 -0.82813,0.3125 -1.79688,0.3125 -1.59375,0 -2.45312,-0.78125 -0.85938,-0.78125 -0.85938,-1.98438 0,-0.71875 0.32813,-1.29687 0.32812,-0.59375 0.84375,-0.9375 0.53125,-0.35938 1.1875,-0.54688 0.46875,-0.125 1.45312,-0.25 1.98438,-0.23437 2.92188,-0.5625 0.0156,-0.34375 0.0156,-0.42187 0,-1 -0.46875,-1.42188 -0.625,-0.54687 -1.875,-0.54687 -1.15625,0 -1.70312,0.40625 -0.54688,0.40625 -0.8125,1.42187 l -1.60938,-0.21875 q 0.21875,-1.01562 0.71875,-1.64062 0.5,-0.64063 1.45313,-0.98438 0.95312,-0.34375 2.1875,-0.34375 1.25,0 2.01562,0.29688 0.78125,0.28125 1.14063,0.73437 0.375,0.4375 0.51562,1.10938 0.0781,0.42187 0.0781,1.51562 v 2.1875 q 0,2.28125 0.10937,2.89063 0.10938,0.59375 0.40625,1.15625 h -1.70312 q -0.26563,-0.51563 -0.32813,-1.1875 z m -0.14062,-3.67188 q -0.89063,0.375 -2.67188,0.625 -1.01562,0.14063 -1.4375,0.32813 -0.42187,0.1875 -0.65625,0.53125 -0.21875,0.34375 -0.21875,0.78125 0,0.65625 0.5,1.09375 0.5,0.4375 1.45313,0.4375 0.9375,0 1.67187,-0.40625 0.75,-0.42188 1.09375,-1.14063 0.26563,-0.5625 0.26563,-1.64062 z m 7.78198,3.39063 0.23437,1.45312 q -0.6875,0.14063 -1.23437,0.14063 -0.89063,0 -1.39063,-0.28125 -0.48437,-0.28125 -0.6875,-0.73438 -0.20312,-0.46875 -0.20312,-1.9375 v -5.57812 h -1.20313 v -1.26563 h 1.20313 v -2.39062 l 1.625,-0.98438 v 3.375 h 1.65625 v 1.26563 h -1.65625 v 5.67187 q 0,0.6875 0.0781,0.89063 0.0937,0.20312 0.28125,0.32812 0.20313,0.10938 0.57813,0.10938 0.26562,0 0.71875,-0.0625 z m 8.23016,-1.64063 1.6875,0.20313 q -0.40625,1.48437 -1.48437,2.3125 -1.07813,0.8125 -2.76563,0.8125 -2.125,0 -3.375,-1.29688 -1.23437,-1.3125 -1.23437,-3.67187 0,-2.45313 1.25,-3.79688 1.26562,-1.34375 3.26562,-1.34375 1.9375,0 3.15625,1.32813 1.23438,1.3125 1.23438,3.70312 0,0.15625 0,0.4375 h -7.21875 q 0.0937,1.59375 0.90625,2.45313 0.8125,0.84375 2.01562,0.84375 0.90625,0 1.54688,-0.46875 0.64062,-0.48438 1.01562,-1.51563 z m -5.39062,-2.65625 h 5.40625 q -0.10938,-1.21875 -0.625,-1.82812 -0.78125,-0.95313 -2.03125,-0.95313 -1.125,0 -1.90625,0.76563 -0.76563,0.75 -0.84375,2.01562 z m 14.32464,5.76563 v -9.67188 h 1.46875 v 1.375 q 1.0625,-1.59375 3.07813,-1.59375 0.875,0 1.60937,0.3125 0.73438,0.3125 1.09375,0.82813 0.375,0.5 0.51563,1.20312 0.0937,0.45313 0.0937,1.59375 v 5.95313 H 299.878 v -5.89063 q 0,-1 -0.20312,-1.48437 -0.1875,-0.5 -0.67188,-0.79688 -0.48437,-0.29687 -1.14062,-0.29687 -1.04688,0 -1.8125,0.67187 -0.75,0.65625 -0.75,2.51563 v 5.28125 z m 17.00074,-3.10938 1.6875,0.20313 q -0.40625,1.48437 -1.48438,2.3125 -1.07812,0.8125 -2.76562,0.8125 -2.125,0 -3.375,-1.29688 -1.23438,-1.3125 -1.23438,-3.67187 0,-2.45313 1.25,-3.79688 1.26563,-1.34375 3.26563,-1.34375 1.9375,0 3.15625,1.32813 1.23437,1.3125 1.23437,3.70312 0,0.15625 0,0.4375 h -7.21875 q 0.0937,1.59375 0.90625,2.45313 0.8125,0.84375 2.01563,0.84375 0.90625,0 1.54687,-0.46875 0.64063,-0.48438 1.01563,-1.51563 z m -5.39063,-2.65625 h 5.40625 q -0.10937,-1.21875 -0.625,-1.82812 -0.78125,-0.95313 -2.03125,-0.95313 -1.125,0 -1.90625,0.76563 -0.76562,0.75 -0.84375,2.01562 z m 10.92258,5.76563 -2.96875,-9.67188 h 1.70312 l 1.53125,5.57813 0.57813,2.07812 q 0.0469,-0.15625 0.5,-2 l 1.54687,-5.65625 h 1.6875 l 1.4375,5.60938 0.48438,1.84375 0.5625,-1.85938 1.65625,-5.59375 h 1.59375 l -3.03125,9.67188 h -1.70313 l -1.53125,-5.79688 -0.375,-1.64062 -1.95312,7.4375 z m 16.875,0 V 455.0151 h 1.64062 v 7.625 l 3.89063,-3.9375 h 2.10937 l -3.6875,3.59375 4.0625,6.07813 h -2.01562 l -3.20313,-4.95313 -1.15625,1.125 v 3.82813 z m 15.95312,-3.10938 1.6875,0.20313 q -0.40625,1.48437 -1.48437,2.3125 -1.07813,0.8125 -2.76563,0.8125 -2.125,0 -3.375,-1.29688 -1.23437,-1.3125 -1.23437,-3.67187 0,-2.45313 1.25,-3.79688 1.26562,-1.34375 3.26562,-1.34375 1.9375,0 3.15625,1.32813 1.23438,1.3125 1.23438,3.70312 0,0.15625 0,0.4375 h -7.21875 q 0.0937,1.59375 0.90625,2.45313 0.8125,0.84375 2.01562,0.84375 0.90625,0 1.54688,-0.46875 0.64062,-0.48438 1.01562,-1.51563 z m -5.39062,-2.65625 h 5.40625 q -0.10938,-1.21875 -0.625,-1.82812 -0.78125,-0.95313 -2.03125,-0.95313 -1.125,0 -1.90625,0.76563 -0.76563,0.75 -0.84375,2.01562 z m 9.06323,9.48438 -0.1875,-1.53125 q 0.54688,0.14062 0.9375,0.14062 0.54688,0 0.875,-0.1875 0.32813,-0.17187 0.54688,-0.5 0.15625,-0.25 0.5,-1.21875 0.0469,-0.14062 0.14062,-0.40625 l -3.67187,-9.6875 h 1.76562 l 2.01563,5.59375 q 0.39062,1.07813 0.70312,2.25 0.28125,-1.125 0.67188,-2.20312 l 2.07812,-5.64063 h 1.64063 l -3.6875,9.82813 q -0.59375,1.60937 -0.92188,2.20312 -0.4375,0.8125 -1,1.1875 -0.5625,0.375 -1.34375,0.375 -0.48437,0 -1.0625,-0.20312 z"
       fill-rule="nonzero"
       id="path37" />
    <path
       fill="#000000"
       d="m 207.07353,478.90573 v -1.89063 h 1.64062 v 1.89063 z m 0,11.46875 v -9.67188 h 1.64062 v 9.67188 z m 4.14482,0 v -9.67188 h 1.46875 v 1.375 q 1.0625,-1.59375 3.07813,-1.59375 0.875,0 1.60937,0.3125 0.73438,0.3125 1.09375,0.82813 0.375,0.5 0.51563,1.20312 0.0937,0.45313 0.0937,1.59375 v 5.95313 h -1.64063 v -5.89063 q 0,-1 -0.20312,-1.48437 -0.1875,-0.5 -0.67188,-0.79688 -0.48437,-0.29687 -1.14062,-0.29687 -1.04688,0 -1.8125,0.67187 -0.75,0.65625 -0.75,2.51563 v 5.28125 z m 15.5434,0 v -9.67188 h 1.46875 v 1.46875 q 0.5625,-1.03125 1.03125,-1.35937 0.48437,-0.32813 1.0625,-0.32813 0.82812,0 1.6875,0.53125 l -0.5625,1.51563 q -0.60938,-0.35938 -1.20313,-0.35938 -0.54687,0 -0.96875,0.32813 -0.42187,0.32812 -0.60937,0.89062 -0.28125,0.875 -0.28125,1.92188 v 5.0625 z m 12.8533,-3.10938 1.6875,0.20313 q -0.40625,1.48437 -1.48438,2.3125 -1.07812,0.8125 -2.76562,0.8125 -2.125,0 -3.375,-1.29688 -1.23438,-1.3125 -1.23438,-3.67187 0,-2.45313 1.25,-3.79688 1.26563,-1.34375 3.26563,-1.34375 1.9375,0 3.15625,1.32813 1.23437,1.3125 1.23437,3.70312 0,0.15625 0,0.4375 h -7.21875 q 0.0937,1.59375 0.90625,2.45313 0.8125,0.84375 2.01563,0.84375 0.90625,0 1.54687,-0.46875 0.64063,-0.48438 1.01563,-1.51563 z m -5.39063,-2.65625 h 5.40625 q -0.10937,-1.21875 -0.625,-1.82812 -0.78125,-0.95313 -2.03125,-0.95313 -1.125,0 -1.90625,0.76563 -0.76562,0.75 -0.84375,2.01562 z m 9.14135,5.76563 v -9.67188 h 1.46875 v 1.35938 q 0.45312,-0.71875 1.20312,-1.14063 0.76563,-0.4375 1.71875,-0.4375 1.07813,0 1.76563,0.45313 0.6875,0.4375 0.96875,1.23437 1.15625,-1.6875 2.98437,-1.6875 1.45313,0 2.21875,0.79688 0.78127,0.79687 0.78127,2.45312 v 6.64063 h -1.64064 v -6.09375 q 0,-0.98438 -0.15625,-1.40625 -0.15625,-0.4375 -0.57813,-0.70313 -0.42187,-0.26562 -0.98437,-0.26562 -1.01563,0 -1.6875,0.6875 -0.67188,0.67187 -0.67188,2.15625 v 5.625 h -1.64062 v -6.28125 q 0,-1.09375 -0.40625,-1.64063 -0.40625,-0.54687 -1.3125,-0.54687 -0.6875,0 -1.28125,0.35937 -0.59375,0.35938 -0.85938,1.0625 -0.25,0.70313 -0.25,2.03125 v 5.01563 z m 14.93144,-4.84375 q 0,-2.6875 1.48437,-3.96875 1.25,-1.07813 3.04688,-1.07813 2,0 3.26562,1.3125 1.26563,1.29688 1.26563,3.60938 0,1.85937 -0.5625,2.9375 -0.5625,1.0625 -1.64063,1.65625 -1.0625,0.59375 -2.32812,0.59375 -2.03125,0 -3.28125,-1.29688 -1.25,-1.3125 -1.25,-3.76562 z m 1.6875,0 q 0,1.85937 0.79687,2.79687 0.8125,0.92188 2.04688,0.92188 1.21875,0 2.03125,-0.92188 0.8125,-0.9375 0.8125,-2.84375 0,-1.79687 -0.8125,-2.71875 -0.8125,-0.92187 -2.03125,-0.92187 -1.23438,0 -2.04688,0.92187 -0.79687,0.90625 -0.79687,2.76563 z m 12.8757,3.375 0.23437,1.45312 q -0.6875,0.14063 -1.23437,0.14063 -0.89063,0 -1.39063,-0.28125 -0.48437,-0.28125 -0.6875,-0.73438 -0.20312,-0.46875 -0.20312,-1.9375 v -5.57812 h -1.20313 v -1.26563 h 1.20313 v -2.39062 l 1.625,-0.98438 v 3.375 h 1.65625 v 1.26563 h -1.65625 v 5.67187 q 0,0.6875 0.0781,0.89063 0.0937,0.20312 0.28125,0.32812 0.20313,0.10938 0.57813,0.10938 0.26562,0 0.71875,-0.0625 z m 8.23019,-1.64063 1.6875,0.20313 q -0.40625,1.48437 -1.48437,2.3125 -1.07813,0.8125 -2.76563,0.8125 -2.125,0 -3.375,-1.29688 -1.23437,-1.3125 -1.23437,-3.67187 0,-2.45313 1.25,-3.79688 1.26562,-1.34375 3.26562,-1.34375 1.9375,0 3.15625,1.32813 1.23438,1.3125 1.23438,3.70312 0,0.15625 0,0.4375 h -7.21875 q 0.0937,1.59375 0.90625,2.45313 0.8125,0.84375 2.01562,0.84375 0.90625,0 1.54688,-0.46875 0.64062,-0.48438 1.01562,-1.51563 z m -5.39062,-2.65625 h 5.40625 q -0.10938,-1.21875 -0.625,-1.82812 -0.78125,-0.95313 -2.03125,-0.95313 -1.125,0 -1.90625,0.76563 -0.76563,0.75 -0.84375,2.01562 z m 14.32464,5.76563 V 477.0151 h 1.64063 v 7.625 l 3.89062,-3.9375 h 2.10938 l -3.6875,3.59375 4.0625,6.07813 h -2.01563 l -3.20312,-4.95313 -1.15625,1.125 v 3.82813 z m 15.95313,-3.10938 1.6875,0.20313 q -0.40625,1.48437 -1.48438,2.3125 -1.07812,0.8125 -2.76562,0.8125 -2.125,0 -3.375,-1.29688 -1.23438,-1.3125 -1.23438,-3.67187 0,-2.45313 1.25,-3.79688 1.26563,-1.34375 3.26563,-1.34375 1.9375,0 3.15625,1.32813 1.23437,1.3125 1.23437,3.70312 0,0.15625 0,0.4375 h -7.21875 q 0.0937,1.59375 0.90625,2.45313 0.8125,0.84375 2.01563,0.84375 0.90625,0 1.54687,-0.46875 0.64063,-0.48438 1.01563,-1.51563 z m -5.39063,-2.65625 h 5.40625 q -0.10937,-1.21875 -0.625,-1.82812 -0.78125,-0.95313 -2.03125,-0.95313 -1.125,0 -1.90625,0.76563 -0.76562,0.75 -0.84375,2.01562 z m 9.06321,9.48438 -0.1875,-1.53125 q 0.54687,0.14062 0.9375,0.14062 0.54687,0 0.875,-0.1875 0.32812,-0.17187 0.54687,-0.5 0.15625,-0.25 0.5,-1.21875 0.0469,-0.14062 0.14063,-0.40625 l -3.67188,-9.6875 h 1.76563 l 2.01562,5.59375 q 0.39063,1.07813 0.70313,2.25 0.28125,-1.125 0.67187,-2.20312 l 2.07813,-5.64063 h 1.64062 l -3.6875,9.82813 q -0.59375,1.60937 -0.92187,2.20312 -0.4375,0.8125 -1,1.1875 -0.5625,0.375 -1.34375,0.375 -0.48438,0 -1.0625,-0.20312 z m 13.93332,-6.60938 1.625,-0.25 q 0.125,0.96875 0.75,1.5 0.625,0.51563 1.75,0.51563 1.125,0 1.67187,-0.45313 0.54688,-0.46875 0.54688,-1.09375 0,-0.54687 -0.48438,-0.875 -0.32812,-0.21875 -1.67187,-0.54687 -1.8125,-0.46875 -2.51563,-0.79688 -0.6875,-0.32812 -1.04687,-0.90625 -0.35938,-0.59375 -0.35938,-1.3125 0,-0.64062 0.29688,-1.1875 0.29687,-0.5625 0.8125,-0.92187 0.375,-0.28125 1.03125,-0.46875 0.67187,-0.20313 1.42187,-0.20313 1.14063,0 2,0.32813 0.85938,0.32812 1.26563,0.89062 0.42187,0.5625 0.57812,1.5 l -1.60937,0.21875 q -0.10938,-0.75 -0.64063,-1.17187 -0.51562,-0.42188 -1.46875,-0.42188 -1.14062,0 -1.625,0.375 -0.46875,0.375 -0.46875,0.875 0,0.3125 0.1875,0.57813 0.20313,0.26562 0.64063,0.4375 0.23437,0.0937 1.4375,0.42187 1.75,0.45313 2.4375,0.75 0.6875,0.29688 1.07812,0.85938 0.39063,0.5625 0.39063,1.40625 0,0.82812 -0.48438,1.54687 -0.46875,0.71875 -1.375,1.125 -0.90625,0.39063 -2.04687,0.39063 -1.875,0 -2.875,-0.78125 -0.98438,-0.78125 -1.25,-2.32813 z m 13.5625,1.42188 0.23437,1.45312 q -0.6875,0.14063 -1.23437,0.14063 -0.89063,0 -1.39063,-0.28125 -0.48437,-0.28125 -0.6875,-0.73438 -0.20312,-0.46875 -0.20312,-1.9375 v -5.57812 h -1.20313 v -1.26563 h 1.20313 v -2.39062 l 1.625,-0.98438 v 3.375 h 1.65625 v 1.26563 h -1.65625 v 5.67187 q 0,0.6875 0.0781,0.89063 0.0937,0.20312 0.28125,0.32812 0.20313,0.10938 0.57813,0.10938 0.26562,0 0.71875,-0.0625 z m 0.99578,-3.375 q 0,-2.6875 1.48438,-3.96875 1.25,-1.07813 3.04687,-1.07813 2,0 3.26563,1.3125 1.26562,1.29688 1.26562,3.60938 0,1.85937 -0.5625,2.9375 -0.5625,1.0625 -1.64062,1.65625 -1.0625,0.59375 -2.32813,0.59375 -2.03125,0 -3.28125,-1.29688 -1.25,-1.3125 -1.25,-3.76562 z m 1.6875,0 q 0,1.85937 0.79688,2.79687 0.8125,0.92188 2.04687,0.92188 1.21875,0 2.03125,-0.92188 0.8125,-0.9375 0.8125,-2.84375 0,-1.79687 -0.8125,-2.71875 -0.8125,-0.92187 -2.03125,-0.92187 -1.23437,0 -2.04687,0.92187 -0.79688,0.90625 -0.79688,2.76563 z m 9.28199,4.84375 v -9.67188 h 1.46875 v 1.46875 q 0.5625,-1.03125 1.03125,-1.35937 0.48437,-0.32813 1.0625,-0.32813 0.82812,0 1.6875,0.53125 l -0.5625,1.51563 q -0.60938,-0.35938 -1.20313,-0.35938 -0.54687,0 -0.96875,0.32813 -0.42187,0.32812 -0.60937,0.89062 -0.28125,0.875 -0.28125,1.92188 v 5.0625 z m 12.8533,-3.10938 1.6875,0.20313 q -0.40625,1.48437 -1.48438,2.3125 -1.07812,0.8125 -2.76562,0.8125 -2.125,0 -3.375,-1.29688 -1.23438,-1.3125 -1.23438,-3.67187 0,-2.45313 1.25,-3.79688 1.26563,-1.34375 3.26563,-1.34375 1.9375,0 3.15625,1.32813 1.23437,1.3125 1.23437,3.70312 0,0.15625 0,0.4375 h -7.21875 q 0.0937,1.59375 0.90625,2.45313 0.8125,0.84375 2.01563,0.84375 0.90625,0 1.54687,-0.46875 0.64063,-0.48438 1.01563,-1.51563 z m -5.39063,-2.65625 h 5.40625 q -0.10937,-1.21875 -0.625,-1.82812 -0.78125,-0.95313 -2.03125,-0.95313 -1.125,0 -1.90625,0.76563 -0.76562,0.75 -0.84375,2.01562 z"
       fill-rule="nonzero"
       id="path39" />
    <path
       fill="#cfe2f3"
       d="m 488.82837,472.45447 26.97638,-26.97635 26.97638,26.97635 -26.97638,26.97638 z"
       fill-rule="evenodd"
       id="path41" />
    <path
       stroke="#000000"
       stroke-width="1"
       stroke-linejoin="round"
       stroke-linecap="butt"
       d="m 488.82837,472.45447 26.97638,-26.97635 26.97638,26.97635 -26.97638,26.97638 z"
       fill-rule="evenodd"
       id="path43" />
    <path
       fill="#000000"
       fill-opacity="0"
       d="m 529.38055,471.5748 h 586.39375 v 37.16534 H 529.38055 Z"
       fill-rule="evenodd"
       id="path45" />
    <path
       fill="#000000"
       d="m 539.50555,494.65482 v -10.48438 h 3.96875 q 1.04687,0 1.59375,0.0937 0.76562,0.125 1.28125,0.48438 0.53125,0.35937 0.84375,1.01562 0.32812,0.65625 0.32812,1.4375 0,1.32813 -0.85937,2.26563 -0.84375,0.92187 -3.07813,0.92187 h -2.6875 v 4.26563 z m 1.39062,-5.5 h 2.71875 q 1.34375,0 1.90625,-0.5 0.5625,-0.5 0.5625,-1.40625 0,-0.67188 -0.32812,-1.14063 -0.32813,-0.46875 -0.875,-0.60937 -0.35938,-0.0937 -1.29688,-0.0937 h -2.6875 z m 8.33814,5.5 v -10.48438 h 1.39062 v 9.25 h 5.15625 v 1.23438 z m 8.15112,0 v -10.48438 h 1.39063 v 5.20313 l 5.20312,-5.20313 h 1.875 l -4.39062,4.25 4.59375,6.23438 h -1.82813 l -3.75,-5.3125 -1.70312,1.67187 v 3.64063 z m 18.69129,-0.9375 q -0.71875,0.60937 -1.375,0.85937 -0.65625,0.25 -1.42188,0.25 -1.25,0 -1.92187,-0.60937 -0.67188,-0.60938 -0.67188,-1.5625 0,-0.5625 0.25,-1.01563 0.25,-0.46875 0.65625,-0.75 0.42188,-0.28125 0.9375,-0.42187 0.375,-0.0937 1.14063,-0.1875 1.5625,-0.1875 2.29687,-0.45313 0.0156,-0.26562 0.0156,-0.32812 0,-0.79688 -0.375,-1.10938 -0.48438,-0.4375 -1.45313,-0.4375 -0.92187,0 -1.35937,0.32813 -0.42188,0.3125 -0.625,1.10937 l -1.26563,-0.17187 q 0.17188,-0.79688 0.5625,-1.29688 0.39063,-0.5 1.14063,-0.76562 0.75,-0.26563 1.71875,-0.26563 0.98437,0 1.59375,0.23438 0.60937,0.21875 0.89062,0.5625 0.28125,0.34375 0.40625,0.875 0.0625,0.32812 0.0625,1.1875 v 1.71875 q 0,1.79687 0.0781,2.28125 0.0781,0.46875 0.32812,0.90625 h -1.34375 q -0.20312,-0.40625 -0.26562,-0.9375 z m -0.10938,-2.875 q -0.70312,0.28125 -2.09375,0.48437 -0.79687,0.10938 -1.125,0.26563 -0.32812,0.14062 -0.51562,0.42187 -0.17188,0.26563 -0.17188,0.59375 0,0.51563 0.39063,0.85938 0.39062,0.34375 1.14062,0.34375 0.73438,0 1.3125,-0.3125 0.59375,-0.32813 0.85938,-0.89063 0.20312,-0.4375 0.20312,-1.29687 z m 5.41675,3.8125 -2.89063,-7.59375 h 1.35938 l 1.625,4.54687 q 0.26562,0.73438 0.5,1.53125 0.15625,-0.60937 0.46875,-1.45312 l 1.6875,-4.625 h 1.32812 l -2.875,7.59375 z m 10.17187,-0.9375 q -0.71875,0.60937 -1.375,0.85937 -0.65625,0.25 -1.42187,0.25 -1.25,0 -1.92188,-0.60937 -0.67187,-0.60938 -0.67187,-1.5625 0,-0.5625 0.25,-1.01563 0.25,-0.46875 0.65625,-0.75 0.42187,-0.28125 0.9375,-0.42187 0.375,-0.0937 1.14062,-0.1875 1.5625,-0.1875 2.29688,-0.45313 0.0156,-0.26562 0.0156,-0.32812 0,-0.79688 -0.375,-1.10938 -0.48437,-0.4375 -1.45312,-0.4375 -0.92188,0 -1.35938,0.32813 -0.42187,0.3125 -0.625,1.10937 l -1.26562,-0.17187 q 0.17187,-0.79688 0.5625,-1.29688 0.39062,-0.5 1.14062,-0.76562 0.75,-0.26563 1.71875,-0.26563 0.98438,0 1.59375,0.23438 0.60938,0.21875 0.89063,0.5625 0.28125,0.34375 0.40625,0.875 0.0625,0.32812 0.0625,1.1875 v 1.71875 q 0,1.79687 0.0781,2.28125 0.0781,0.46875 0.32813,0.90625 h -1.34375 q -0.20313,-0.40625 -0.26563,-0.9375 z m -0.10937,-2.875 q -0.70313,0.28125 -2.09375,0.48437 -0.79688,0.10938 -1.125,0.26563 -0.32813,0.14062 -0.51563,0.42187 -0.17187,0.26563 -0.17187,0.59375 0,0.51563 0.39062,0.85938 0.39063,0.34375 1.14063,0.34375 0.73437,0 1.3125,-0.3125 0.59375,-0.32813 0.85937,-0.89063 0.20313,-0.4375 0.20313,-1.29687 z m 3.30737,-5.20313 v -1.46875 h 1.29688 v 1.46875 z m 0,9.01563 v -7.59375 h 1.29688 v 7.59375 z m 3.22492,0 v -10.48438 h 1.28125 v 10.48438 z m 8.24048,-0.9375 q -0.71875,0.60937 -1.375,0.85937 -0.65625,0.25 -1.42188,0.25 -1.25,0 -1.92187,-0.60937 -0.67188,-0.60938 -0.67188,-1.5625 0,-0.5625 0.25,-1.01563 0.25,-0.46875 0.65625,-0.75 0.42188,-0.28125 0.9375,-0.42187 0.375,-0.0937 1.14063,-0.1875 1.5625,-0.1875 2.29687,-0.45313 0.0156,-0.26562 0.0156,-0.32812 0,-0.79688 -0.375,-1.10938 -0.48438,-0.4375 -1.45313,-0.4375 -0.92187,0 -1.35937,0.32813 -0.42188,0.3125 -0.625,1.10937 l -1.26563,-0.17187 q 0.17188,-0.79688 0.5625,-1.29688 0.39063,-0.5 1.14063,-0.76562 0.75,-0.26563 1.71875,-0.26563 0.98437,0 1.59375,0.23438 0.60937,0.21875 0.89062,0.5625 0.28125,0.34375 0.40625,0.875 0.0625,0.32812 0.0625,1.1875 v 1.71875 q 0,1.79687 0.0781,2.28125 0.0781,0.46875 0.32812,0.90625 h -1.34375 q -0.20312,-0.40625 -0.26562,-0.9375 z m -0.10938,-2.875 q -0.70312,0.28125 -2.09375,0.48437 -0.79687,0.10938 -1.125,0.26563 -0.32812,0.14062 -0.51562,0.42187 -0.17188,0.26563 -0.17188,0.59375 0,0.51563 0.39063,0.85938 0.39062,0.34375 1.14062,0.34375 0.73438,0 1.3125,-0.3125 0.59375,-0.32813 0.85938,-0.89063 0.20312,-0.4375 0.20312,-1.29687 z m 4.49487,3.8125 h -1.20312 v -10.48438 h 1.29687 v 3.73438 q 0.8125,-1.01563 2.07813,-1.01563 0.70312,0 1.32812,0.28125 0.625,0.28125 1.03125,0.79688 0.40625,0.5 0.625,1.23437 0.23438,0.71875 0.23438,1.53125 0,1.96875 -0.96875,3.03125 -0.95313,1.0625 -2.3125,1.0625 -1.34375,0 -2.10938,-1.125 z m -0.0156,-3.85938 q 0,1.375 0.375,1.98438 0.60937,0.98437 1.64062,0.98437 0.84375,0 1.45313,-0.73437 0.625,-0.73438 0.625,-2.1875 0,-1.48438 -0.59375,-2.1875 -0.59375,-0.71875 -1.42188,-0.71875 -0.84375,0 -1.46875,0.73437 -0.60937,0.73438 -0.60937,2.125 z m 6.948,3.85938 v -10.48438 h 1.28125 v 10.48438 z m 8.49054,-2.45313 1.32812,0.17188 q -0.3125,1.17187 -1.17187,1.8125 -0.84375,0.64062 -2.17188,0.64062 -1.67187,0 -2.65625,-1.01562 -0.96875,-1.03125 -0.96875,-2.89063 0,-1.92187 0.98438,-2.96875 1,-1.0625 2.57812,-1.0625 1.51563,0 2.48438,1.03125 0.96875,1.03125 0.96875,2.92188 0,0.10937 -0.0156,0.34375 h -5.65625 q 0.0625,1.25 0.70313,1.92187 0.64062,0.65625 1.59375,0.65625 0.70312,0 1.20312,-0.35937 0.5,-0.375 0.79688,-1.20313 z m -4.23438,-2.07812 h 4.25 q -0.0937,-0.95313 -0.48437,-1.4375 -0.625,-0.75 -1.60938,-0.75 -0.875,0 -1.48437,0.59375 -0.60938,0.59375 -0.67188,1.59375 z m 11.23871,4.53125 v -7.59375 h 1.15625 v 1.14062 q 0.45313,-0.79687 0.82813,-1.04687 0.375,-0.26563 0.8125,-0.26563 0.65625,0 1.32812,0.40625 l -0.4375,1.20313 q -0.46875,-0.28125 -0.95312,-0.28125 -0.42188,0 -0.76563,0.25 -0.32812,0.25 -0.46875,0.70312 -0.21875,0.6875 -0.21875,1.5 v 3.98438 z m 10.09937,-2.45313 1.32812,0.17188 q -0.3125,1.17187 -1.17187,1.8125 -0.84375,0.64062 -2.17188,0.64062 -1.67187,0 -2.65625,-1.01562 -0.96875,-1.03125 -0.96875,-2.89063 0,-1.92187 0.98438,-2.96875 1,-1.0625 2.57812,-1.0625 1.51563,0 2.48438,1.03125 0.96875,1.03125 0.96875,2.92188 0,0.10937 -0.0156,0.34375 h -5.65625 q 0.0625,1.25 0.70313,1.92187 0.64062,0.65625 1.59375,0.65625 0.70312,0 1.20312,-0.35937 0.5,-0.375 0.79688,-1.20313 z m -4.23438,-2.07812 h 4.25 q -0.0937,-0.95313 -0.48437,-1.4375 -0.625,-0.75 -1.60938,-0.75 -0.875,0 -1.48437,0.59375 -0.60938,0.59375 -0.67188,1.59375 z m 7.18237,4.53125 v -7.59375 h 1.15625 v 1.0625 q 0.34375,-0.5625 0.9375,-0.89063 0.60938,-0.34375 1.35938,-0.34375 0.84375,0 1.375,0.34375 0.54687,0.34375 0.76562,0.98438 0.90625,-1.32813 2.35938,-1.32813 1.125,0 1.73437,0.625 0.60938,0.625 0.60938,1.92188 v 5.21875 h -1.28125 v -4.78125 q 0,-0.78125 -0.125,-1.10938 -0.125,-0.34375 -0.45313,-0.54687 -0.32812,-0.21875 -0.78125,-0.21875 -0.79687,0 -1.32812,0.53125 -0.53125,0.53125 -0.53125,1.70312 v 4.42188 h -1.28125 v -4.9375 q 0,-0.85938 -0.3125,-1.28125 -0.3125,-0.4375 -1.03125,-0.4375 -0.54688,0 -1.01563,0.29687 -0.45312,0.28125 -0.67187,0.82813 -0.20313,0.54687 -0.20313,1.59375 v 3.9375 z m 11.72437,-3.79688 q 0,-2.10937 1.17187,-3.125 0.98438,-0.84375 2.39063,-0.84375 1.57812,0 2.5625,1.03125 1,1.01563 1,2.82813 0,1.46875 -0.4375,2.3125 -0.4375,0.82812 -1.28125,1.29687 -0.84375,0.46875 -1.84375,0.46875 -1.59375,0 -2.57813,-1.01562 -0.98437,-1.03125 -0.98437,-2.95313 z m 1.32812,0 q 0,1.45313 0.625,2.1875 0.64063,0.71875 1.60938,0.71875 0.96875,0 1.59375,-0.71875 0.64062,-0.73437 0.64062,-2.23437 0,-1.40625 -0.64062,-2.125 -0.64063,-0.73438 -1.59375,-0.73438 -0.96875,0 -1.60938,0.71875 -0.625,0.71875 -0.625,2.1875 z m 10.11988,2.64063 0.1875,1.14062 q -0.54688,0.10938 -0.98438,0.10938 -0.6875,0 -1.07812,-0.21875 -0.39063,-0.21875 -0.54688,-0.57813 -0.15625,-0.35937 -0.15625,-1.51562 v -4.375 h -0.95312 v -1 h 0.95312 v -1.89063 l 1.28125,-0.76562 v 2.65625 h 1.29688 v 1 h -1.29688 v 4.4375 q 0,0.54687 0.0625,0.71875 0.0781,0.15625 0.21875,0.25 0.15625,0.0781 0.45313,0.0781 0.20312,0 0.5625,-0.0469 z m 6.46258,-1.29688 1.32813,0.17188 q -0.3125,1.17187 -1.17188,1.8125 -0.84375,0.64062 -2.17187,0.64062 -1.67188,0 -2.65625,-1.01562 -0.96875,-1.03125 -0.96875,-2.89063 0,-1.92187 0.98437,-2.96875 1,-1.0625 2.57813,-1.0625 1.51562,0 2.48437,1.03125 0.96875,1.03125 0.96875,2.92188 0,0.10937 -0.0156,0.34375 h -5.65625 q 0.0625,1.25 0.70312,1.92187 0.64063,0.65625 1.59375,0.65625 0.70313,0 1.20313,-0.35937 0.5,-0.375 0.79687,-1.20313 z m -4.23437,-2.07812 h 4.25 q -0.0937,-0.95313 -0.48438,-1.4375 -0.625,-0.75 -1.60937,-0.75 -0.875,0 -1.48438,0.59375 -0.60937,0.59375 -0.67187,1.59375 z m 7.15112,4.53125 v -10.48438 h 1.28125 v 10.48438 z m 3.22491,2.92187 -0.14062,-1.20312 q 0.42187,0.10937 0.73437,0.10937 0.4375,0 0.6875,-0.14062 0.26563,-0.14063 0.42188,-0.40625 0.125,-0.1875 0.39062,-0.95313 0.0469,-0.10937 0.125,-0.3125 l -2.89062,-7.60937 h 1.39062 l 1.57813,4.39062 q 0.3125,0.84375 0.54687,1.76563 0.23438,-0.89063 0.53125,-1.73438 l 1.625,-4.42187 h 1.29688 l -2.89063,7.71875 q -0.46875,1.25 -0.73437,1.73437 -0.34375,0.625 -0.78125,0.92188 -0.4375,0.29687 -1.0625,0.29687 -0.375,0 -0.82813,-0.15625 z m 9.79688,-5.5 q 0,-0.26562 0,-0.39062 0,-0.76563 0.20312,-1.3125 0.17188,-0.40625 0.51563,-0.82813 0.25,-0.3125 0.92187,-0.90625 0.67188,-0.59375 0.875,-0.9375 0.20313,-0.35937 0.20313,-0.76562 0,-0.75 -0.59375,-1.3125 -0.57813,-0.57813 -1.4375,-0.57813 -0.82813,0 -1.375,0.51563 -0.54688,0.51562 -0.71875,1.60937 l -1.32813,-0.15625 q 0.1875,-1.46875 1.0625,-2.25 0.89063,-0.78125 2.34375,-0.78125 1.53125,0 2.4375,0.84375 0.92188,0.82813 0.92188,2.01563 0,0.6875 -0.32813,1.26562 -0.3125,0.57813 -1.25,1.42188 -0.625,0.54687 -0.82812,0.8125 -0.1875,0.26562 -0.28125,0.60937 -0.0937,0.34375 -0.10938,1.125 z m -0.0781,2.57813 v -1.46875 h 1.46875 v 1.46875 z"
       fill-rule="nonzero"
       id="path47" />
    <path
       fill="#cfe2f3"
       d="m 421.12756,689.7561 v 0 c 0,-6.27673 5.08832,-11.36505 11.36508,-11.36505 h 166.62418 c 3.01422,0 5.90497,1.19739 8.03632,3.3288 2.13141,2.13134 3.32879,5.02209 3.32879,8.03625 v 45.45886 c 0,6.2768 -5.08831,11.36511 -11.36511,11.36511 H 432.49264 c -6.27676,0 -11.36508,-5.08831 -11.36508,-11.36511 z"
       fill-rule="evenodd"
       id="path49" />
    <path
       stroke="#000000"
       stroke-width="1"
       stroke-linejoin="round"
       stroke-linecap="butt"
       d="m 421.12756,689.7561 v 0 c 0,-6.27673 5.08832,-11.36505 11.36508,-11.36505 h 166.62418 c 3.01422,0 5.90497,1.19739 8.03632,3.3288 2.13141,2.13134 3.32879,5.02209 3.32879,8.03625 v 45.45886 c 0,6.2768 -5.08831,11.36511 -11.36511,11.36511 H 432.49264 c -6.27676,0 -11.36508,-5.08831 -11.36508,-11.36511 z"
       fill-rule="evenodd"
       id="path51" />
    <path
       fill="#000000"
       d="m 457.5288,719.4056 v -13.35937 h 1.78125 v 11.78125 h 6.5625 v 1.57812 z m 9.64133,-4.84375 q 0,-2.6875 1.48437,-3.96875 1.25,-1.07812 3.04688,-1.07812 2,0 3.26562,1.3125 1.26563,1.29687 1.26563,3.60937 0,1.85938 -0.5625,2.9375 -0.5625,1.0625 -1.64063,1.65625 -1.0625,0.59375 -2.32812,0.59375 -2.03125,0 -3.28125,-1.29687 -1.25,-1.3125 -1.25,-3.76563 z m 1.6875,0 q 0,1.85938 0.79687,2.79688 0.8125,0.92187 2.04688,0.92187 1.21875,0 2.03125,-0.92187 0.8125,-0.9375 0.8125,-2.84375 0,-1.79688 -0.8125,-2.71875 -0.8125,-0.92188 -2.03125,-0.92188 -1.23438,0 -2.04688,0.92188 -0.79687,0.90625 -0.79687,2.76562 z m 15.6101,3.65625 q -0.92187,0.76563 -1.76562,1.09375 -0.82813,0.3125 -1.79688,0.3125 -1.59375,0 -2.45312,-0.78125 -0.85938,-0.78125 -0.85938,-1.98437 0,-0.71875 0.32813,-1.29688 0.32812,-0.59375 0.84375,-0.9375 0.53125,-0.35937 1.1875,-0.54687 0.46875,-0.125 1.45312,-0.25 1.98438,-0.23438 2.92188,-0.5625 0.0156,-0.34375 0.0156,-0.42188 0,-1 -0.46875,-1.42187 -0.625,-0.54688 -1.875,-0.54688 -1.15625,0 -1.70312,0.40625 -0.54688,0.40625 -0.8125,1.42188 l -1.60938,-0.21875 q 0.21875,-1.01563 0.71875,-1.64063 0.5,-0.64062 1.45313,-0.98437 0.95312,-0.34375 2.1875,-0.34375 1.25,0 2.01562,0.29687 0.78125,0.28125 1.14063,0.73438 0.375,0.4375 0.51562,1.10937 0.0781,0.42188 0.0781,1.51563 v 2.1875 q 0,2.28125 0.10937,2.89062 0.10938,0.59375 0.40625,1.15625 h -1.70312 q -0.26563,-0.51562 -0.32813,-1.1875 z m -0.14062,-3.67187 q -0.89063,0.375 -2.67188,0.625 -1.01562,0.14062 -1.4375,0.32812 -0.42187,0.1875 -0.65625,0.53125 -0.21875,0.34375 -0.21875,0.78125 0,0.65625 0.5,1.09375 0.5,0.4375 1.45313,0.4375 0.9375,0 1.67187,-0.40625 0.75,-0.42187 1.09375,-1.14062 0.26563,-0.5625 0.26563,-1.64063 z m 10.46945,4.85937 v -1.21875 q -0.90625,1.4375 -2.70312,1.4375 -1.15625,0 -2.125,-0.64062 -0.96875,-0.64063 -1.5,-1.78125 -0.53125,-1.14063 -0.53125,-2.625 0,-1.45313 0.48437,-2.625 0.48438,-1.1875 1.4375,-1.8125 0.96875,-0.625 2.17188,-0.625 0.875,0 1.54687,0.375 0.6875,0.35937 1.10938,0.95312 v -4.79687 h 1.64062 v 13.35937 z m -5.17187,-4.82812 q 0,1.85937 0.78125,2.78125 0.78125,0.92187 1.84375,0.92187 1.07812,0 1.82812,-0.875 0.75,-0.89062 0.75,-2.6875 0,-1.98437 -0.76562,-2.90625 -0.76563,-0.9375 -1.89063,-0.9375 -1.07812,0 -1.8125,0.89063 -0.73437,0.89062 -0.73437,2.8125 z m 14.41839,4.82812 v -13.35937 h 1.64063 v 13.35937 z m 3.58234,-4.84375 q 0,-2.6875 1.48437,-3.96875 1.25,-1.07812 3.04688,-1.07812 2,0 3.26562,1.3125 1.26563,1.29687 1.26563,3.60937 0,1.85938 -0.5625,2.9375 -0.5625,1.0625 -1.64063,1.65625 -1.0625,0.59375 -2.32812,0.59375 -2.03125,0 -3.28125,-1.29687 -1.25,-1.3125 -1.25,-3.76563 z m 1.6875,0 q 0,1.85938 0.79687,2.79688 0.8125,0.92187 2.04688,0.92187 1.21875,0 2.03125,-0.92187 0.8125,-0.9375 0.8125,-2.84375 0,-1.79688 -0.8125,-2.71875 -0.8125,-0.92188 -2.03125,-0.92188 -1.23438,0 -2.04688,0.92188 -0.79687,0.90625 -0.79687,2.76562 z m 15.61011,1.29688 1.60937,0.21875 q -0.26562,1.65625 -1.35937,2.60937 -1.07813,0.9375 -2.67188,0.9375 -1.98437,0 -3.1875,-1.29687 -1.20312,-1.29688 -1.20312,-3.71875 0,-1.57813 0.51562,-2.75 0.51563,-1.17188 1.57813,-1.75 1.0625,-0.59375 2.3125,-0.59375 1.57812,0 2.57812,0.79687 1,0.79688 1.28125,2.26563 l -1.59375,0.23437 q -0.23437,-0.96875 -0.8125,-1.45312 -0.57812,-0.5 -1.39062,-0.5 -1.23438,0 -2.01563,0.89062 -0.78125,0.89063 -0.78125,2.8125 0,1.95313 0.75,2.84375 0.75,0.875 1.95313,0.875 0.96875,0 1.60937,-0.59375 0.65625,-0.59375 0.82813,-1.82812 z m 9.32812,2.35937 q -0.92187,0.76563 -1.76562,1.09375 -0.82813,0.3125 -1.79688,0.3125 -1.59375,0 -2.45312,-0.78125 -0.85938,-0.78125 -0.85938,-1.98437 0,-0.71875 0.32813,-1.29688 0.32812,-0.59375 0.84375,-0.9375 0.53125,-0.35937 1.1875,-0.54687 0.46875,-0.125 1.45312,-0.25 1.98438,-0.23438 2.92188,-0.5625 0.0156,-0.34375 0.0156,-0.42188 0,-1 -0.46875,-1.42187 -0.625,-0.54688 -1.875,-0.54688 -1.15625,0 -1.70312,0.40625 -0.54688,0.40625 -0.8125,1.42188 l -1.60938,-0.21875 q 0.21875,-1.01563 0.71875,-1.64063 0.5,-0.64062 1.45313,-0.98437 0.95312,-0.34375 2.1875,-0.34375 1.25,0 2.01562,0.29687 0.78125,0.28125 1.14063,0.73438 0.375,0.4375 0.51562,1.10937 0.0781,0.42188 0.0781,1.51563 v 2.1875 q 0,2.28125 0.10937,2.89062 0.10938,0.59375 0.40625,1.15625 h -1.70312 q -0.26563,-0.51562 -0.32813,-1.1875 z m -0.14062,-3.67187 q -0.89063,0.375 -2.67188,0.625 -1.01562,0.14062 -1.4375,0.32812 -0.42187,0.1875 -0.65625,0.53125 -0.21875,0.34375 -0.21875,0.78125 0,0.65625 0.5,1.09375 0.5,0.4375 1.45313,0.4375 0.9375,0 1.67187,-0.40625 0.75,-0.42187 1.09375,-1.14062 0.26563,-0.5625 0.26563,-1.64063 z m 4.15692,4.85937 v -13.35937 h 1.64062 v 13.35937 z m 9.375,0 v -13.35937 h 1.64062 v 7.625 l 3.89063,-3.9375 h 2.10937 l -3.6875,3.59375 4.0625,6.07812 h -2.01562 l -3.20313,-4.95312 -1.15625,1.125 v 3.82812 z m 15.95312,-3.10937 1.6875,0.20312 q -0.40625,1.48438 -1.48437,2.3125 -1.07813,0.8125 -2.76563,0.8125 -2.125,0 -3.375,-1.29687 -1.23437,-1.3125 -1.23437,-3.67188 0,-2.45312 1.25,-3.79687 1.26562,-1.34375 3.26562,-1.34375 1.9375,0 3.15625,1.32812 1.23438,1.3125 1.23438,3.70313 0,0.15625 0,0.4375 h -7.21875 q 0.0937,1.59375 0.90625,2.45312 0.8125,0.84375 2.01562,0.84375 0.90625,0 1.54688,-0.46875 0.64062,-0.48437 1.01562,-1.51562 z m -5.39062,-2.65625 h 5.40625 q -0.10938,-1.21875 -0.625,-1.82813 -0.78125,-0.95312 -2.03125,-0.95312 -1.125,0 -1.90625,0.76562 -0.76563,0.75 -0.84375,2.01563 z m 9.06323,9.48437 -0.1875,-1.53125 q 0.54687,0.14063 0.9375,0.14063 0.54687,0 0.875,-0.1875 0.32812,-0.17188 0.54687,-0.5 0.15625,-0.25 0.5,-1.21875 0.0469,-0.14063 0.14063,-0.40625 l -3.67188,-9.6875 h 1.76563 l 2.01562,5.59375 q 0.39063,1.07812 0.70313,2.25 0.28125,-1.125 0.67187,-2.20313 l 2.07813,-5.64062 h 1.64062 l -3.6875,9.82812 q -0.59375,1.60938 -0.92187,2.20313 -0.4375,0.8125 -1,1.1875 -0.5625,0.375 -1.34375,0.375 -0.48438,0 -1.0625,-0.20313 z"
       fill-rule="nonzero"
       id="path53" />
    <path
       fill="#000000"
       fill-opacity="0"
       d="m 515.63257,145 0.15747,63.68504"
       fill-rule="evenodd"
       id="path55" />
    <path
       stroke="#000000"
       stroke-width="1"
       stroke-linejoin="round"
       stroke-linecap="butt"
       d="m 515.63257,145 0.14264,57.68506"
       fill-rule="evenodd"
       id="path57" />
    <path
       fill="#000000"
       stroke="#000000"
       stroke-width="1"
       stroke-linecap="butt"
       d="m 514.1235,202.68915 1.66296,4.534 1.64051,-4.54218 z"
       fill-rule="evenodd"
       id="path59" />
    <path
       fill="#000000"
       fill-opacity="0"
       d="m 515.80475,262.6378 v 69.35434"
       fill-rule="evenodd"
       id="path61" />
    <path
       stroke="#000000"
       stroke-width="1"
       stroke-linejoin="round"
       stroke-linecap="butt"
       d="m 515.80475,262.6378 v 63.35434"
       fill-rule="evenodd"
       id="path63" />
    <path
       fill="#000000"
       stroke="#000000"
       stroke-width="1"
       stroke-linecap="butt"
       d="m 514.153,325.99213 1.65173,4.53809 1.65174,-4.53809 z"
       fill-rule="evenodd"
       id="path65" />
    <path
       fill="#000000"
       fill-opacity="0"
       d="M 488.82837,472.45447 H 379.85199"
       fill-rule="evenodd"
       id="path67" />
    <path
       stroke="#000000"
       stroke-width="1"
       stroke-linejoin="round"
       stroke-linecap="butt"
       d="M 488.82837,472.45447 H 385.85199"
       fill-rule="evenodd"
       id="path69" />
    <path
       fill="#000000"
       stroke="#000000"
       stroke-width="1"
       stroke-linecap="butt"
       d="m 385.852,470.80273 -4.53809,1.65173 4.53809,1.65174 z"
       fill-rule="evenodd"
       id="path71" />
    <path
       fill="#000000"
       fill-opacity="0"
       d="m 515.80475,499.43085 v 55.37012"
       fill-rule="evenodd"
       id="path73" />
    <path
       stroke="#000000"
       stroke-width="1"
       stroke-linejoin="round"
       stroke-linecap="butt"
       d="m 515.80475,499.43085 v 49.37012"
       fill-rule="evenodd"
       id="path75" />
    <path
       fill="#000000"
       stroke="#000000"
       stroke-width="1"
       stroke-linecap="butt"
       d="m 514.153,548.80096 1.65173,4.53809 1.65174,-4.53809 z"
       fill-rule="evenodd"
       id="path77" />
    <path
       fill="#000000"
       fill-opacity="0"
       d="m 515.80475,622.9869 v 55.40155"
       fill-rule="evenodd"
       id="path79" />
    <path
       stroke="#000000"
       stroke-width="1"
       stroke-linejoin="round"
       stroke-linecap="butt"
       d="m 515.80475,622.9869 v 49.40155"
       fill-rule="evenodd"
       id="path81" />
    <path
       fill="#000000"
       stroke="#000000"
       stroke-width="1"
       stroke-linecap="butt"
       d="m 514.153,672.3884 1.65173,4.53815 1.65174,-4.53815 z"
       fill-rule="evenodd"
       id="path83" />
    <path
       fill="#000000"
       fill-opacity="0"
       d="m 542.7654,235.66667 v 0.51495 h 185.29681 v 476.3039 H 610.48195"
       fill-rule="evenodd"
       id="path85" />
    <path
       stroke="#000000"
       stroke-width="1"
       stroke-linejoin="round"
       stroke-linecap="butt"
       d="m 542.7654,235.66667 v 0.51497 h 185.29681 v 476.3039 H 616.48195"
       fill-rule="evenodd"
       id="path87" />
    <path
       fill="#000000"
       stroke="#000000"
       stroke-width="1"
       stroke-linecap="butt"
       d="m 616.48193,710.83386 -4.53815,1.65167 4.53815,1.65174 z"
       fill-rule="evenodd"
       id="path89" />
    <path
       fill="#000000"
       fill-opacity="0"
       d="m 536.29395,196.89502 h 58.01575 v 38.77165 h -58.01575 z"
       fill-rule="evenodd"
       id="path91" />
    <path
       fill="#000000"
       d="m 549.7627,221.25502 v -4.85938 l -4.42188,-6.59375 h 1.84375 l 2.26563,3.45313 q 0.625,0.96875 1.15625,1.9375 0.51562,-0.90625 1.25,-2.03125 l 2.21875,-3.35938 h 1.76562 l -4.5625,6.59375 v 4.85938 z m 7.46875,0 v -11.45313 h 8.28125 v 1.34375 h -6.76563 v 3.51563 h 6.34375 v 1.34375 h -6.34375 v 3.89062 h 7.03125 v 1.35938 z m 10.125,-3.6875 1.4375,-0.125 q 0.0937,0.85937 0.46875,1.42187 0.375,0.54688 1.15625,0.89063 0.78125,0.32812 1.75,0.32812 0.875,0 1.53125,-0.25 0.67187,-0.26562 0.98437,-0.70312 0.32813,-0.45313 0.32813,-0.98438 0,-0.54687 -0.3125,-0.9375 -0.3125,-0.40625 -1.03125,-0.6875 -0.45313,-0.17187 -2.03125,-0.54687 -1.57813,-0.39063 -2.21875,-0.71875 -0.8125,-0.4375 -1.21875,-1.0625 -0.40625,-0.64063 -0.40625,-1.4375 0,-0.85938 0.48437,-1.60938 0.5,-0.76562 1.4375,-1.15625 0.95313,-0.39062 2.10938,-0.39062 1.28125,0 2.25,0.42187 0.96875,0.40625 1.48437,1.20313 0.53125,0.79687 0.57813,1.79687 l -1.45313,0.10938 q -0.125,-1.07813 -0.79687,-1.625 -0.67188,-0.5625 -2,-0.5625 -1.375,0 -2,0.5 -0.625,0.5 -0.625,1.21875 0,0.60937 0.4375,1.01562 0.4375,0.39063 2.28125,0.8125 1.85937,0.42188 2.54687,0.73438 1,0.45312 1.46875,1.17187 0.48438,0.70313 0.48438,1.625 0,0.90625 -0.53125,1.71875 -0.51563,0.8125 -1.5,1.26563 -0.98438,0.45312 -2.20313,0.45312 -1.5625,0 -2.60937,-0.45312 -1.04688,-0.46875 -1.65625,-1.375 -0.59375,-0.90625 -0.625,-2.0625 z"
       fill-rule="nonzero"
       id="path93" />
    <path
       fill="#000000"
       fill-opacity="0"
       d="m 513.6168,507.07874 h 58.01575 v 38.77167 H 513.6168 Z"
       fill-rule="evenodd"
       id="path95" />
    <path
       fill="#000000"
       d="m 527.0856,531.4387 v -4.85937 l -4.42188,-6.59375 h 1.84375 l 2.26563,3.45312 q 0.625,0.96875 1.15625,1.9375 0.51562,-0.90625 1.25,-2.03125 l 2.21875,-3.35937 h 1.76562 l -4.5625,6.59375 v 4.85937 z m 7.46875,0 v -11.45312 h 8.28125 v 1.34375 h -6.76563 v 3.51562 h 6.34375 v 1.34375 h -6.34375 v 3.89063 h 7.03125 v 1.35937 z m 10.125,-3.6875 1.4375,-0.125 q 0.0937,0.85938 0.46875,1.42188 0.375,0.54687 1.15625,0.89062 0.78125,0.32813 1.75,0.32813 0.875,0 1.53125,-0.25 0.67187,-0.26563 0.98437,-0.70313 0.32813,-0.45312 0.32813,-0.98437 0,-0.54688 -0.3125,-0.9375 -0.3125,-0.40625 -1.03125,-0.6875 -0.45313,-0.17188 -2.03125,-0.54688 -1.57813,-0.39062 -2.21875,-0.71875 -0.8125,-0.4375 -1.21875,-1.0625 -0.40625,-0.64062 -0.40625,-1.4375 0,-0.85937 0.48437,-1.60937 0.5,-0.76563 1.4375,-1.15625 0.95313,-0.39063 2.10938,-0.39063 1.28125,0 2.25,0.42188 0.96875,0.40625 1.48437,1.20312 0.53125,0.79688 0.57813,1.79688 l -1.45313,0.10937 q -0.125,-1.07812 -0.79687,-1.625 -0.67188,-0.5625 -2,-0.5625 -1.375,0 -2,0.5 -0.625,0.5 -0.625,1.21875 0,0.60938 0.4375,1.01563 0.4375,0.39062 2.28125,0.8125 1.85937,0.42187 2.54687,0.73437 1,0.45313 1.46875,1.17188 0.48438,0.70312 0.48438,1.625 0,0.90625 -0.53125,1.71875 -0.51563,0.8125 -1.5,1.26562 -0.98438,0.45313 -2.20313,0.45313 -1.5625,0 -2.60937,-0.45313 -1.04688,-0.46875 -1.65625,-1.375 -0.59375,-0.90625 -0.625,-2.0625 z"
       fill-rule="nonzero"
       id="path97" />
    <path
       fill="#000000"
       fill-opacity="0"
       d="m 519.28345,278.23096 h 58.01575 v 38.77167 h -58.01575 z"
       fill-rule="evenodd"
       id="path99" />
    <path
       fill="#000000"
       d="m 529.5022,302.59097 v -11.45312 h 1.5625 l 6.01563,8.98437 v -8.98437 h 1.45312 v 11.45312 h -1.5625 l -6.01562,-9 v 9 z m 11.11719,-5.57812 q 0,-2.85938 1.53125,-4.46875 1.53125,-1.60938 3.95312,-1.60938 1.57813,0 2.84375,0.76563 1.28125,0.75 1.95313,2.10937 0.67187,1.34375 0.67187,3.0625 0,1.75 -0.70312,3.125 -0.70313,1.375 -2,2.09375 -1.28125,0.70313 -2.78125,0.70313 -1.60938,0 -2.89063,-0.78125 -1.26562,-0.79688 -1.92187,-2.14063 -0.65625,-1.35937 -0.65625,-2.85937 z m 1.5625,0.0156 q 0,2.07813 1.10937,3.26563 1.10938,1.1875 2.79688,1.1875 1.70312,0 2.8125,-1.20313 1.10937,-1.20312 1.10937,-3.40625 0,-1.40625 -0.48437,-2.4375 -0.46875,-1.04687 -1.375,-1.625 -0.90625,-0.57812 -2.04688,-0.57812 -1.60937,0 -2.76562,1.10937 -1.15625,1.10938 -1.15625,3.6875 z"
       fill-rule="nonzero"
       id="path101" />
    <path
       fill="#000000"
       fill-opacity="0"
       d="m 448.20734,435.45013 h 58.01575 v 38.77164 h -58.01575 z"
       fill-rule="evenodd"
       id="path103" />
    <path
       fill="#000000"
       d="m 458.4261,459.81012 v -11.45313 h 1.5625 l 6.01563,8.98438 v -8.98438 h 1.45312 v 11.45313 h -1.5625 l -6.01562,-9 v 9 z m 11.11719,-5.57813 q 0,-2.85937 1.53125,-4.46875 1.53125,-1.60937 3.95312,-1.60937 1.57813,0 2.84375,0.76562 1.28125,0.75 1.95313,2.10938 0.67187,1.34375 0.67187,3.0625 0,1.75 -0.70312,3.125 -0.70313,1.375 -2,2.09375 -1.28125,0.70312 -2.78125,0.70312 -1.60938,0 -2.89063,-0.78125 -1.26562,-0.79687 -1.92187,-2.14062 -0.65625,-1.35938 -0.65625,-2.85938 z m 1.5625,0.0156 q 0,2.07812 1.10937,3.26562 1.10938,1.1875 2.79688,1.1875 1.70312,0 2.8125,-1.20312 1.10937,-1.20313 1.10937,-3.40625 0,-1.40625 -0.48437,-2.4375 -0.46875,-1.04688 -1.375,-1.625 -0.90625,-0.57813 -2.04688,-0.57813 -1.60937,0 -2.76562,1.10938 -1.15625,1.10937 -1.15625,3.6875 z"
       fill-rule="nonzero"
       id="path105" />
    <path
       fill="#cfe2f3"
       d="m 421.12756,343.36768 v 0 c 0,-6.27673 5.08832,-11.36505 11.36508,-11.36505 h 166.62418 c 3.01422,0 5.90497,1.19739 8.03632,3.32873 2.13141,2.13138 3.32879,5.02213 3.32879,8.03632 v 45.45886 c 0,6.27677 -5.08831,11.36505 -11.36511,11.36505 H 432.49264 c -6.27676,0 -11.36508,-5.08828 -11.36508,-11.36505 z"
       fill-rule="evenodd"
       id="path107" />
    <path
       stroke="#000000"
       stroke-width="1"
       stroke-linejoin="round"
       stroke-linecap="butt"
       d="m 421.12756,343.36768 v 0 c 0,-6.27673 5.08832,-11.36505 11.36508,-11.36505 h 166.62418 c 3.01422,0 5.90497,1.19739 8.03632,3.32873 2.13141,2.13138 3.32879,5.02213 3.32879,8.03632 v 45.45886 c 0,6.27677 -5.08831,11.36505 -11.36511,11.36505 H 432.49264 c -6.27676,0 -11.36508,-5.08828 -11.36508,-11.36505 z"
       fill-rule="evenodd"
       id="path109" />
    <path
       fill="#000000"
       d="m 450.90625,362.01712 v -13.35938 h 5.92187 q 1.78125,0 2.70313,0.35938 0.9375,0.35937 1.48437,1.28125 0.5625,0.90625 0.5625,2.01562 0,1.40625 -0.92187,2.39063 -0.92188,0.96875 -2.84375,1.23437 0.70312,0.34375 1.07812,0.67188 0.76563,0.70312 1.45313,1.76562 l 2.32812,3.64063 h -2.21875 l -1.76562,-2.78125 q -0.78125,-1.20313 -1.28125,-1.82813 -0.5,-0.64062 -0.90625,-0.89062 -0.39063,-0.26563 -0.79688,-0.35938 -0.29687,-0.0781 -0.98437,-0.0781 h -2.04688 v 5.9375 z m 1.76562,-7.45313 h 3.79688 q 1.21875,0 1.89062,-0.25 0.6875,-0.26562 1.04688,-0.8125 0.35937,-0.54687 0.35937,-1.1875 0,-0.95312 -0.6875,-1.5625 -0.6875,-0.60937 -2.1875,-0.60937 h -4.21875 z m 18.09797,4.34375 1.6875,0.20313 q -0.40625,1.48437 -1.48438,2.3125 -1.07812,0.8125 -2.76562,0.8125 -2.125,0 -3.375,-1.29688 -1.23438,-1.3125 -1.23438,-3.67187 0,-2.45313 1.25,-3.79688 1.26563,-1.34375 3.26563,-1.34375 1.9375,0 3.15625,1.32813 1.23437,1.3125 1.23437,3.70312 0,0.15625 0,0.4375 h -7.21875 q 0.0937,1.59375 0.90625,2.45313 0.8125,0.84375 2.01563,0.84375 0.90625,0 1.54687,-0.46875 0.64063,-0.48438 1.01563,-1.51563 z m -5.39063,-2.65625 h 5.40625 q -0.10937,-1.21875 -0.625,-1.82812 -0.78125,-0.95313 -2.03125,-0.95313 -1.125,0 -1.90625,0.76563 -0.76562,0.75 -0.84375,2.01562 z m 15.29758,9.46875 v -4.73437 q -0.375,0.54687 -1.0625,0.90625 -0.6875,0.34375 -1.46875,0.34375 -1.71875,0 -2.96875,-1.375 -1.23438,-1.375 -1.23438,-3.76563 0,-1.46875 0.5,-2.625 0.51563,-1.15625 1.46875,-1.75 0.96875,-0.59375 2.10938,-0.59375 1.79687,0 2.82812,1.51563 v -1.29688 h 1.46875 v 13.375 z m -5.04688,-8.5625 q 0,1.85938 0.78125,2.79688 0.78125,0.9375 1.875,0.9375 1.04688,0 1.79688,-0.89063 0.76562,-0.89062 0.76562,-2.70312 0,-1.9375 -0.79687,-2.90625 -0.79688,-0.96875 -1.875,-0.96875 -1.0625,0 -1.8125,0.90625 -0.73438,0.90625 -0.73438,2.82812 z m 15.59448,4.85938 v -1.42188 q -1.125,1.64063 -3.0625,1.64063 -0.85937,0 -1.60937,-0.32813 -0.73438,-0.32812 -1.09375,-0.82812 -0.35938,-0.5 -0.5,-1.21875 -0.10938,-0.46875 -0.10938,-1.53125 v -5.98438 h 1.64063 v 5.35938 q 0,1.28125 0.10937,1.73437 0.15625,0.64063 0.65625,1.01563 0.5,0.375 1.23438,0.375 0.73437,0 1.375,-0.375 0.65625,-0.39063 0.92187,-1.03125 0.26563,-0.65625 0.26563,-1.89063 v -5.1875 h 1.64062 v 9.67188 z m 10.67258,-3.10938 1.6875,0.20313 q -0.40625,1.48437 -1.48437,2.3125 -1.07813,0.8125 -2.76563,0.8125 -2.125,0 -3.375,-1.29688 -1.23437,-1.3125 -1.23437,-3.67187 0,-2.45313 1.25,-3.79688 1.26562,-1.34375 3.26562,-1.34375 1.9375,0 3.15625,1.32813 1.23438,1.3125 1.23438,3.70312 0,0.15625 0,0.4375 h -7.21875 q 0.0937,1.59375 0.90625,2.45313 0.8125,0.84375 2.01562,0.84375 0.90625,0 1.54688,-0.46875 0.64062,-0.48438 1.01562,-1.51563 z m -5.39062,-2.65625 h 5.40625 q -0.10938,-1.21875 -0.625,-1.82812 -0.78125,-0.95313 -2.03125,-0.95313 -1.125,0 -1.90625,0.76563 -0.76563,0.75 -0.84375,2.01562 z m 8.4851,2.875 1.625,-0.25 q 0.125,0.96875 0.75,1.5 0.625,0.51563 1.75,0.51563 1.125,0 1.67188,-0.45313 0.54687,-0.46875 0.54687,-1.09375 0,-0.54687 -0.48437,-0.875 -0.32813,-0.21875 -1.67188,-0.54687 -1.8125,-0.46875 -2.51562,-0.79688 -0.6875,-0.32812 -1.04688,-0.90625 -0.35937,-0.59375 -0.35937,-1.3125 0,-0.64062 0.29687,-1.1875 0.29688,-0.5625 0.8125,-0.92187 0.375,-0.28125 1.03125,-0.46875 0.67188,-0.20313 1.42188,-0.20313 1.14062,0 2,0.32813 0.85937,0.32812 1.26562,0.89062 0.42188,0.5625 0.57813,1.5 l -1.60938,0.21875 q -0.10937,-0.75 -0.64062,-1.17187 -0.51563,-0.42188 -1.46875,-0.42188 -1.14063,0 -1.625,0.375 -0.46875,0.375 -0.46875,0.875 0,0.3125 0.1875,0.57813 0.20312,0.26562 0.64062,0.4375 0.23438,0.0937 1.4375,0.42187 1.75,0.45313 2.4375,0.75 0.6875,0.29688 1.07813,0.85938 0.39062,0.5625 0.39062,1.40625 0,0.82812 -0.48437,1.54687 -0.46875,0.71875 -1.375,1.125 -0.90625,0.39063 -2.04688,0.39063 -1.875,0 -2.875,-0.78125 -0.98437,-0.78125 -1.25,-2.32813 z m 13.5625,1.42188 0.23438,1.45312 q -0.6875,0.14063 -1.23438,0.14063 -0.89062,0 -1.39062,-0.28125 -0.48438,-0.28125 -0.6875,-0.73438 -0.20313,-0.46875 -0.20313,-1.9375 v -5.57812 h -1.20312 v -1.26563 h 1.20312 v -2.39062 l 1.625,-0.98438 v 3.375 h 1.65625 v 1.26563 h -1.65625 v 5.67187 q 0,0.6875 0.0781,0.89063 0.0937,0.20312 0.28125,0.32812 0.20312,0.10938 0.57812,0.10938 0.26563,0 0.71875,-0.0625 z m 6.77283,1.46875 v -9.67188 h 1.46875 v 1.46875 q 0.5625,-1.03125 1.03125,-1.35937 0.48438,-0.32813 1.0625,-0.32813 0.82813,0 1.6875,0.53125 l -0.5625,1.51563 q -0.60937,-0.35938 -1.20312,-0.35938 -0.54688,0 -0.96875,0.32813 -0.42188,0.32812 -0.60938,0.89062 -0.28125,0.875 -0.28125,1.92188 v 5.0625 z m 12.85333,-3.10938 1.6875,0.20313 q -0.40625,1.48437 -1.48437,2.3125 -1.07813,0.8125 -2.76563,0.8125 -2.125,0 -3.375,-1.29688 -1.23437,-1.3125 -1.23437,-3.67187 0,-2.45313 1.25,-3.79688 1.26562,-1.34375 3.26562,-1.34375 1.9375,0 3.15625,1.32813 1.23438,1.3125 1.23438,3.70312 0,0.15625 0,0.4375 h -7.21875 q 0.0937,1.59375 0.90625,2.45313 0.8125,0.84375 2.01562,0.84375 0.90625,0 1.54688,-0.46875 0.64062,-0.48438 1.01562,-1.51563 z m -5.39062,-2.65625 h 5.40625 q -0.10938,-1.21875 -0.625,-1.82812 -0.78125,-0.95313 -2.03125,-0.95313 -1.125,0 -1.90625,0.76563 -0.76563,0.75 -0.84375,2.01562 z m 9.14136,5.76563 v -9.67188 h 1.46875 v 1.35938 q 0.45312,-0.71875 1.20312,-1.14063 0.76563,-0.4375 1.71875,-0.4375 1.07813,0 1.76563,0.45313 0.6875,0.4375 0.96875,1.23437 1.15625,-1.6875 2.98437,-1.6875 1.45313,0 2.21875,0.79688 0.78125,0.79687 0.78125,2.45312 v 6.64063 h -1.64062 v -6.09375 q 0,-0.98438 -0.15625,-1.40625 -0.15625,-0.4375 -0.57813,-0.70313 -0.42187,-0.26562 -0.98437,-0.26562 -1.01563,0 -1.6875,0.6875 -0.67188,0.67187 -0.67188,2.15625 v 5.625 h -1.64062 v -6.28125 q 0,-1.09375 -0.40625,-1.64063 -0.40625,-0.54687 -1.3125,-0.54687 -0.6875,0 -1.28125,0.35937 -0.59375,0.35938 -0.85938,1.0625 -0.25,0.70313 -0.25,2.03125 v 5.01563 z m 14.93139,-4.84375 q 0,-2.6875 1.48438,-3.96875 1.25,-1.07813 3.04687,-1.07813 2,0 3.26563,1.3125 1.26562,1.29688 1.26562,3.60938 0,1.85937 -0.5625,2.9375 -0.5625,1.0625 -1.64062,1.65625 -1.0625,0.59375 -2.32813,0.59375 -2.03125,0 -3.28125,-1.29688 -1.25,-1.3125 -1.25,-3.76562 z m 1.6875,0 q 0,1.85937 0.79688,2.79687 0.8125,0.92188 2.04687,0.92188 1.21875,0 2.03125,-0.92188 0.8125,-0.9375 0.8125,-2.84375 0,-1.79687 -0.8125,-2.71875 -0.8125,-0.92187 -2.03125,-0.92187 -1.23437,0 -2.04687,0.92187 -0.79688,0.90625 -0.79688,2.76563 z m 12.87573,3.375 0.23438,1.45312 q -0.6875,0.14063 -1.23438,0.14063 -0.89062,0 -1.39062,-0.28125 -0.48438,-0.28125 -0.6875,-0.73438 -0.20313,-0.46875 -0.20313,-1.9375 v -5.57812 h -1.20312 v -1.26563 h 1.20312 v -2.39062 l 1.625,-0.98438 v 3.375 h 1.65625 v 1.26563 h -1.65625 v 5.67187 q 0,0.6875 0.0781,0.89063 0.0937,0.20312 0.28125,0.32812 0.20312,0.10938 0.57812,0.10938 0.26563,0 0.71875,-0.0625 z m 8.23017,-1.64063 1.6875,0.20313 q -0.40625,1.48437 -1.48438,2.3125 -1.07812,0.8125 -2.76562,0.8125 -2.125,0 -3.375,-1.29688 -1.23438,-1.3125 -1.23438,-3.67187 0,-2.45313 1.25,-3.79688 1.26563,-1.34375 3.26563,-1.34375 1.9375,0 3.15625,1.32813 1.23437,1.3125 1.23437,3.70312 0,0.15625 0,0.4375 h -7.21875 q 0.0937,1.59375 0.90625,2.45313 0.8125,0.84375 2.01563,0.84375 0.90625,0 1.54687,-0.46875 0.64063,-0.48438 1.01563,-1.51563 z m -5.39063,-2.65625 h 5.40625 q -0.10937,-1.21875 -0.625,-1.82812 -0.78125,-0.95313 -2.03125,-0.95313 -1.125,0 -1.90625,0.76563 -0.76562,0.75 -0.84375,2.01562 z"
       fill-rule="nonzero"
       id="path111" />
    <path
       fill="#000000"
       d="m 439.27133,384.01712 v -13.35938 h 1.64062 v 7.625 l 3.89063,-3.9375 h 2.10937 l -3.6875,3.59375 4.0625,6.07813 h -2.01562 l -3.20313,-4.95313 -1.15625,1.125 v 3.82813 z m 15.95312,-3.10938 1.6875,0.20313 q -0.40625,1.48437 -1.48437,2.3125 -1.07813,0.8125 -2.76563,0.8125 -2.125,0 -3.375,-1.29688 -1.23437,-1.3125 -1.23437,-3.67187 0,-2.45313 1.25,-3.79688 1.26562,-1.34375 3.26562,-1.34375 1.9375,0 3.15625,1.32813 1.23438,1.3125 1.23438,3.70312 0,0.15625 0,0.4375 h -7.21875 q 0.0937,1.59375 0.90625,2.45313 0.8125,0.84375 2.01562,0.84375 0.90625,0 1.54688,-0.46875 0.64062,-0.48438 1.01562,-1.51563 z m -5.39062,-2.65625 h 5.40625 q -0.10938,-1.21875 -0.625,-1.82812 -0.78125,-0.95313 -2.03125,-0.95313 -1.125,0 -1.90625,0.76563 -0.76563,0.75 -0.84375,2.01562 z m 9.06323,9.48438 -0.1875,-1.53125 q 0.54688,0.14062 0.9375,0.14062 0.54688,0 0.875,-0.1875 0.32813,-0.17187 0.54688,-0.5 0.15625,-0.25 0.5,-1.21875 0.0469,-0.14062 0.14062,-0.40625 l -3.67187,-9.6875 h 1.76562 l 2.01563,5.59375 q 0.39062,1.07813 0.70312,2.25 0.28125,-1.125 0.67188,-2.20312 l 2.07812,-5.64063 h 1.64063 l -3.6875,9.82813 q -0.59375,1.60937 -0.92188,2.20312 -0.4375,0.8125 -1,1.1875 -0.5625,0.375 -1.34375,0.375 -0.48437,0 -1.0625,-0.20312 z m 8.75,-6.60938 1.625,-0.25 q 0.125,0.96875 0.75,1.5 0.625,0.51563 1.75,0.51563 1.125,0 1.67188,-0.45313 0.54687,-0.46875 0.54687,-1.09375 0,-0.54687 -0.48437,-0.875 -0.32813,-0.21875 -1.67188,-0.54687 -1.8125,-0.46875 -2.51562,-0.79688 -0.6875,-0.32812 -1.04688,-0.90625 -0.35937,-0.59375 -0.35937,-1.3125 0,-0.64062 0.29687,-1.1875 0.29688,-0.5625 0.8125,-0.92187 0.375,-0.28125 1.03125,-0.46875 0.67188,-0.20313 1.42188,-0.20313 1.14062,0 2,0.32813 0.85937,0.32812 1.26562,0.89062 0.42188,0.5625 0.57813,1.5 l -1.60938,0.21875 q -0.10937,-0.75 -0.64062,-1.17187 -0.51563,-0.42188 -1.46875,-0.42188 -1.14063,0 -1.625,0.375 -0.46875,0.375 -0.46875,0.875 0,0.3125 0.1875,0.57813 0.20312,0.26562 0.64062,0.4375 0.23438,0.0937 1.4375,0.42187 1.75,0.45313 2.4375,0.75 0.6875,0.29688 1.07813,0.85938 0.39062,0.5625 0.39062,1.40625 0,0.82812 -0.48437,1.54687 -0.46875,0.71875 -1.375,1.125 -0.90625,0.39063 -2.04688,0.39063 -1.875,0 -2.875,-0.78125 -0.98437,-0.78125 -1.25,-2.32813 z m 13.5625,1.42188 0.23438,1.45312 q -0.6875,0.14063 -1.23438,0.14063 -0.89062,0 -1.39062,-0.28125 -0.48438,-0.28125 -0.6875,-0.73438 -0.20313,-0.46875 -0.20313,-1.9375 v -5.57812 h -1.20312 v -1.26563 h 1.20312 v -2.39062 l 1.625,-0.98438 v 3.375 h 1.65625 v 1.26563 h -1.65625 v 5.67187 q 0,0.6875 0.0781,0.89063 0.0937,0.20312 0.28125,0.32812 0.20312,0.10938 0.57812,0.10938 0.26563,0 0.71875,-0.0625 z m 0.99579,-3.375 q 0,-2.6875 1.48438,-3.96875 1.25,-1.07813 3.04687,-1.07813 2,0 3.26563,1.3125 1.26562,1.29688 1.26562,3.60938 0,1.85937 -0.5625,2.9375 -0.5625,1.0625 -1.64062,1.65625 -1.0625,0.59375 -2.32813,0.59375 -2.03125,0 -3.28125,-1.29688 -1.25,-1.3125 -1.25,-3.76562 z m 1.6875,0 q 0,1.85937 0.79688,2.79687 0.8125,0.92188 2.04687,0.92188 1.21875,0 2.03125,-0.92188 0.8125,-0.9375 0.8125,-2.84375 0,-1.79687 -0.8125,-2.71875 -0.8125,-0.92187 -2.03125,-0.92187 -1.23437,0 -2.04687,0.92187 -0.79688,0.90625 -0.79688,2.76563 z m 9.28198,4.84375 v -9.67188 h 1.46875 v 1.46875 q 0.5625,-1.03125 1.03125,-1.35937 0.48438,-0.32813 1.0625,-0.32813 0.82813,0 1.6875,0.53125 l -0.5625,1.51563 q -0.60937,-0.35938 -1.20312,-0.35938 -0.54688,0 -0.96875,0.32813 -0.42188,0.32812 -0.60938,0.89062 -0.28125,0.875 -0.28125,1.92188 v 5.0625 z m 12.8533,-3.10938 1.6875,0.20313 q -0.40625,1.48437 -1.48437,2.3125 -1.07813,0.8125 -2.76563,0.8125 -2.125,0 -3.375,-1.29688 -1.23437,-1.3125 -1.23437,-3.67187 0,-2.45313 1.25,-3.79688 1.26562,-1.34375 3.26562,-1.34375 1.9375,0 3.15625,1.32813 1.23438,1.3125 1.23438,3.70312 0,0.15625 0,0.4375 h -7.21875 q 0.0937,1.59375 0.90625,2.45313 0.8125,0.84375 2.01562,0.84375 0.90625,0 1.54688,-0.46875 0.64062,-0.48438 1.01562,-1.51563 z m -5.39062,-2.65625 h 5.40625 q -0.10938,-1.21875 -0.625,-1.82812 -0.78125,-0.95313 -2.03125,-0.95313 -1.125,0 -1.90625,0.76563 -0.76563,0.75 -0.84375,2.01562 z m 14.32465,9.46875 v -13.375 h 1.48437 v 1.25 q 0.53125,-0.73437 1.1875,-1.09375 0.67188,-0.375 1.625,-0.375 1.23438,0 2.17188,0.64063 0.95312,0.625 1.4375,1.79687 0.48437,1.15625 0.48437,2.54688 0,1.48437 -0.53125,2.67187 -0.53125,1.1875 -1.54687,1.82813 -1.01563,0.625 -2.14063,0.625 -0.8125,0 -1.46875,-0.34375 -0.65625,-0.34375 -1.0625,-0.875 v 4.70312 z m 1.48437,-8.48437 q 0,1.85937 0.75,2.76562 0.76563,0.89063 1.82813,0.89063 1.09375,0 1.875,-0.92188 0.78125,-0.9375 0.78125,-2.875 0,-1.84375 -0.76563,-2.76562 -0.75,-0.92188 -1.8125,-0.92188 -1.04687,0 -1.85937,0.98438 -0.79688,0.96875 -0.79688,2.84375 z m 15.20386,3.59375 q -0.92188,0.76562 -1.76563,1.09375 -0.82812,0.3125 -1.79687,0.3125 -1.59375,0 -2.45313,-0.78125 -0.85937,-0.78125 -0.85937,-1.98438 0,-0.71875 0.32812,-1.29687 0.32813,-0.59375 0.84375,-0.9375 0.53125,-0.35938 1.1875,-0.54688 0.46875,-0.125 1.45313,-0.25 1.98437,-0.23437 2.92187,-0.5625 0.0156,-0.34375 0.0156,-0.42187 0,-1 -0.46875,-1.42188 -0.625,-0.54687 -1.875,-0.54687 -1.15625,0 -1.70313,0.40625 -0.54687,0.40625 -0.8125,1.42187 l -1.60937,-0.21875 q 0.21875,-1.01562 0.71875,-1.64062 0.5,-0.64063 1.45312,-0.98438 0.95313,-0.34375 2.1875,-0.34375 1.25,0 2.01563,0.29688 0.78125,0.28125 1.14062,0.73437 0.375,0.4375 0.51563,1.10938 0.0781,0.42187 0.0781,1.51562 v 2.1875 q 0,2.28125 0.10938,2.89063 0.10937,0.59375 0.40625,1.15625 h -1.70313 q -0.26562,-0.51563 -0.32812,-1.1875 z m -0.14063,-3.67188 q -0.89062,0.375 -2.67187,0.625 -1.01563,0.14063 -1.4375,0.32813 -0.42188,0.1875 -0.65625,0.53125 -0.21875,0.34375 -0.21875,0.78125 0,0.65625 0.5,1.09375 0.5,0.4375 1.45312,0.4375 0.9375,0 1.67188,-0.40625 0.75,-0.42188 1.09375,-1.14063 0.26562,-0.5625 0.26562,-1.64062 z m 3.54755,1.96875 1.625,-0.25 q 0.125,0.96875 0.75,1.5 0.625,0.51563 1.75,0.51563 1.125,0 1.67187,-0.45313 0.54688,-0.46875 0.54688,-1.09375 0,-0.54687 -0.48438,-0.875 -0.32812,-0.21875 -1.67187,-0.54687 -1.8125,-0.46875 -2.51563,-0.79688 -0.6875,-0.32812 -1.04687,-0.90625 -0.35938,-0.59375 -0.35938,-1.3125 0,-0.64062 0.29688,-1.1875 0.29687,-0.5625 0.8125,-0.92187 0.375,-0.28125 1.03125,-0.46875 0.67187,-0.20313 1.42187,-0.20313 1.14063,0 2,0.32813 0.85938,0.32812 1.26563,0.89062 0.42187,0.5625 0.57812,1.5 l -1.60937,0.21875 q -0.10938,-0.75 -0.64063,-1.17187 -0.51562,-0.42188 -1.46875,-0.42188 -1.14062,0 -1.625,0.375 -0.46875,0.375 -0.46875,0.875 0,0.3125 0.1875,0.57813 0.20313,0.26562 0.64063,0.4375 0.23437,0.0937 1.4375,0.42187 1.75,0.45313 2.4375,0.75 0.6875,0.29688 1.07812,0.85938 0.39063,0.5625 0.39063,1.40625 0,0.82812 -0.48438,1.54687 -0.46875,0.71875 -1.375,1.125 -0.90625,0.39063 -2.04687,0.39063 -1.875,0 -2.875,-0.78125 -0.98438,-0.78125 -1.25,-2.32813 z m 9.32812,0 1.625,-0.25 q 0.125,0.96875 0.75,1.5 0.625,0.51563 1.75,0.51563 1.125,0 1.67188,-0.45313 0.54687,-0.46875 0.54687,-1.09375 0,-0.54687 -0.48437,-0.875 -0.32813,-0.21875 -1.67188,-0.54687 -1.8125,-0.46875 -2.51562,-0.79688 -0.6875,-0.32812 -1.04688,-0.90625 -0.35937,-0.59375 -0.35937,-1.3125 0,-0.64062 0.29687,-1.1875 0.29688,-0.5625 0.8125,-0.92187 0.375,-0.28125 1.03125,-0.46875 0.67188,-0.20313 1.42188,-0.20313 1.14062,0 2,0.32813 0.85937,0.32812 1.26562,0.89062 0.42188,0.5625 0.57813,1.5 l -1.60938,0.21875 q -0.10937,-0.75 -0.64062,-1.17187 -0.51563,-0.42188 -1.46875,-0.42188 -1.14063,0 -1.625,0.375 -0.46875,0.375 -0.46875,0.875 0,0.3125 0.1875,0.57813 0.20312,0.26562 0.64062,0.4375 0.23438,0.0937 1.4375,0.42187 1.75,0.45313 2.4375,0.75 0.6875,0.29688 1.07813,0.85938 0.39062,0.5625 0.39062,1.40625 0,0.82812 -0.48437,1.54687 -0.46875,0.71875 -1.375,1.125 -0.90625,0.39063 -2.04688,0.39063 -1.875,0 -2.875,-0.78125 -0.98437,-0.78125 -1.25,-2.32813 z m 11.76563,2.89063 -2.96875,-9.67188 h 1.70312 l 1.53125,5.57813 0.57813,2.07812 q 0.0469,-0.15625 0.5,-2 l 1.54687,-5.65625 h 1.6875 l 1.4375,5.60938 0.48438,1.84375 0.5625,-1.85938 1.65625,-5.59375 h 1.59375 l -3.03125,9.67188 h -1.70313 l -1.53125,-5.79688 -0.375,-1.64062 -1.95312,7.4375 z m 11.08234,-4.84375 q 0,-2.6875 1.48437,-3.96875 1.25,-1.07813 3.04688,-1.07813 2,0 3.26562,1.3125 1.26563,1.29688 1.26563,3.60938 0,1.85937 -0.5625,2.9375 -0.5625,1.0625 -1.64063,1.65625 -1.0625,0.59375 -2.32812,0.59375 -2.03125,0 -3.28125,-1.29688 -1.25,-1.3125 -1.25,-3.76562 z m 1.6875,0 q 0,1.85937 0.79687,2.79687 0.8125,0.92188 2.04688,0.92188 1.21875,0 2.03125,-0.92188 0.8125,-0.9375 0.8125,-2.84375 0,-1.79687 -0.8125,-2.71875 -0.8125,-0.92187 -2.03125,-0.92187 -1.23438,0 -2.04688,0.92187 -0.79687,0.90625 -0.79687,2.76563 z m 9.28198,4.84375 v -9.67188 h 1.46875 v 1.46875 q 0.5625,-1.03125 1.03125,-1.35937 0.48437,-0.32813 1.0625,-0.32813 0.82812,0 1.6875,0.53125 l -0.5625,1.51563 q -0.60938,-0.35938 -1.20313,-0.35938 -0.54687,0 -0.96875,0.32813 -0.42187,0.32812 -0.60937,0.89062 -0.28125,0.875 -0.28125,1.92188 v 5.0625 z m 12.49389,0 v -1.21875 q -0.90625,1.4375 -2.70312,1.4375 -1.15625,0 -2.125,-0.64063 -0.96875,-0.64062 -1.5,-1.78125 -0.53125,-1.14062 -0.53125,-2.625 0,-1.45312 0.48437,-2.625 0.48438,-1.1875 1.4375,-1.8125 0.96875,-0.625 2.17188,-0.625 0.875,0 1.54687,0.375 0.6875,0.35938 1.10938,0.95313 v -4.79688 h 1.64062 v 13.35938 z m -5.17187,-4.82813 q 0,1.85938 0.78125,2.78125 0.78125,0.92188 1.84375,0.92188 1.07812,0 1.82812,-0.875 0.75,-0.89063 0.75,-2.6875 0,-1.98438 -0.76562,-2.90625 -0.76563,-0.9375 -1.89063,-0.9375 -1.07812,0 -1.8125,0.89062 -0.73437,0.89063 -0.73437,2.8125 z"
       fill-rule="nonzero"
       id="path113" />
    <path
       fill="#000000"
       fill-opacity="0"
       d="m 515.80475,400.1916 v 45.29135"
       fill-rule="evenodd"
       id="path115" />
    <path
       stroke="#000000"
       stroke-width="1"
       stroke-linejoin="round"
       stroke-linecap="butt"
       d="m 515.80475,400.1916 v 39.29135"
       fill-rule="evenodd"
       id="path117" />
    <path
       fill="#000000"
       stroke="#000000"
       stroke-width="1"
       stroke-linecap="butt"
       d="m 514.153,439.48294 1.65173,4.53809 1.65174,-4.53809 z"
       fill-rule="evenodd"
       id="path119" />
    <path
       fill="#000000"
       fill-opacity="0"
       d="M 285.1601,506.54898 V 588.8797 H 399.99476"
       fill-rule="evenodd"
       id="path121" />
    <path
       stroke="#000000"
       stroke-width="1"
       stroke-linejoin="round"
       stroke-linecap="butt"
       d="M 285.1601,506.54898 V 588.8797 H 393.99476"
       fill-rule="evenodd"
       id="path123" />
    <path
       fill="#000000"
       stroke="#000000"
       stroke-width="1"
       stroke-linecap="butt"
       d="m 393.99475,590.53143 4.53809,-1.65173 -4.53809,-1.65174 z"
       fill-rule="evenodd"
       id="path125" />
  </g>
</svg>
