<?xml version="1.0" encoding="UTF-8" standalone="no"?>
<svg
   version="1.1"
   viewBox="0 0 686.2552 528.53937"
   fill="none"
   stroke="none"
   stroke-linecap="square"
   stroke-miterlimit="10"
   id="svg250"
   sodipodi:docname="Documentation FLE.svg"
   width="686.25525"
   height="528.53937"
   inkscape:version="1.2.2 (b0a84865, 2022-12-01)"
   xmlns:inkscape="http://www.inkscape.org/namespaces/inkscape"
   xmlns:sodipodi="http://sodipodi.sourceforge.net/DTD/sodipodi-0.dtd"
   xmlns="http://www.w3.org/2000/svg"
   xmlns:svg="http://www.w3.org/2000/svg">
  <defs
     id="defs254" />
  <sodipodi:namedview
     id="namedview252"
     pagecolor="#ffffff"
     bordercolor="#000000"
     borderopacity="0.25"
     inkscape:showpageshadow="2"
     inkscape:pageopacity="0.0"
     inkscape:pagecheckerboard="0"
     inkscape:deskcolor="#d1d1d1"
     showgrid="false"
     inkscape:lockguides="true"
     inkscape:zoom="0.9734375"
     inkscape:cx="743.75602"
     inkscape:cy="507.99358"
     inkscape:window-width="1728"
     inkscape:window-height="1231"
     inkscape:window-x="458"
     inkscape:window-y="371"
     inkscape:window-maximized="0"
     inkscape:current-layer="svg250" />
  <clipPath
     id="p.0">
    <path
       d="M 0,0 H 1280 V 960 H 0 Z"
       clip-rule="nonzero"
       id="path145" />
  </clipPath>
  <g
     clip-path="url(#p.0)"
     id="g248"
     transform="translate(-98.619582,-17.463884)">
    <path
       fill="#000000"
       fill-opacity="0"
       d="M 0,0 H 1280 V 960 H 0 Z"
       fill-rule="evenodd"
       id="path148" />
    <path
       fill="#cfe2f3"
       d="m 144.56955,86.59055 v 0 c 0,-14.243439 11.54658,-25.790028 25.79002,-25.790028 h 103.16011 v 0 c 6.83994,0 13.39975,2.717155 18.2363,7.553722 4.83658,4.836571 7.55374,11.396362 7.55374,18.236305 V 239.92389 c 0,14.24344 -11.5466,25.79001 -25.79004,25.79001 H 170.35957 c -14.24344,0 -25.79002,-11.54657 -25.79002,-25.79001 z"
       fill-rule="evenodd"
       id="path150" />
    <path
       stroke="#000000"
       stroke-width="1"
       stroke-linejoin="round"
       stroke-linecap="butt"
       d="m 144.56955,86.59055 v 0 c 0,-14.243439 11.54658,-25.790028 25.79002,-25.790028 h 103.16011 v 0 c 6.83994,0 13.39975,2.717155 18.2363,7.553722 4.83658,4.836571 7.55374,11.396362 7.55374,18.236305 V 239.92389 c 0,14.24344 -11.5466,25.79001 -25.79004,25.79001 H 170.35957 c -14.24344,0 -25.79002,-11.54657 -25.79002,-25.79001 z"
       fill-rule="evenodd"
       id="path152" />
    <path
       fill="#000000"
       d="M 194.86441,95.27416 V 81.914785 h 4.60937 q 1.54688,0 2.375,0.203125 1.14063,0.25 1.95313,0.953125 1.0625,0.890625 1.57812,2.28125 0.53125,1.390625 0.53125,3.171875 0,1.515625 -0.35937,2.703125 -0.35938,1.171875 -0.92188,1.9375 -0.54687,0.765625 -1.20312,1.21875 -0.65625,0.4375 -1.59375,0.671875 -0.9375,0.21875 -2.14063,0.21875 z m 1.76562,-1.578125 h 2.85938 q 1.3125,0 2.0625,-0.234375 0.75,-0.25 1.20312,-0.703125 0.625,-0.625 0.96875,-1.6875 0.35938,-1.0625 0.35938,-2.578125 0,-2.09375 -0.6875,-3.21875 -0.6875,-1.125 -1.67188,-1.5 -0.70312,-0.28125 -2.28125,-0.28125 h -2.8125 z m 18.1292,-1.53125 1.6875,0.203125 q -0.40625,1.484375 -1.48437,2.3125 -1.07813,0.8125 -2.76563,0.8125 -2.125,0 -3.375,-1.296875 -1.23437,-1.3125 -1.23437,-3.671875 0,-2.453125 1.25,-3.796875 1.26562,-1.34375 3.26562,-1.34375 1.9375,0 3.15625,1.328125 1.23438,1.3125 1.23438,3.703125 0,0.15625 0,0.4375 h -7.21875 q 0.0937,1.59375 0.90625,2.453125 0.8125,0.84375 2.01562,0.84375 0.90625,0 1.54688,-0.46875 0.64062,-0.484375 1.01562,-1.515625 z m -5.39062,-2.65625 h 5.40625 q -0.10938,-1.21875 -0.625,-1.828125 -0.78125,-0.953125 -2.03125,-0.953125 -1.125,0 -1.90625,0.765625 -0.76563,0.75 -0.84375,2.015625 z m 11.82884,5.765625 -3.6875,-9.671875 h 1.73437 l 2.07813,5.796875 q 0.32812,0.9375 0.625,1.9375 0.20312,-0.765625 0.60937,-1.828125 l 2.14063,-5.90625 h 1.6875 l -3.65625,9.671875 z m 6.64062,-11.46875 v -1.890625 h 1.64063 v 1.890625 z m 0,11.46875 v -9.671875 h 1.64063 v 9.671875 z m 10.45732,-3.546875 1.60938,0.21875 q -0.26563,1.65625 -1.35938,2.609375 -1.07812,0.9375 -2.67187,0.9375 -1.98438,0 -3.1875,-1.296875 -1.20313,-1.296875 -1.20313,-3.71875 0,-1.578125 0.51563,-2.75 0.51562,-1.171875 1.57812,-1.75 1.0625,-0.59375 2.3125,-0.59375 1.57813,0 2.57813,0.796875 1,0.796875 1.28125,2.265625 l -1.59375,0.234375 q -0.23438,-0.96875 -0.8125,-1.453125 -0.57813,-0.5 -1.39063,-0.5 -1.23437,0 -2.01562,0.890625 -0.78125,0.890625 -0.78125,2.8125 0,1.953125 0.75,2.84375 0.75,0.875 1.95312,0.875 0.96875,0 1.60938,-0.59375 0.65625,-0.59375 0.82812,-1.828125 z m 9.64063,0.4375 1.6875,0.203125 q -0.40625,1.484375 -1.48438,2.3125 -1.07812,0.8125 -2.76562,0.8125 -2.125,0 -3.375,-1.296875 -1.23438,-1.3125 -1.23438,-3.671875 0,-2.453125 1.25,-3.796875 1.26563,-1.34375 3.26563,-1.34375 1.9375,0 3.15625,1.328125 1.23437,1.3125 1.23437,3.703125 0,0.15625 0,0.4375 h -7.21875 q 0.0937,1.59375 0.90625,2.453125 0.8125,0.84375 2.01563,0.84375 0.90625,0 1.54687,-0.46875 0.64063,-0.484375 1.01563,-1.515625 z m -5.39063,-2.65625 h 5.40625 q -0.10937,-1.21875 -0.625,-1.828125 -0.78125,-0.953125 -2.03125,-0.953125 -1.125,0 -1.90625,0.765625 -0.76562,0.75 -0.84375,2.015625 z"
       fill-rule="nonzero"
       id="path154" />
    <path
       fill="#ffffff"
       d="m 172.04855,187.7425 h 93.80868 v 58.62758 h -93.80868 z"
       fill-rule="evenodd"
       id="path156" />
    <path
       fill="#cbcbcb"
       d="m 265.85724,187.7425 5.97086,-5.97084 v 58.62759 l -5.97086,5.97083 z"
       fill-rule="evenodd"
       id="path158" />
    <path
       fill="#ffffff"
       d="m 172.04855,187.7425 5.97084,-5.97084 h 93.8087 l -5.97086,5.97084 z"
       fill-rule="evenodd"
       id="path160" />
    <path
       fill="#000000"
       fill-opacity="0"
       d="m 172.04855,187.7425 5.97084,-5.97084 h 93.8087 v 58.62759 l -5.97086,5.97083 h -93.80868 z m 0,0 h 93.80868 l 5.97086,-5.97084 m -5.97086,5.97084 v 58.62758"
       fill-rule="evenodd"
       id="path162" />
    <path
       stroke="#000000"
       stroke-width="1"
       stroke-linejoin="round"
       stroke-linecap="butt"
       d="m 172.04855,187.7425 5.97084,-5.97084 h 93.8087 v 58.62759 l -5.97086,5.97083 h -93.80868 z m 0,0 h 93.80868 l 5.97086,-5.97084 m -5.97086,5.97084 v 58.62758"
       fill-rule="evenodd"
       id="path164" />
    <path
       fill="#000000"
       d="m 191.11212,222.13629 v -10.48438 h 1.39062 v 5.20313 l 5.20313,-5.20313 h 1.875 l -4.39063,4.25 4.59375,6.23438 h -1.82812 l -3.75,-5.3125 -1.70313,1.67187 v 3.64063 z m 14.86935,-2.45313 1.32813,0.17188 q -0.3125,1.17187 -1.17188,1.8125 -0.84375,0.64062 -2.17187,0.64062 -1.67188,0 -2.65625,-1.01562 -0.96875,-1.03125 -0.96875,-2.89063 0,-1.92187 0.98437,-2.96875 1,-1.0625 2.57813,-1.0625 1.51562,0 2.48437,1.03125 0.96875,1.03125 0.96875,2.92188 0,0.10937 -0.0156,0.34375 h -5.65625 q 0.0625,1.25 0.70312,1.92187 0.64063,0.65625 1.59375,0.65625 0.70313,0 1.20313,-0.35937 0.5,-0.375 0.79687,-1.20313 z m -4.23437,-2.07812 h 4.25 q -0.0937,-0.95313 -0.48438,-1.4375 -0.625,-0.75 -1.60937,-0.75 -0.875,0 -1.48438,0.59375 -0.60937,0.59375 -0.67187,1.59375 z m 7.11986,7.45312 -0.14063,-1.20312 q 0.42188,0.10937 0.73438,0.10937 0.4375,0 0.6875,-0.14062 0.26562,-0.14063 0.42187,-0.40625 0.125,-0.1875 0.39063,-0.95313 0.0469,-0.10937 0.125,-0.3125 l -2.89063,-7.60937 h 1.39063 l 1.57812,4.39062 q 0.3125,0.84375 0.54688,1.76563 0.23437,-0.89063 0.53125,-1.73438 l 1.625,-4.42187 h 1.29687 l -2.89062,7.71875 q -0.46875,1.25 -0.73438,1.73437 -0.34375,0.625 -0.78125,0.92188 -0.4375,0.29687 -1.0625,0.29687 -0.375,0 -0.82812,-0.15625 z m 6.875,-5.1875 1.26562,-0.20312 q 0.10938,0.76562 0.59375,1.17187 0.5,0.40625 1.375,0.40625 0.89063,0 1.3125,-0.35937 0.4375,-0.35938 0.4375,-0.84375 0,-0.4375 -0.375,-0.6875 -0.26562,-0.17188 -1.3125,-0.4375 -1.42187,-0.35938 -1.96875,-0.60938 -0.54687,-0.26562 -0.82812,-0.73437 -0.28125,-0.46875 -0.28125,-1.01563 0,-0.51562 0.21875,-0.9375 0.23437,-0.4375 0.64062,-0.73437 0.29688,-0.21875 0.8125,-0.35938 0.53125,-0.15625 1.125,-0.15625 0.89063,0 1.5625,0.26563 0.67188,0.25 1,0.6875 0.32813,0.4375 0.4375,1.17187 l -1.25,0.17188 q -0.0937,-0.57813 -0.5,-0.90625 -0.40625,-0.34375 -1.15625,-0.34375 -0.89062,0 -1.28125,0.29687 -0.375,0.29688 -0.375,0.6875 0,0.25 0.15625,0.45313 0.15625,0.20312 0.5,0.34375 0.1875,0.0781 1.14063,0.32812 1.35937,0.35938 1.89062,0.59375 0.54688,0.23438 0.85938,0.6875 0.3125,0.4375 0.3125,1.09375 0,0.64063 -0.375,1.21875 -0.375,0.5625 -1.09375,0.875 -0.70313,0.3125 -1.59375,0.3125 -1.48438,0 -2.26563,-0.60937 -0.76562,-0.625 -0.98437,-1.82813 z m 10.65625,1.10938 0.1875,1.14062 q -0.54688,0.10938 -0.98438,0.10938 -0.6875,0 -1.07812,-0.21875 -0.39063,-0.21875 -0.54688,-0.57813 -0.15625,-0.35937 -0.15625,-1.51562 v -4.375 h -0.95312 v -1 h 0.95312 v -1.89063 l 1.28125,-0.76562 v 2.65625 h 1.29688 v 1 h -1.29688 v 4.4375 q 0,0.54687 0.0625,0.71875 0.0781,0.15625 0.21875,0.25 0.15625,0.0781 0.45313,0.0781 0.20312,0 0.5625,-0.0469 z m 0.7751,-2.64063 q 0,-2.10937 1.17187,-3.125 0.98438,-0.84375 2.39063,-0.84375 1.57812,0 2.5625,1.03125 1,1.01563 1,2.82813 0,1.46875 -0.4375,2.3125 -0.4375,0.82812 -1.28125,1.29687 -0.84375,0.46875 -1.84375,0.46875 -1.59375,0 -2.57813,-1.01562 -0.98437,-1.03125 -0.98437,-2.95313 z m 1.32812,0 q 0,1.45313 0.625,2.1875 0.64063,0.71875 1.60938,0.71875 0.96875,0 1.59375,-0.71875 0.64062,-0.73437 0.64062,-2.23437 0,-1.40625 -0.64062,-2.125 -0.64063,-0.73438 -1.59375,-0.73438 -0.96875,0 -1.60938,0.71875 -0.625,0.71875 -0.625,2.1875 z m 7.29174,3.79688 v -7.59375 h 1.15625 v 1.14062 q 0.45312,-0.79687 0.82812,-1.04687 0.375,-0.26563 0.8125,-0.26563 0.65625,0 1.32813,0.40625 l -0.4375,1.20313 q -0.46875,-0.28125 -0.95313,-0.28125 -0.42187,0 -0.76562,0.25 -0.32813,0.25 -0.46875,0.70312 -0.21875,0.6875 -0.21875,1.5 v 3.98438 z m 10.09939,-2.45313 1.32813,0.17188 q -0.3125,1.17187 -1.17188,1.8125 -0.84375,0.64062 -2.17187,0.64062 -1.67188,0 -2.65625,-1.01562 -0.96875,-1.03125 -0.96875,-2.89063 0,-1.92187 0.98437,-2.96875 1,-1.0625 2.57813,-1.0625 1.51562,0 2.48437,1.03125 0.96875,1.03125 0.96875,2.92188 0,0.10937 -0.0156,0.34375 h -5.65625 q 0.0625,1.25 0.70312,1.92187 0.64063,0.65625 1.59375,0.65625 0.70313,0 1.20313,-0.35937 0.5,-0.375 0.79687,-1.20313 z m -4.23437,-2.07812 h 4.25 q -0.0937,-0.95313 -0.48438,-1.4375 -0.625,-0.75 -1.60937,-0.75 -0.875,0 -1.48438,0.59375 -0.60937,0.59375 -0.67187,1.59375 z"
       fill-rule="nonzero"
       id="path166" />
    <path
       fill="#cfe2f3"
       d="m 363.15616,86.59055 v 0 c 0,-14.243439 11.5466,-25.790028 25.79004,-25.790028 h 103.16009 v 0 c 6.83994,0 13.39975,2.717155 18.2363,7.553722 4.83661,4.836571 7.55371,11.396362 7.55371,18.236305 V 239.92389 c 0,14.24344 -11.54657,25.79001 -25.79001,25.79001 H 388.9462 c -14.24344,0 -25.79004,-11.54657 -25.79004,-25.79001 z"
       fill-rule="evenodd"
       id="path168" />
    <path
       stroke="#000000"
       stroke-width="1"
       stroke-linejoin="round"
       stroke-linecap="butt"
       d="m 363.15616,86.59055 v 0 c 0,-14.243439 11.5466,-25.790028 25.79004,-25.790028 h 103.16009 v 0 c 6.83994,0 13.39975,2.717155 18.2363,7.553722 4.83661,4.836571 7.55371,11.396362 7.55371,18.236305 V 239.92389 c 0,14.24344 -11.54657,25.79001 -25.79001,25.79001 H 388.9462 c -14.24344,0 -25.79004,-11.54657 -25.79004,-25.79001 z"
       fill-rule="evenodd"
       id="path170" />
    <path
       fill="#000000"
       d="M 413.45102,95.27416 V 81.914785 h 4.60938 q 1.54687,0 2.375,0.203125 1.14062,0.25 1.95312,0.953125 1.0625,0.890625 1.57813,2.28125 0.53125,1.390625 0.53125,3.171875 0,1.515625 -0.35938,2.703125 -0.35937,1.171875 -0.92187,1.9375 -0.54688,0.765625 -1.20313,1.21875 -0.65625,0.4375 -1.59375,0.671875 -0.9375,0.21875 -2.14062,0.21875 z m 1.76563,-1.578125 h 2.85937 q 1.3125,0 2.0625,-0.234375 0.75,-0.25 1.20313,-0.703125 0.625,-0.625 0.96875,-1.6875 0.35937,-1.0625 0.35937,-2.578125 0,-2.09375 -0.6875,-3.21875 -0.6875,-1.125 -1.67187,-1.5 -0.70313,-0.28125 -2.28125,-0.28125 h -2.8125 z m 18.12921,-1.53125 1.6875,0.203125 q -0.40625,1.484375 -1.48438,2.3125 -1.07812,0.8125 -2.76562,0.8125 -2.125,0 -3.375,-1.296875 -1.23438,-1.3125 -1.23438,-3.671875 0,-2.453125 1.25,-3.796875 1.26563,-1.34375 3.26563,-1.34375 1.9375,0 3.15625,1.328125 1.23437,1.3125 1.23437,3.703125 0,0.15625 0,0.4375 h -7.21875 q 0.0937,1.59375 0.90625,2.453125 0.8125,0.84375 2.01563,0.84375 0.90625,0 1.54687,-0.46875 0.64063,-0.484375 1.01563,-1.515625 z m -5.39063,-2.65625 h 5.40625 q -0.10937,-1.21875 -0.625,-1.828125 -0.78125,-0.953125 -2.03125,-0.953125 -1.125,0 -1.90625,0.765625 -0.76562,0.75 -0.84375,2.015625 z m 11.82883,5.765625 -3.6875,-9.671875 h 1.73437 l 2.07813,5.796875 q 0.32812,0.9375 0.625,1.9375 0.20312,-0.765625 0.60937,-1.828125 l 2.14063,-5.90625 h 1.6875 l -3.65625,9.671875 z m 6.64062,-11.46875 v -1.890625 h 1.64063 v 1.890625 z m 0,11.46875 v -9.671875 h 1.64063 v 9.671875 z m 10.45734,-3.546875 1.60937,0.21875 q -0.26562,1.65625 -1.35937,2.609375 -1.07813,0.9375 -2.67188,0.9375 -1.98437,0 -3.1875,-1.296875 -1.20312,-1.296875 -1.20312,-3.71875 0,-1.578125 0.51562,-2.75 0.51563,-1.171875 1.57813,-1.75 1.0625,-0.59375 2.3125,-0.59375 1.57812,0 2.57812,0.796875 1,0.796875 1.28125,2.265625 l -1.59375,0.234375 q -0.23437,-0.96875 -0.8125,-1.453125 -0.57812,-0.5 -1.39062,-0.5 -1.23438,0 -2.01563,0.890625 -0.78125,0.890625 -0.78125,2.8125 0,1.953125 0.75,2.84375 0.75,0.875 1.95313,0.875 0.96875,0 1.60937,-0.59375 0.65625,-0.59375 0.82813,-1.828125 z m 9.64062,0.4375 1.6875,0.203125 q -0.40625,1.484375 -1.48437,2.3125 -1.07813,0.8125 -2.76563,0.8125 -2.125,0 -3.375,-1.296875 -1.23437,-1.3125 -1.23437,-3.671875 0,-2.453125 1.25,-3.796875 1.26562,-1.34375 3.26562,-1.34375 1.9375,0 3.15625,1.328125 1.23438,1.3125 1.23438,3.703125 0,0.15625 0,0.4375 h -7.21875 q 0.0937,1.59375 0.90625,2.453125 0.8125,0.84375 2.01562,0.84375 0.90625,0 1.54688,-0.46875 0.64062,-0.484375 1.01562,-1.515625 z m -5.39062,-2.65625 h 5.40625 q -0.10938,-1.21875 -0.625,-1.828125 -0.78125,-0.953125 -2.03125,-0.953125 -1.125,0 -1.90625,0.765625 -0.76563,0.75 -0.84375,2.015625 z"
       fill-rule="nonzero"
       id="path172" />
    <path
       fill="#ffffff"
       d="m 390.63516,187.7425 h 93.80872 v 58.62758 h -93.80872 z"
       fill-rule="evenodd"
       id="path174" />
    <path
       fill="#cbcbcb"
       d="m 484.44388,187.7425 5.97082,-5.97084 v 58.62759 l -5.97082,5.97083 z"
       fill-rule="evenodd"
       id="path176" />
    <path
       fill="#ffffff"
       d="m 390.63516,187.7425 5.97086,-5.97084 h 93.80868 l -5.97082,5.97084 z"
       fill-rule="evenodd"
       id="path178" />
    <path
       fill="#000000"
       fill-opacity="0"
       d="m 390.63516,187.7425 5.97086,-5.97084 h 93.80868 v 58.62759 l -5.97082,5.97083 h -93.80872 z m 0,0 h 93.80872 l 5.97082,-5.97084 m -5.97082,5.97084 v 58.62758"
       fill-rule="evenodd"
       id="path180" />
    <path
       stroke="#000000"
       stroke-width="1"
       stroke-linejoin="round"
       stroke-linecap="butt"
       d="m 390.63516,187.7425 5.97086,-5.97084 h 93.80868 v 58.62759 l -5.97082,5.97083 h -93.80872 z m 0,0 h 93.80872 l 5.97082,-5.97084 m -5.97082,5.97084 v 58.62758"
       fill-rule="evenodd"
       id="path182" />
    <path
       fill="#000000"
       d="m 409.69873,222.13629 v -10.48438 h 1.39062 v 5.20313 l 5.20313,-5.20313 h 1.875 l -4.39063,4.25 4.59375,6.23438 h -1.82812 l -3.75,-5.3125 -1.70313,1.67187 v 3.64063 z m 14.86935,-2.45313 1.32813,0.17188 q -0.3125,1.17187 -1.17188,1.8125 -0.84375,0.64062 -2.17187,0.64062 -1.67188,0 -2.65625,-1.01562 -0.96875,-1.03125 -0.96875,-2.89063 0,-1.92187 0.98437,-2.96875 1,-1.0625 2.57813,-1.0625 1.51562,0 2.48437,1.03125 0.96875,1.03125 0.96875,2.92188 0,0.10937 -0.0156,0.34375 h -5.65625 q 0.0625,1.25 0.70312,1.92187 0.64063,0.65625 1.59375,0.65625 0.70313,0 1.20313,-0.35937 0.5,-0.375 0.79687,-1.20313 z m -4.23437,-2.07812 h 4.25 q -0.0937,-0.95313 -0.48438,-1.4375 -0.625,-0.75 -1.60937,-0.75 -0.875,0 -1.48438,0.59375 -0.60937,0.59375 -0.67187,1.59375 z m 7.11987,7.45312 -0.14062,-1.20312 q 0.42187,0.10937 0.73437,0.10937 0.4375,0 0.6875,-0.14062 0.26563,-0.14063 0.42188,-0.40625 0.125,-0.1875 0.39062,-0.95313 0.0469,-0.10937 0.125,-0.3125 l -2.89062,-7.60937 h 1.39062 l 1.57813,4.39062 q 0.3125,0.84375 0.54687,1.76563 0.23438,-0.89063 0.53125,-1.73438 l 1.625,-4.42187 h 1.29688 l -2.89063,7.71875 q -0.46875,1.25 -0.73437,1.73437 -0.34375,0.625 -0.78125,0.92188 -0.4375,0.29687 -1.0625,0.29687 -0.375,0 -0.82813,-0.15625 z m 6.875,-5.1875 1.26563,-0.20312 q 0.10937,0.76562 0.59375,1.17187 0.5,0.40625 1.375,0.40625 0.89062,0 1.3125,-0.35937 0.4375,-0.35938 0.4375,-0.84375 0,-0.4375 -0.375,-0.6875 -0.26563,-0.17188 -1.3125,-0.4375 -1.42188,-0.35938 -1.96875,-0.60938 -0.54688,-0.26562 -0.82813,-0.73437 -0.28125,-0.46875 -0.28125,-1.01563 0,-0.51562 0.21875,-0.9375 0.23438,-0.4375 0.64063,-0.73437 0.29687,-0.21875 0.8125,-0.35938 0.53125,-0.15625 1.125,-0.15625 0.89062,0 1.5625,0.26563 0.67187,0.25 1,0.6875 0.32812,0.4375 0.4375,1.17187 l -1.25,0.17188 q -0.0937,-0.57813 -0.5,-0.90625 -0.40625,-0.34375 -1.15625,-0.34375 -0.89063,0 -1.28125,0.29687 -0.375,0.29688 -0.375,0.6875 0,0.25 0.15625,0.45313 0.15625,0.20312 0.5,0.34375 0.1875,0.0781 1.14062,0.32812 1.35938,0.35938 1.89063,0.59375 0.54687,0.23438 0.85937,0.6875 0.3125,0.4375 0.3125,1.09375 0,0.64063 -0.375,1.21875 -0.375,0.5625 -1.09375,0.875 -0.70312,0.3125 -1.59375,0.3125 -1.48437,0 -2.26562,-0.60937 -0.76563,-0.625 -0.98438,-1.82813 z m 10.65625,1.10938 0.1875,1.14062 q -0.54687,0.10938 -0.98437,0.10938 -0.6875,0 -1.07813,-0.21875 -0.39062,-0.21875 -0.54687,-0.57813 -0.15625,-0.35937 -0.15625,-1.51562 v -4.375 h -0.95313 v -1 h 0.95313 v -1.89063 l 1.28125,-0.76562 v 2.65625 h 1.29687 v 1 h -1.29687 v 4.4375 q 0,0.54687 0.0625,0.71875 0.0781,0.15625 0.21875,0.25 0.15625,0.0781 0.45312,0.0781 0.20313,0 0.5625,-0.0469 z m 0.77509,-2.64063 q 0,-2.10937 1.17187,-3.125 0.98438,-0.84375 2.39063,-0.84375 1.57812,0 2.5625,1.03125 1,1.01563 1,2.82813 0,1.46875 -0.4375,2.3125 -0.4375,0.82812 -1.28125,1.29687 -0.84375,0.46875 -1.84375,0.46875 -1.59375,0 -2.57813,-1.01562 -0.98437,-1.03125 -0.98437,-2.95313 z m 1.32812,0 q 0,1.45313 0.625,2.1875 0.64063,0.71875 1.60938,0.71875 0.96875,0 1.59375,-0.71875 0.64062,-0.73437 0.64062,-2.23437 0,-1.40625 -0.64062,-2.125 -0.64063,-0.73438 -1.59375,-0.73438 -0.96875,0 -1.60938,0.71875 -0.625,0.71875 -0.625,2.1875 z m 7.29175,3.79688 v -7.59375 h 1.15625 v 1.14062 q 0.45313,-0.79687 0.82813,-1.04687 0.375,-0.26563 0.8125,-0.26563 0.65625,0 1.32812,0.40625 l -0.4375,1.20313 q -0.46875,-0.28125 -0.95312,-0.28125 -0.42188,0 -0.76563,0.25 -0.32812,0.25 -0.46875,0.70312 -0.21875,0.6875 -0.21875,1.5 v 3.98438 z m 10.0994,-2.45313 1.32812,0.17188 q -0.3125,1.17187 -1.17187,1.8125 -0.84375,0.64062 -2.17188,0.64062 -1.67187,0 -2.65625,-1.01562 -0.96875,-1.03125 -0.96875,-2.89063 0,-1.92187 0.98438,-2.96875 1,-1.0625 2.57812,-1.0625 1.51563,0 2.48438,1.03125 0.96875,1.03125 0.96875,2.92188 0,0.10937 -0.0156,0.34375 h -5.65625 q 0.0625,1.25 0.70313,1.92187 0.64062,0.65625 1.59375,0.65625 0.70312,0 1.20312,-0.35937 0.5,-0.375 0.79688,-1.20313 z m -4.23438,-2.07812 h 4.25 q -0.0937,-0.95313 -0.48437,-1.4375 -0.625,-0.75 -1.60938,-0.75 -0.875,0 -1.48437,0.59375 -0.60938,0.59375 -0.67188,1.59375 z"
       fill-rule="nonzero"
       id="path184" />
    <path
       fill="#cfe2f3"
       d="m 581.7428,86.59055 v 0 c 0,-14.243439 11.54657,-25.790028 25.79004,-25.790028 h 103.16009 v 0 c 6.83991,0 13.39972,2.717155 18.23627,7.553722 4.83661,4.836571 7.55371,11.396362 7.55371,18.236305 V 239.92389 c 0,14.24344 -11.54657,25.79001 -25.78998,25.79001 H 607.53284 c -14.24347,0 -25.79004,-11.54657 -25.79004,-25.79001 z"
       fill-rule="evenodd"
       id="path186" />
    <path
       stroke="#000000"
       stroke-width="1"
       stroke-linejoin="round"
       stroke-linecap="butt"
       d="m 581.7428,86.59055 v 0 c 0,-14.243439 11.54657,-25.790028 25.79004,-25.790028 h 103.16009 v 0 c 6.83991,0 13.39972,2.717155 18.23627,7.553722 4.83661,4.836571 7.55371,11.396362 7.55371,18.236305 V 239.92389 c 0,14.24344 -11.54657,25.79001 -25.78998,25.79001 H 607.53284 c -14.24347,0 -25.79004,-11.54657 -25.79004,-25.79001 z"
       fill-rule="evenodd"
       id="path188" />
    <path
       fill="#000000"
       d="M 632.03766,95.27416 V 81.914785 h 4.60937 q 1.54688,0 2.375,0.203125 1.14063,0.25 1.95313,0.953125 1.0625,0.890625 1.57812,2.28125 0.53125,1.390625 0.53125,3.171875 0,1.515625 -0.35937,2.703125 -0.35938,1.171875 -0.92188,1.9375 -0.54687,0.765625 -1.20312,1.21875 -0.65625,0.4375 -1.59375,0.671875 -0.9375,0.21875 -2.14063,0.21875 z m 1.76562,-1.578125 h 2.85938 q 1.3125,0 2.0625,-0.234375 0.75,-0.25 1.20312,-0.703125 0.625,-0.625 0.96875,-1.6875 0.35938,-1.0625 0.35938,-2.578125 0,-2.09375 -0.6875,-3.21875 -0.6875,-1.125 -1.67188,-1.5 -0.70312,-0.28125 -2.28125,-0.28125 h -2.8125 z m 18.12915,-1.53125 1.6875,0.203125 q -0.40625,1.484375 -1.48437,2.3125 -1.07813,0.8125 -2.76563,0.8125 -2.125,0 -3.375,-1.296875 -1.23437,-1.3125 -1.23437,-3.671875 0,-2.453125 1.25,-3.796875 1.26562,-1.34375 3.26562,-1.34375 1.9375,0 3.15625,1.328125 1.23438,1.3125 1.23438,3.703125 0,0.15625 0,0.4375 h -7.21875 q 0.0937,1.59375 0.90625,2.453125 0.8125,0.84375 2.01562,0.84375 0.90625,0 1.54688,-0.46875 0.64062,-0.484375 1.01562,-1.515625 z m -5.39062,-2.65625 h 5.40625 q -0.10938,-1.21875 -0.625,-1.828125 -0.78125,-0.953125 -2.03125,-0.953125 -1.125,0 -1.90625,0.765625 -0.76563,0.75 -0.84375,2.015625 z m 11.82886,5.765625 -3.6875,-9.671875 h 1.73437 l 2.07813,5.796875 q 0.32812,0.9375 0.625,1.9375 0.20312,-0.765625 0.60937,-1.828125 l 2.14063,-5.90625 h 1.6875 l -3.65625,9.671875 z m 6.64062,-11.46875 v -1.890625 h 1.64063 v 1.890625 z m 0,11.46875 v -9.671875 h 1.64063 v 9.671875 z m 10.45734,-3.546875 1.60937,0.21875 q -0.26562,1.65625 -1.35937,2.609375 -1.07813,0.9375 -2.67188,0.9375 -1.98437,0 -3.1875,-1.296875 -1.20312,-1.296875 -1.20312,-3.71875 0,-1.578125 0.51562,-2.75 0.51563,-1.171875 1.57813,-1.75 1.0625,-0.59375 2.3125,-0.59375 1.57812,0 2.57812,0.796875 1,0.796875 1.28125,2.265625 L 675.328,88.68041 q -0.23437,-0.96875 -0.8125,-1.453125 -0.57812,-0.5 -1.39062,-0.5 -1.23438,0 -2.01563,0.890625 -0.78125,0.890625 -0.78125,2.8125 0,1.953125 0.75,2.84375 0.75,0.875 1.95313,0.875 0.96875,0 1.60937,-0.59375 0.65625,-0.59375 0.82813,-1.828125 z m 9.64062,0.4375 1.6875,0.203125 q -0.40625,1.484375 -1.48437,2.3125 -1.07813,0.8125 -2.76563,0.8125 -2.125,0 -3.375,-1.296875 -1.23437,-1.3125 -1.23437,-3.671875 0,-2.453125 1.25,-3.796875 1.26562,-1.34375 3.26562,-1.34375 1.9375,0 3.15625,1.328125 1.23438,1.3125 1.23438,3.703125 0,0.15625 0,0.4375 h -7.21875 q 0.0937,1.59375 0.90625,2.453125 0.8125,0.84375 2.01562,0.84375 0.90625,0 1.54688,-0.46875 0.64062,-0.484375 1.01562,-1.515625 z m -5.39062,-2.65625 h 5.40625 q -0.10938,-1.21875 -0.625,-1.828125 -0.78125,-0.953125 -2.03125,-0.953125 -1.125,0 -1.90625,0.765625 -0.76563,0.75 -0.84375,2.015625 z"
       fill-rule="nonzero"
       id="path190" />
    <path
       fill="#ffffff"
       d="m 609.2218,187.7425 h 93.80866 v 58.62758 H 609.2218 Z"
       fill-rule="evenodd"
       id="path192" />
    <path
       fill="#cbcbcb"
       d="m 703.03046,187.7425 5.97089,-5.97084 v 58.62759 l -5.97089,5.97083 z"
       fill-rule="evenodd"
       id="path194" />
    <path
       fill="#ffffff"
       d="m 609.2218,187.7425 5.97083,-5.97084 h 93.80871 l -5.97088,5.97084 z"
       fill-rule="evenodd"
       id="path196" />
    <path
       fill="#000000"
       fill-opacity="0"
       d="m 609.2218,187.7425 5.97083,-5.97084 h 93.80871 v 58.62759 l -5.97088,5.97083 H 609.2218 Z m 0,0 h 93.80866 l 5.97088,-5.97084 m -5.97088,5.97084 v 58.62758"
       fill-rule="evenodd"
       id="path198" />
    <path
       stroke="#000000"
       stroke-width="1"
       stroke-linejoin="round"
       stroke-linecap="butt"
       d="m 609.2218,187.7425 5.97083,-5.97084 h 93.80871 v 58.62759 l -5.97088,5.97083 H 609.2218 Z m 0,0 h 93.80866 l 5.97088,-5.97084 m -5.97088,5.97084 v 58.62758"
       fill-rule="evenodd"
       id="path200" />
    <path
       fill="#000000"
       d="m 628.28534,222.13629 v -10.48438 h 1.39063 v 5.20313 l 5.20312,-5.20313 h 1.875 l -4.39062,4.25 4.59375,6.23438 h -1.82813 l -3.75,-5.3125 -1.70312,1.67187 v 3.64063 z m 14.86938,-2.45313 1.32813,0.17188 q -0.3125,1.17187 -1.17188,1.8125 -0.84375,0.64062 -2.17187,0.64062 -1.67188,0 -2.65625,-1.01562 -0.96875,-1.03125 -0.96875,-2.89063 0,-1.92187 0.98437,-2.96875 1,-1.0625 2.57813,-1.0625 1.51562,0 2.48437,1.03125 0.96875,1.03125 0.96875,2.92188 0,0.10937 -0.0156,0.34375 h -5.65625 q 0.0625,1.25 0.70312,1.92187 0.64063,0.65625 1.59375,0.65625 0.70313,0 1.20313,-0.35937 0.5,-0.375 0.79687,-1.20313 z m -4.23437,-2.07812 h 4.25 q -0.0937,-0.95313 -0.48438,-1.4375 -0.625,-0.75 -1.60937,-0.75 -0.875,0 -1.48438,0.59375 -0.60937,0.59375 -0.67187,1.59375 z m 7.11987,7.45312 -0.14062,-1.20312 q 0.42187,0.10937 0.73437,0.10937 0.4375,0 0.6875,-0.14062 0.26563,-0.14063 0.42188,-0.40625 0.125,-0.1875 0.39062,-0.95313 0.0469,-0.10937 0.125,-0.3125 l -2.89062,-7.60937 h 1.39062 l 1.57813,4.39062 q 0.3125,0.84375 0.54687,1.76563 0.23438,-0.89063 0.53125,-1.73438 l 1.625,-4.42187 h 1.29688 l -2.89063,7.71875 q -0.46875,1.25 -0.73437,1.73437 -0.34375,0.625 -0.78125,0.92188 -0.4375,0.29687 -1.0625,0.29687 -0.375,0 -0.82813,-0.15625 z m 6.875,-5.1875 1.26563,-0.20312 q 0.10937,0.76562 0.59375,1.17187 0.5,0.40625 1.375,0.40625 0.89062,0 1.3125,-0.35937 0.4375,-0.35938 0.4375,-0.84375 0,-0.4375 -0.375,-0.6875 -0.26563,-0.17188 -1.3125,-0.4375 -1.42188,-0.35938 -1.96875,-0.60938 -0.54688,-0.26562 -0.82813,-0.73437 -0.28125,-0.46875 -0.28125,-1.01563 0,-0.51562 0.21875,-0.9375 0.23438,-0.4375 0.64063,-0.73437 0.29687,-0.21875 0.8125,-0.35938 0.53125,-0.15625 1.125,-0.15625 0.89062,0 1.5625,0.26563 0.67187,0.25 1,0.6875 0.32812,0.4375 0.4375,1.17187 l -1.25,0.17188 q -0.0937,-0.57813 -0.5,-0.90625 -0.40625,-0.34375 -1.15625,-0.34375 -0.89063,0 -1.28125,0.29687 -0.375,0.29688 -0.375,0.6875 0,0.25 0.15625,0.45313 0.15625,0.20312 0.5,0.34375 0.1875,0.0781 1.14062,0.32812 1.35938,0.35938 1.89063,0.59375 0.54687,0.23438 0.85937,0.6875 0.3125,0.4375 0.3125,1.09375 0,0.64063 -0.375,1.21875 -0.375,0.5625 -1.09375,0.875 -0.70312,0.3125 -1.59375,0.3125 -1.48437,0 -2.26562,-0.60937 -0.76563,-0.625 -0.98438,-1.82813 z m 10.65625,1.10938 0.1875,1.14062 q -0.54687,0.10938 -0.98437,0.10938 -0.6875,0 -1.07813,-0.21875 -0.39062,-0.21875 -0.54687,-0.57813 -0.15625,-0.35937 -0.15625,-1.51562 v -4.375 h -0.95313 v -1 h 0.95313 v -1.89063 l 1.28125,-0.76562 v 2.65625 h 1.29687 v 1 h -1.29687 v 4.4375 q 0,0.54687 0.0625,0.71875 0.0781,0.15625 0.21875,0.25 0.15625,0.0781 0.45312,0.0781 0.20313,0 0.5625,-0.0469 z m 0.77509,-2.64063 q 0,-2.10937 1.17187,-3.125 0.98438,-0.84375 2.39063,-0.84375 1.57812,0 2.5625,1.03125 1,1.01563 1,2.82813 0,1.46875 -0.4375,2.3125 -0.4375,0.82812 -1.28125,1.29687 -0.84375,0.46875 -1.84375,0.46875 -1.59375,0 -2.57813,-1.01562 -0.98437,-1.03125 -0.98437,-2.95313 z m 1.32812,0 q 0,1.45313 0.625,2.1875 0.64063,0.71875 1.60938,0.71875 0.96875,0 1.59375,-0.71875 0.64062,-0.73437 0.64062,-2.23437 0,-1.40625 -0.64062,-2.125 -0.64063,-0.73438 -1.59375,-0.73438 -0.96875,0 -1.60938,0.71875 -0.625,0.71875 -0.625,2.1875 z m 7.29175,3.79688 v -7.59375 h 1.15619 v 1.14062 q 0.45313,-0.79687 0.82813,-1.04687 0.375,-0.26563 0.8125,-0.26563 0.65625,0 1.32812,0.40625 l -0.4375,1.20313 q -0.46875,-0.28125 -0.95312,-0.28125 -0.42188,0 -0.76563,0.25 -0.32812,0.25 -0.46875,0.70312 -0.21875,0.6875 -0.21875,1.5 v 3.98438 z m 10.09937,-2.45313 1.32812,0.17188 q -0.3125,1.17187 -1.17187,1.8125 -0.84375,0.64062 -2.17188,0.64062 -1.67187,0 -2.65625,-1.01562 -0.96875,-1.03125 -0.96875,-2.89063 0,-1.92187 0.98438,-2.96875 1,-1.0625 2.57812,-1.0625 1.51563,0 2.48438,1.03125 0.96875,1.03125 0.96875,2.92188 0,0.10937 -0.0156,0.34375 h -5.65625 q 0.0625,1.25 0.70313,1.92187 0.64062,0.65625 1.59375,0.65625 0.70312,0 1.20312,-0.35937 0.5,-0.375 0.79688,-1.20313 z m -4.23438,-2.07812 h 4.25 q -0.0937,-0.95313 -0.48437,-1.4375 -0.625,-0.75 -1.60938,-0.75 -0.875,0 -1.48437,0.59375 -0.60938,0.59375 -0.67188,1.59375 z"
       fill-rule="nonzero"
       id="path202" />
    <path
       fill="#b6d7a8"
       d="m 293.17712,387.73166 v 0 c -2.74554,-14.04227 6.26862,-27.94327 23.21741,-35.80429 16.94882,-7.86099 38.85983,-8.30341 56.43542,-1.13943 v 0 c 6.2258,-8.16474 17.62082,-13.80195 30.73831,-15.20646 13.1175,-1.40451 26.41675,1.58866 35.87497,8.0741 v 0 c 5.30359,-7.40268 15.71729,-12.37634 27.54575,-13.15607 11.82846,-0.77972 23.39768,2.74485 30.6023,9.32303 v 0 c 9.58169,-7.84683 24.82644,-11.15069 39.13766,-8.48193 14.31128,2.66873 25.11865,10.83072 27.74579,20.95422 v 0 c 11.7392,2.22855 21.5177,7.89377 26.80908,15.53199 5.29132,7.63821 5.57648,16.50012 0.78174,24.29608 v 0 c 11.55969,10.47082 14.26379,24.42306 7.10321,36.65002 -7.16064,12.22693 -23.11017,20.8916 -41.89655,22.76053 -0.13238,11.4754 -9.17517,22.00513 -23.64282,27.53052 -14.46765,5.52539 -32.10101,5.18362 -46.10339,-0.89353 v 0 c -5.9643,13.74381 -22.75174,23.85639 -43.10956,25.96869 -20.35782,2.11231 -40.63648,-4.15429 -52.07483,-16.0924 v 0 c -14.02106,5.88433 -30.84512,7.57943 -46.6771,4.70291 -15.83194,-2.87656 -29.33813,-10.0824 -37.47189,-19.99207 v 0 c -14.32773,1.16687 -28.18066,-3.99945 -34.68365,-12.93496 -6.50299,-8.93555 -4.27167,-19.7381 5.58651,-27.04642 v 0 c -12.7807,-5.23532 -19.30218,-15.62396 -16.16375,-25.74863 3.13842,-10.12469 15.22561,-17.6911 29.95855,-18.75369 z"
       fill-rule="evenodd"
       id="path204" />
    <path
       fill="#000000"
       fill-opacity="0"
       d="m 279.09912,432.77518 v 0 c 6.03125,2.47058 12.99878,3.59128 19.96704,3.21167 m 9.12695,36.7706 c 2.99662,-0.24405 5.93387,-0.76086 8.736,-1.53711 m 75.40878,16.82565 c -2.10764,-2.1997 -3.87223,-4.55029 -5.26377,-7.01168 m 100.45181,-2.86503 v 0 c 1.08737,-2.5057 1.7919,-5.08459 2.10181,-7.69369 m 67.64178,-18.94235 c 0.141,-12.21735 -9.82959,-23.40369 -25.62902,-28.75415 M 592.06249,392.124 c -2.55865,4.16025 -6.46472,7.85074 -11.41198,10.7821 m -16.17646,-50.61126 v 0 c 0.43598,1.67999 0.63776,3.38525 0.60248,5.09213 m -67.48477,-17.56394 v 0 c -2.39014,1.9574 -4.35931,4.14478 -5.84619,6.49399 m -52.30237,-2.66177 v 0 c -1.27374,1.77789 -2.22491,3.65921 -2.83154,5.60058 m -63.78275,1.53193 v 0 c 3.71897,1.5159 7.15955,3.34042 10.2461,5.43353 m -89.89789,31.51037 v 0 c 0.37838,1.9354 0.97628,3.84693 1.78808,5.71671"
       fill-rule="evenodd"
       id="path206" />
    <path
       stroke="#000000"
       stroke-width="1"
       stroke-linejoin="round"
       stroke-linecap="butt"
       d="m 293.17712,387.73166 v 0 c -2.74554,-14.04227 6.26862,-27.94327 23.21741,-35.80429 16.94882,-7.86099 38.85983,-8.30341 56.43542,-1.13943 v 0 c 6.2258,-8.16474 17.62082,-13.80195 30.73831,-15.20646 13.1175,-1.40451 26.41675,1.58866 35.87497,8.0741 v 0 c 5.30359,-7.40268 15.71729,-12.37634 27.54575,-13.15607 11.82846,-0.77972 23.39768,2.74485 30.6023,9.32303 v 0 c 9.58169,-7.84683 24.82644,-11.15069 39.13766,-8.48193 14.31128,2.66873 25.11865,10.83072 27.74579,20.95422 v 0 c 11.7392,2.22855 21.5177,7.89377 26.80908,15.53199 5.29132,7.63821 5.57648,16.50012 0.78174,24.29608 v 0 c 11.55969,10.47082 14.26379,24.42306 7.10321,36.65002 -7.16064,12.22693 -23.11017,20.8916 -41.89655,22.76053 -0.13238,11.4754 -9.17517,22.00513 -23.64282,27.53052 -14.46765,5.52539 -32.10101,5.18362 -46.10339,-0.89353 v 0 c -5.9643,13.74381 -22.75174,23.85639 -43.10956,25.96869 -20.35782,2.11231 -40.63648,-4.15429 -52.07483,-16.0924 v 0 c -14.02106,5.88433 -30.84512,7.57943 -46.6771,4.70291 -15.83194,-2.87656 -29.33813,-10.0824 -37.47189,-19.99207 v 0 c -14.32773,1.16687 -28.18066,-3.99945 -34.68365,-12.93496 -6.50299,-8.93555 -4.27167,-19.7381 5.58651,-27.04642 v 0 c -12.7807,-5.23532 -19.30218,-15.62396 -16.16375,-25.74863 3.13842,-10.12469 15.22561,-17.6911 29.95855,-18.75369 z"
       fill-rule="evenodd"
       id="path208" />
    <path
       stroke="#000000"
       stroke-width="1"
       stroke-linejoin="round"
       stroke-linecap="butt"
       d="m 279.09912,432.77518 v 0 c 6.03125,2.47058 12.99878,3.59128 19.96704,3.21167 m 9.12695,36.7706 c 2.99662,-0.24405 5.93387,-0.76086 8.736,-1.53711 m 75.40878,16.82565 c -2.10764,-2.1997 -3.87223,-4.55029 -5.26377,-7.01168 m 100.45181,-2.86503 v 0 c 1.08737,-2.5057 1.7919,-5.08459 2.10181,-7.69369 m 67.64178,-18.94235 c 0.141,-12.21735 -9.82959,-23.40369 -25.62902,-28.75415 M 592.06249,392.124 c -2.55865,4.16025 -6.46472,7.85074 -11.41198,10.7821 m -16.17646,-50.61126 v 0 c 0.43598,1.67999 0.63776,3.38525 0.60248,5.09213 m -67.48477,-17.56394 v 0 c -2.39014,1.9574 -4.35931,4.14478 -5.84619,6.49399 m -52.30237,-2.66177 v 0 c -1.27374,1.77789 -2.22491,3.65921 -2.83154,5.60058 m -63.78275,1.53193 v 0 c 3.71897,1.5159 7.15955,3.34042 10.2461,5.43353 m -89.89789,31.51037 v 0 c 0.37838,1.9354 0.97628,3.84693 1.78808,5.71671"
       fill-rule="evenodd"
       id="path210" />
    <path
       fill="#ffffff"
       d="M 345.8924,407.54318 H 505.68778 V 440 H 345.8924 Z"
       fill-rule="evenodd"
       id="path212" />
    <path
       fill="#cbcbcb"
       d="m 505.68777,407.54318 13.81088,-13.81091 v 32.45681 L 505.68777,440 Z"
       fill-rule="evenodd"
       id="path214" />
    <path
       fill="#ffffff"
       d="m 345.8924,407.54318 13.81091,-13.81091 h 159.79535 l -13.81088,13.81091 z"
       fill-rule="evenodd"
       id="path216" />
    <path
       fill="#000000"
       fill-opacity="0"
       d="m 345.8924,407.54318 13.81091,-13.81091 h 159.79535 v 32.45681 L 505.68778,440 H 345.8924 Z m 0,0 h 159.79538 l 13.81088,-13.81091 m -13.81088,13.81091 V 440"
       fill-rule="evenodd"
       id="path218" />
    <path
       stroke="#000000"
       stroke-width="1"
       stroke-linejoin="round"
       stroke-linecap="butt"
       d="m 345.8924,407.54318 13.81091,-13.81091 h 159.79535 v 32.45681 L 505.68778,440 H 345.8924 Z m 0,0 h 159.79538 l 13.81088,-13.81091 m -13.81088,13.81091 V 440"
       fill-rule="evenodd"
       id="path220" />
    <path
       fill="#000000"
       d="m 373.08484,425.4766 1.3125,-0.10937 q 0.0937,0.78125 0.42187,1.29687 0.34375,0.5 1.0625,0.8125 0.71875,0.3125 1.60938,0.3125 0.79687,0 1.40625,-0.23437 0.60937,-0.23438 0.90625,-0.64063 0.29687,-0.42187 0.29687,-0.90625 0,-0.5 -0.29687,-0.85937 -0.28125,-0.375 -0.9375,-0.625 -0.42188,-0.17188 -1.875,-0.51563 -1.4375,-0.34375 -2.01563,-0.65625 -0.75,-0.39062 -1.125,-0.96875 -0.35937,-0.59375 -0.35937,-1.3125 0,-0.79687 0.4375,-1.48437 0.45312,-0.6875 1.3125,-1.04688 0.875,-0.35937 1.9375,-0.35937 1.17187,0 2.0625,0.375 0.89062,0.375 1.35937,1.10937 0.48438,0.73438 0.51563,1.65625 l -1.32813,0.0937 q -0.10937,-1 -0.73437,-1.5 -0.60938,-0.51562 -1.8125,-0.51562 -1.26563,0 -1.84375,0.46875 -0.57813,0.46875 -0.57813,1.10937 0,0.5625 0.42188,0.9375 0.39062,0.35938 2.07812,0.75 1.70313,0.375 2.32813,0.65625 0.92187,0.42188 1.35937,1.07813 0.4375,0.64062 0.4375,1.48437 0,0.84375 -0.48437,1.59375 -0.48438,0.73438 -1.39063,1.14063 -0.89062,0.40625 -2.01562,0.40625 -1.42188,0 -2.39063,-0.40625 -0.95312,-0.42188 -1.5,-1.25 -0.54687,-0.82813 -0.57812,-1.89063 z m 10.0881,3.375 v -10.48437 h 1.28125 v 3.75 q 0.90625,-1.03125 2.28125,-1.03125 0.84375,0 1.46875,0.32812 0.625,0.32813 0.89063,0.92188 0.26562,0.57812 0.26562,1.70312 v 4.8125 h -1.28125 v -4.8125 q 0,-0.96875 -0.42187,-1.40625 -0.42188,-0.4375 -1.1875,-0.4375 -0.57813,0 -1.07813,0.29688 -0.5,0.29687 -0.71875,0.8125 -0.21875,0.5 -0.21875,1.39062 v 4.15625 z m 13.10425,-0.9375 q -0.71875,0.60938 -1.375,0.85938 -0.65625,0.25 -1.42187,0.25 -1.25,0 -1.92188,-0.60938 -0.67187,-0.60937 -0.67187,-1.5625 0,-0.5625 0.25,-1.01562 0.25,-0.46875 0.65625,-0.75 0.42187,-0.28125 0.9375,-0.42188 0.375,-0.0937 1.14062,-0.1875 1.5625,-0.1875 2.29688,-0.45312 0.0156,-0.26563 0.0156,-0.32813 0,-0.79687 -0.375,-1.10937 -0.48437,-0.4375 -1.45312,-0.4375 -0.92188,0 -1.35938,0.32812 -0.42187,0.3125 -0.625,1.10938 l -1.26562,-0.17188 q 0.17187,-0.79687 0.5625,-1.29687 0.39062,-0.5 1.14062,-0.76563 0.75,-0.26562 1.71875,-0.26562 0.98438,0 1.59375,0.23437 0.60938,0.21875 0.89063,0.5625 0.28125,0.34375 0.40625,0.875 0.0625,0.32813 0.0625,1.1875 v 1.71875 q 0,1.79688 0.0781,2.28125 0.0781,0.46875 0.32813,0.90625 h -1.34375 q -0.20313,-0.40625 -0.26563,-0.9375 z m -0.10937,-2.875 q -0.70313,0.28125 -2.09375,0.48438 -0.79688,0.10937 -1.125,0.26562 -0.32813,0.14063 -0.51563,0.42188 -0.17187,0.26562 -0.17187,0.59375 0,0.51562 0.39062,0.85937 0.39063,0.34375 1.14063,0.34375 0.73437,0 1.3125,-0.3125 0.59375,-0.32812 0.85937,-0.89062 0.20313,-0.4375 0.20313,-1.29688 z m 3.29171,3.8125 v -7.59375 h 1.15625 v 1.14063 q 0.45313,-0.79688 0.82813,-1.04688 0.375,-0.26562 0.8125,-0.26562 0.65625,0 1.32812,0.40625 l -0.4375,1.20312 q -0.46875,-0.28125 -0.95312,-0.28125 -0.42188,0 -0.76563,0.25 -0.32812,0.25 -0.46875,0.70313 -0.21875,0.6875 -0.21875,1.5 v 3.98437 z m 10.0994,-2.45312 1.32813,0.17187 q -0.3125,1.17188 -1.17188,1.8125 -0.84375,0.64063 -2.17187,0.64063 -1.67188,0 -2.65625,-1.01563 -0.96875,-1.03125 -0.96875,-2.89062 0,-1.92188 0.98437,-2.96875 1,-1.0625 2.57813,-1.0625 1.51562,0 2.48437,1.03125 0.96875,1.03125 0.96875,2.92187 0,0.10938 -0.0156,0.34375 h -5.65625 q 0.0625,1.25 0.70312,1.92188 0.64063,0.65625 1.59375,0.65625 0.70313,0 1.20313,-0.35938 0.5,-0.375 0.79687,-1.20312 z m -4.23437,-2.07813 h 4.25 q -0.0937,-0.95312 -0.48438,-1.4375 -0.625,-0.75 -1.60937,-0.75 -0.875,0 -1.48438,0.59375 -0.60937,0.59375 -0.67187,1.59375 z m 12.10424,4.53125 v -0.95312 q -0.71875,1.125 -2.125,1.125 -0.90625,0 -1.67187,-0.5 -0.75,-0.5 -1.17188,-1.39063 -0.42187,-0.90625 -0.42187,-2.07812 0,-1.14063 0.375,-2.0625 0.39062,-0.92188 1.14062,-1.40625 0.76563,-0.5 1.70313,-0.5 0.6875,0 1.21875,0.29687 0.53125,0.28125 0.875,0.73438 v -3.75 h 1.28125 v 10.48437 z m -4.0625,-3.79687 q 0,1.46875 0.60938,2.1875 0.625,0.71875 1.45312,0.71875 0.84375,0 1.4375,-0.6875 0.59375,-0.6875 0.59375,-2.10938 0,-1.5625 -0.60937,-2.28125 -0.59375,-0.73437 -1.48438,-0.73437 -0.84375,0 -1.42187,0.70312 -0.57813,0.70313 -0.57813,2.20313 z m 11.36371,3.79687 v -10.48437 h 1.29688 v 5.96875 l 3.04687,-3.07813 h 1.67188 l -2.90625,2.8125 3.1875,4.78125 h -1.57813 l -2.51562,-3.89062 -0.90625,0.875 v 3.01562 z m 12.53125,-2.45312 1.32813,0.17187 q -0.3125,1.17188 -1.17188,1.8125 -0.84375,0.64063 -2.17187,0.64063 -1.67188,0 -2.65625,-1.01563 -0.96875,-1.03125 -0.96875,-2.89062 0,-1.92188 0.98437,-2.96875 1,-1.0625 2.57813,-1.0625 1.51562,0 2.48437,1.03125 0.96875,1.03125 0.96875,2.92187 0,0.10938 -0.0156,0.34375 h -5.65625 q 0.0625,1.25 0.70312,1.92188 0.64063,0.65625 1.59375,0.65625 0.70313,0 1.20313,-0.35938 0.5,-0.375 0.79687,-1.20312 z m -4.23437,-2.07813 h 4.25 q -0.0937,-0.95312 -0.48438,-1.4375 -0.625,-0.75 -1.60937,-0.75 -0.875,0 -1.48438,0.59375 -0.60937,0.59375 -0.67187,1.59375 z m 7.11984,7.45313 -0.14063,-1.20313 q 0.42188,0.10938 0.73438,0.10938 0.4375,0 0.6875,-0.14063 0.26562,-0.14062 0.42187,-0.40625 0.125,-0.1875 0.39063,-0.95312 0.0469,-0.10938 0.125,-0.3125 l -2.89063,-7.60938 h 1.39063 l 1.57812,4.39063 q 0.3125,0.84375 0.54688,1.76562 0.23437,-0.89062 0.53125,-1.73437 l 1.625,-4.42188 h 1.29687 l -2.89062,7.71875 q -0.46875,1.25 -0.73438,1.73438 -0.34375,0.625 -0.78125,0.92187 -0.4375,0.29688 -1.0625,0.29688 -0.375,0 -0.82812,-0.15625 z m 6.875,-5.1875 1.26562,-0.20313 q 0.10938,0.76563 0.59375,1.17188 0.5,0.40625 1.375,0.40625 0.89063,0 1.3125,-0.35938 0.4375,-0.35937 0.4375,-0.84375 0,-0.4375 -0.375,-0.6875 -0.26562,-0.17187 -1.3125,-0.4375 -1.42187,-0.35937 -1.96875,-0.60937 -0.54687,-0.26563 -0.82812,-0.73438 -0.28125,-0.46875 -0.28125,-1.01562 0,-0.51563 0.21875,-0.9375 0.23437,-0.4375 0.64062,-0.73438 0.29688,-0.21875 0.8125,-0.35937 0.53125,-0.15625 1.125,-0.15625 0.89063,0 1.5625,0.26562 0.67188,0.25 1,0.6875 0.32813,0.4375 0.4375,1.17188 l -1.25,0.17187 q -0.0937,-0.57812 -0.5,-0.90625 -0.40625,-0.34375 -1.15625,-0.34375 -0.89062,0 -1.28125,0.29688 -0.375,0.29687 -0.375,0.6875 0,0.25 0.15625,0.45312 0.15625,0.20313 0.5,0.34375 0.1875,0.0781 1.14063,0.32813 1.35937,0.35937 1.89062,0.59375 0.54688,0.23437 0.85938,0.6875 0.3125,0.4375 0.3125,1.09375 0,0.64062 -0.375,1.21875 -0.375,0.5625 -1.09375,0.875 -0.70313,0.3125 -1.59375,0.3125 -1.48438,0 -2.26563,-0.60938 -0.76562,-0.625 -0.98437,-1.82812 z m 10.65625,1.10937 0.1875,1.14063 q -0.54688,0.10937 -0.98438,0.10937 -0.6875,0 -1.07812,-0.21875 -0.39063,-0.21875 -0.54688,-0.57812 -0.15625,-0.35938 -0.15625,-1.51563 v -4.375 h -0.95312 v -1 h 0.95312 v -1.89062 l 1.28125,-0.76563 v 2.65625 h 1.29688 v 1 h -1.29688 v 4.4375 q 0,0.54688 0.0625,0.71875 0.0781,0.15625 0.21875,0.25 0.15625,0.0781 0.45313,0.0781 0.20312,0 0.5625,-0.0469 z m 0.77512,-2.64062 q 0,-2.10938 1.17187,-3.125 0.98438,-0.84375 2.39063,-0.84375 1.57812,0 2.5625,1.03125 1,1.01562 1,2.82812 0,1.46875 -0.4375,2.3125 -0.4375,0.82813 -1.28125,1.29688 -0.84375,0.46875 -1.84375,0.46875 -1.59375,0 -2.57813,-1.01563 -0.98437,-1.03125 -0.98437,-2.95312 z m 1.32812,0 q 0,1.45312 0.625,2.1875 0.64063,0.71875 1.60938,0.71875 0.96875,0 1.59375,-0.71875 0.64062,-0.73438 0.64062,-2.23438 0,-1.40625 -0.64062,-2.125 -0.64063,-0.73437 -1.59375,-0.73437 -0.96875,0 -1.60938,0.71875 -0.625,0.71875 -0.625,2.1875 z m 7.29172,3.79687 v -7.59375 h 1.15625 v 1.14063 q 0.45312,-0.79688 0.82812,-1.04688 0.375,-0.26562 0.8125,-0.26562 0.65625,0 1.32813,0.40625 l -0.4375,1.20312 q -0.46875,-0.28125 -0.95313,-0.28125 -0.42187,0 -0.76562,0.25 -0.32813,0.25 -0.46875,0.70313 -0.21875,0.6875 -0.21875,1.5 v 3.98437 z m 10.09939,-2.45312 1.32813,0.17187 q -0.3125,1.17188 -1.17188,1.8125 -0.84375,0.64063 -2.17187,0.64063 -1.67188,0 -2.65625,-1.01563 -0.96875,-1.03125 -0.96875,-2.89062 0,-1.92188 0.98437,-2.96875 1,-1.0625 2.57813,-1.0625 1.51562,0 2.48437,1.03125 0.96875,1.03125 0.96875,2.92187 0,0.10938 -0.0156,0.34375 h -5.65625 q 0.0625,1.25 0.70312,1.92188 0.64063,0.65625 1.59375,0.65625 0.70313,0 1.20313,-0.35938 0.5,-0.375 0.79687,-1.20312 z m -4.23437,-2.07813 h 4.25 q -0.0937,-0.95312 -0.48438,-1.4375 -0.625,-0.75 -1.60937,-0.75 -0.875,0 -1.48438,0.59375 -0.60937,0.59375 -0.67187,1.59375 z"
       fill-rule="nonzero"
       id="path222" />
    <path
       fill="#000000"
       fill-opacity="0"
       d="m 218.95291,246.37007 c 0,36.84105 55.16534,55.26085 110.33069,73.68211 55.16537,18.42123 110.33072,36.84399 110.33072,73.68796"
       fill-rule="evenodd"
       id="path224" />
    <path
       stroke="#000000"
       stroke-width="1"
       stroke-linejoin="round"
       stroke-linecap="butt"
       d="m 219.45573,252.34898 0.0542,0.31104 c 0.0245,0.13572 0.0498,0.27117 0.0759,0.40637 0.41751,2.16314 1.03706,4.25883 1.84512,6.29158 1.6162,4.06543 3.98657,7.87903 7.00343,11.47674 6.03371,7.19547 14.65329,13.52744 24.9968,19.28382 20.68701,11.51275 48.26968,20.72299 75.85236,29.93362 27.5827,9.21063 55.16537,18.42163 75.85239,29.93546 10.3435,5.75692 18.9631,12.08956 24.99679,19.28573 3.01688,3.59808 5.38724,7.41202 7.00342,11.47785 0.80811,2.03289 1.42761,4.12878 1.84515,6.29208 0.0261,0.13519 0.0514,0.27069 0.0759,0.40643 l 0.0543,0.31159"
       fill-rule="evenodd"
       id="path226" />
    <path
       fill="#000000"
       stroke="#000000"
       stroke-width="1"
       stroke-linecap="butt"
       d="m 221.10165,252.21054 -2.02624,-4.3837 -1.2656,4.66056 z"
       fill-rule="evenodd"
       id="path228" />
    <path
       fill="#000000"
       stroke="#000000"
       stroke-width="1"
       stroke-linecap="butt"
       d="m 437.46567,387.89966 2.02618,4.38373 1.26566,-4.66052 z"
       fill-rule="evenodd"
       id="path230" />
    <path
       fill="#000000"
       fill-opacity="0"
       d="m 437.53952,246.37007 c 0,36.84105 0.51181,55.26085 1.02362,73.68211 0.51181,18.42123 1.02362,36.84399 1.02362,73.68796"
       fill-rule="evenodd"
       id="path232" />
    <path
       stroke="#000000"
       stroke-width="1"
       stroke-linejoin="round"
       stroke-linecap="butt"
       d="m 437.54477,252.37007 6.4e-4,0.69632 c 0.004,2.16315 0.01,4.25883 0.0171,6.29158 0.015,4.06543 0.037,7.87903 0.065,11.47675 0.056,7.19546 0.13596,13.52743 0.23191,19.28381 0.19192,11.51275 0.44784,20.72299 0.70376,29.93362 0.25589,9.21063 0.51181,18.42163 0.70374,29.93546 0.0959,5.75693 0.17593,12.08957 0.2319,19.28573 0.028,3.59809 0.05,7.41202 0.065,11.47785 0.008,2.0329 0.0132,4.12878 0.0171,6.29208 l 6.4e-4,0.69687"
       fill-rule="evenodd"
       id="path234" />
    <path
       fill="#000000"
       stroke="#000000"
       stroke-width="1"
       stroke-linecap="butt"
       d="m 439.19653,252.36862 -1.65573,-4.53664 -1.64774,4.53954 z"
       fill-rule="evenodd"
       id="path236" />
    <path
       fill="#000000"
       stroke="#000000"
       stroke-width="1"
       stroke-linecap="butt"
       d="m 437.92978,387.7416 1.65573,4.53665 1.64774,-4.53955 z"
       fill-rule="evenodd"
       id="path238" />
    <path
       fill="#000000"
       fill-opacity="0"
       d="m 656.12616,246.37007 c 0,36.84105 -54.13391,55.26085 -108.26776,73.68211 -54.13385,18.42123 -108.2677,36.84399 -108.2677,73.68796"
       fill-rule="evenodd"
       id="path240" />
    <path
       stroke="#000000"
       stroke-width="1"
       stroke-linejoin="round"
       stroke-linecap="butt"
       d="m 655.63257,252.34973 -0.0531,0.31029 c -0.024,0.13572 -0.0489,0.27118 -0.0745,0.40637 -0.40973,2.16315 -1.0177,4.25883 -1.81067,6.29158 -1.58594,4.06543 -3.91205,7.87903 -6.87244,11.47675 -5.9209,7.19546 -14.37933,13.52743 -24.52942,19.28381 -20.30017,11.51275 -47.36712,20.72299 -74.43402,29.93362 -27.06695,9.21063 -54.13388,18.42163 -74.43408,29.93546 -10.15008,5.75693 -18.60852,12.08957 -24.52942,19.28573 -2.96042,3.59809 -5.2865,7.41202 -6.87243,11.47785 -0.793,2.0329 -1.40094,4.12878 -1.81067,6.29208 -0.0256,0.13519 -0.0504,0.27069 -0.0745,0.40643 l -0.0532,0.3108"
       fill-rule="evenodd"
       id="path242" />
    <path
       fill="#000000"
       stroke="#000000"
       stroke-width="1"
       stroke-linecap="butt"
       d="m 657.2787,252.48561 -1.27277,-4.65858 -2.01947,4.38684 z"
       fill-rule="evenodd"
       id="path244" />
    <path
       fill="#000000"
       stroke="#000000"
       stroke-width="1"
       stroke-linecap="butt"
       d="m 438.43805,387.62463 1.27289,4.65857 2.01941,-4.38687 z"
       fill-rule="evenodd"
       id="path246" />
  </g>
</svg>
